<svg width="12" height="14" viewBox="0 0 12 14" fill="none" xmlns="http://www.w3.org/2000/svg">
<path d="M11.1988 3.6326C11.2157 3.62269 11.2298 3.60851 11.2396 3.59146C11.2494 3.57441 11.2546 3.55509 11.2546 3.53543C11.2546 3.51577 11.2494 3.49645 11.2396 3.4794C11.2298 3.46235 11.2157 3.44817 11.1988 3.43826L6.90294 0.942446C6.62807 0.783124 6.316 0.699219 5.9983 0.699219C5.6806 0.699219 5.36853 0.783124 5.09366 0.942446L0.79869 3.43826C0.781707 3.44817 0.767618 3.46235 0.757826 3.4794C0.748034 3.49645 0.742881 3.51577 0.742881 3.53543C0.742881 3.55509 0.748034 3.57441 0.757826 3.59146C0.767618 3.60851 0.781707 3.62269 0.79869 3.6326L5.94219 6.65829C5.95949 6.66848 5.9792 6.67385 5.99928 6.67385C6.01936 6.67385 6.03908 6.66848 6.05638 6.65829L11.1988 3.6326ZM0.31719 4.39788C0.300034 4.38798 0.280567 4.38278 0.260757 4.38281C0.240947 4.38284 0.221497 4.3881 0.204373 4.39806C0.187249 4.40803 0.173059 4.42233 0.163238 4.43953C0.153416 4.45674 0.148311 4.47623 0.14844 4.49604V9.3867C0.148864 9.62238 0.210981 9.85384 0.328612 10.0581C0.446243 10.2623 0.61529 10.4322 0.81894 10.5508L5.37969 13.2854C5.39678 13.2953 5.41617 13.3005 5.43591 13.3005C5.45565 13.3005 5.47504 13.2953 5.49214 13.2854C5.50924 13.2756 5.52344 13.2614 5.53333 13.2443C5.54321 13.2272 5.54842 13.2078 5.54844 13.1881V7.51385C5.54842 7.49412 5.54321 7.47475 5.53334 7.45767C5.52347 7.44059 5.50928 7.4264 5.49219 7.41654L0.31719 4.39788ZM6.44844 7.53354V13.1867C6.44846 13.2064 6.45367 13.2258 6.46356 13.2429C6.47344 13.26 6.48764 13.2741 6.50474 13.284C6.52184 13.2939 6.54123 13.2991 6.56097 13.2991C6.58071 13.299 6.6001 13.2938 6.61719 13.284L11.1777 10.5494C11.3812 10.4309 11.5501 10.2613 11.6678 10.0573C11.7855 9.85336 11.8477 9.62217 11.8484 9.3867V4.49604C11.8484 4.47633 11.8431 4.45698 11.8332 4.43993C11.8233 4.42288 11.8091 4.40874 11.792 4.39891C11.7749 4.38908 11.7556 4.38392 11.7358 4.38394C11.7161 4.38395 11.6968 4.38915 11.6797 4.39901L6.50469 7.43651C6.48765 7.44635 6.47348 7.46049 6.46361 7.47752C6.45374 7.49454 6.44851 7.51386 6.44844 7.53354Z" fill="black" fill-opacity="0.4"/>
</svg>
