<svg width="13" height="12" viewBox="0 0 13 12" fill="none" xmlns="http://www.w3.org/2000/svg">
<path d="M3.65789 10.7368H1.76316C1.42815 10.7368 1.10686 10.6038 0.86997 10.3669C0.633082 10.13 0.5 9.80869 0.5 9.47368V1.89474C0.5 1.55973 0.633082 1.23844 0.86997 1.00155C1.10686 0.764661 1.42815 0.631579 1.76316 0.631579H3.65789C3.9929 0.631579 4.31419 0.764661 4.55108 1.00155C4.78797 1.23844 4.92105 1.55973 4.92105 1.89474V9.47368C4.92105 9.80869 4.78797 10.13 4.55108 10.3669C4.31419 10.6038 3.9929 10.7368 3.65789 10.7368ZM8.71053 4.42105H11.2368C11.5719 4.42105 11.8931 4.28797 12.13 4.05108C12.3669 3.81419 12.5 3.4929 12.5 3.15789V1.26316C12.5 0.928148 12.3669 0.606858 12.13 0.36997C11.8931 0.133082 11.5719 0 11.2368 0H8.71053C8.37552 0 8.05423 0.133082 7.81734 0.36997C7.58045 0.606858 7.44737 0.928148 7.44737 1.26316V3.15789C7.44737 3.4929 7.58045 3.81419 7.81734 4.05108C8.05423 4.28797 8.37552 4.42105 8.71053 4.42105ZM11.8684 10.7368V6.94737C11.8684 6.61236 11.7353 6.29107 11.4985 6.05418C11.2616 5.81729 10.9403 5.68421 10.6053 5.68421H7.44737C7.11236 5.68421 6.79107 5.81729 6.55418 6.05418C6.31729 6.29107 6.18421 6.61236 6.18421 6.94737V10.7368C6.18421 11.0719 6.31729 11.3931 6.55418 11.63C6.79107 11.8669 7.11236 12 7.44737 12H10.6053C10.9403 12 11.2616 11.8669 11.4985 11.63C11.7353 11.3931 11.8684 11.0719 11.8684 10.7368Z" fill="black" fill-opacity="0.4"/>
</svg>
