<svg width="14" height="14" viewBox="0 0 14 14" fill="none" xmlns="http://www.w3.org/2000/svg">
<path fill-rule="evenodd" clip-rule="evenodd" d="M8.60893 2.65994C8.38193 2.46194 7.79193 2.29494 7.00693 2.78894C4.49893 4.36895 2.31393 7.21895 1.57493 8.25195C1.51761 8.33205 1.44507 8.40008 1.36146 8.45216C1.27784 8.50423 1.18479 8.53932 1.08761 8.55543C0.990438 8.57154 0.89104 8.56836 0.795095 8.54605C0.699151 8.52375 0.608538 8.48277 0.528432 8.42545C0.448326 8.36812 0.380294 8.29559 0.328222 8.21197C0.276149 8.12836 0.241056 8.03531 0.224945 7.93813C0.208834 7.84095 0.212021 7.74155 0.234324 7.64561C0.256627 7.54966 0.29761 7.45905 0.354932 7.37895C1.10493 6.33195 3.43293 3.26694 6.20793 1.51894C7.40893 0.762945 8.74893 0.794944 9.59293 1.52694C10.0139 1.89194 10.2779 2.41694 10.2809 3.01294C10.2849 3.60394 10.0349 4.18994 9.57893 4.71094C8.15193 6.34295 6.26693 8.55595 5.47493 9.63595C5.37093 9.77795 5.36393 9.88595 5.37293 9.94795C5.38293 10.0179 5.41993 10.0829 5.48293 10.1309C5.52592 10.1612 5.57446 10.1827 5.62576 10.1942C5.67707 10.2057 5.73014 10.207 5.78193 10.1979C5.92193 10.1809 6.14193 10.1039 6.40993 9.85895C6.63593 9.65095 6.87093 9.42895 7.11293 9.20195C7.85793 8.50095 8.66293 7.74195 9.46893 7.14895C10.3069 6.53295 11.2869 6.36195 12.0299 6.81595C12.4009 7.04295 12.6619 7.40595 12.7519 7.83995C12.8419 8.26995 12.7569 8.71795 12.5399 9.12995C12.3069 9.57195 12.1059 9.88995 11.9249 10.1759L11.9109 10.1989C11.7375 10.4648 11.5757 10.7381 11.4259 11.0179C11.3924 11.0814 11.3729 11.1512 11.3688 11.2228C11.3646 11.2944 11.3759 11.3661 11.4019 11.4329C11.4259 11.4929 11.4489 11.5219 11.4619 11.5339C11.5539 11.5409 11.6339 11.5179 11.7609 11.4199C11.9389 11.2809 12.1379 11.0459 12.4369 10.6539C12.5577 10.4959 12.7364 10.3923 12.9336 10.3659C13.1308 10.3396 13.3304 10.3926 13.4884 10.5134C13.6465 10.6343 13.7501 10.8129 13.7765 11.0101C13.8028 11.2073 13.7497 11.4069 13.6289 11.5649C13.3439 11.9379 13.0349 12.3289 12.6809 12.6049C12.2889 12.9089 11.8139 13.0929 11.2369 13.0179C10.6039 12.9359 10.1889 12.4479 10.0059 11.9809C9.90132 11.7143 9.85521 11.4282 9.87074 11.1422C9.88627 10.8561 9.96306 10.5767 10.0959 10.3229C10.2859 9.95895 10.4659 9.67595 10.6369 9.40695L10.6589 9.37295C10.8349 9.09395 11.0089 8.81695 11.2129 8.43095C11.2979 8.26895 11.2899 8.17595 11.2839 8.14695C11.2823 8.13624 11.2782 8.12606 11.2719 8.11721C11.2657 8.10836 11.2575 8.10108 11.2479 8.09595C11.2049 8.06895 10.9009 7.95795 10.3579 8.35795C9.63193 8.89095 8.92493 9.55795 8.19793 10.2419C7.94327 10.4833 7.68493 10.7243 7.42293 10.9649C6.49993 11.8109 5.37593 11.9239 4.58493 11.3319C3.81493 10.7559 3.60393 9.65195 4.26493 8.74995C5.10193 7.60795 7.03193 5.34494 8.44993 3.72394C8.72093 3.41394 8.78193 3.16894 8.78093 3.02194C8.78084 2.95274 8.76546 2.8844 8.7359 2.82183C8.70634 2.75925 8.66333 2.70397 8.60993 2.65994M11.4729 11.5429L11.4699 11.5409C11.4719 11.5409 11.4729 11.5416 11.4729 11.5429Z" fill="black" fill-opacity="0.4"/>
</svg>
