<svg width="12" height="14" viewBox="0 0 12 14" fill="none" xmlns="http://www.w3.org/2000/svg">
<path d="M10.0013 2.9987H8.66797C8.66797 1.52536 7.47464 0.332031 6.0013 0.332031C4.52797 0.332031 3.33464 1.52536 3.33464 2.9987H2.0013C1.26797 2.9987 0.667969 3.5987 0.667969 4.33203V12.332C0.667969 13.0654 1.26797 13.6654 2.0013 13.6654H10.0013C10.7346 13.6654 11.3346 13.0654 11.3346 12.332V4.33203C11.3346 3.5987 10.7346 2.9987 10.0013 2.9987ZM4.66797 5.66536C4.66797 6.03203 4.36797 6.33203 4.0013 6.33203C3.63464 6.33203 3.33464 6.03203 3.33464 5.66536V4.33203H4.66797V5.66536ZM6.0013 1.66536C6.73464 1.66536 7.33464 2.26536 7.33464 2.9987H4.66797C4.66797 2.26536 5.26797 1.66536 6.0013 1.66536ZM8.66797 5.66536C8.66797 6.03203 8.36797 6.33203 8.0013 6.33203C7.63464 6.33203 7.33464 6.03203 7.33464 5.66536V4.33203H8.66797V5.66536Z" fill="black" fill-opacity="0.4"/>
</svg>
