<svg width="16" height="16" viewBox="0 0 16 16" fill="none" xmlns="http://www.w3.org/2000/svg">
<path d="M5.18569 11.3578C5.32656 11.4573 5.48779 11.5242 5.65771 11.5537C5.82763 11.5832 6.00197 11.5745 6.16812 11.5283C6.33426 11.482 6.48804 11.3995 6.61833 11.2865C6.74861 11.1735 6.85214 11.0329 6.9214 10.875L7.4714 9.20356C7.60517 8.80143 7.83076 8.43599 8.1303 8.1362C8.42984 7.83641 8.7951 7.61052 9.19712 7.47642L10.7957 6.95713C11.0229 6.87809 11.2194 6.72936 11.3571 6.53213C11.4635 6.38261 11.5328 6.20993 11.5592 6.02836C11.5857 5.84678 11.5686 5.66151 11.5094 5.48784C11.4501 5.31417 11.3504 5.15708 11.2185 5.02953C11.0866 4.90198 10.9263 4.80764 10.7507 4.75428L9.16854 4.23999C8.7663 4.10656 8.40068 3.88127 8.10064 3.58197C7.8006 3.28268 7.5744 2.91761 7.43997 2.5157L6.92069 0.917847C6.84085 0.691457 6.69257 0.495502 6.4964 0.357133C6.29907 0.221061 6.06503 0.148193 5.82533 0.148193C5.58563 0.148193 5.35159 0.221061 5.15426 0.357133C4.95506 0.498001 4.80514 0.697886 4.72569 0.928561L4.19997 2.54642C4.06586 2.93789 3.84447 3.29373 3.55255 3.58701C3.26062 3.8803 2.90582 4.10335 2.51497 4.23928L0.914973 4.75785C0.6873 4.83833 0.490374 4.98777 0.351593 5.18539C0.212812 5.383 0.139078 5.61896 0.14065 5.86043C0.142221 6.10191 0.21902 6.33689 0.360362 6.53268C0.501703 6.72847 0.700557 6.87534 0.929258 6.95285L2.51212 7.46713C3.02529 7.63935 3.47642 7.95882 3.80926 8.3857C3.99926 8.6307 4.14569 8.9057 4.24212 9.19999L4.76212 10.7957C4.84212 11.0228 4.99069 11.2193 5.18712 11.3578M12.1471 15.7007C12.2925 15.8034 12.4662 15.8584 12.6443 15.8578C12.8211 15.8584 12.9937 15.8043 13.1385 15.7028C13.2877 15.5976 13.3993 15.4474 13.4571 15.2743L13.7228 14.4578C13.779 14.2883 13.8739 14.1343 14 14.0078C14.1261 13.8813 14.2799 13.786 14.4493 13.7293L15.2821 13.4593C15.4501 13.3996 15.5955 13.2895 15.6984 13.144C15.8014 12.9984 15.8568 12.8247 15.8571 12.6464C15.8571 12.4635 15.7986 12.2854 15.6901 12.1381C15.5817 11.9908 15.4289 11.8821 15.2543 11.8278L14.4371 11.5636C14.2675 11.5073 14.1134 11.4123 13.9869 11.2861C13.8605 11.1598 13.7652 11.0059 13.7085 10.8364L13.4371 10.0057C13.3786 9.83616 13.2683 9.68925 13.1219 9.58567C12.9755 9.48208 12.8002 9.42704 12.6209 9.42831C12.4415 9.42957 12.2671 9.48707 12.1221 9.5927C11.9771 9.69833 11.869 9.84678 11.8128 10.0171L11.5457 10.8357C11.4909 11.003 11.3985 11.1555 11.2755 11.2814C11.1526 11.4074 11.0023 11.5034 10.8364 11.5621L10.0035 11.8321C9.8352 11.8916 9.6894 12.0017 9.58618 12.1474C9.48297 12.2931 9.4274 12.4672 9.42712 12.6457C9.4273 12.8258 9.48419 13.0012 9.58971 13.1471C9.69523 13.293 9.84402 13.402 10.015 13.4586L10.8321 13.7243C11.0024 13.7804 11.157 13.8758 11.2836 14.0027C11.4101 14.1297 11.5051 14.2846 11.5607 14.455L11.8314 15.2857C11.8905 15.4535 12.0003 15.5988 12.1457 15.7014" fill="black" fill-opacity="0.4"/>
</svg>
