<svg width="134" height="134" viewBox="0 0 134 134" fill="none" xmlns="http://www.w3.org/2000/svg">
<rect y="20.1277" width="115" height="115" rx="32" transform="rotate(-10.08 0 20.1277)" fill="url(#paint0_linear_1_13)"/>
<g filter="url(#filter0_d_1_13)">
<path d="M54.486 43.7401L62.8207 42.2589L65.7829 58.9283L57.4482 60.4095C55.2377 60.8023 52.9617 60.3009 51.1209 59.0156C49.28 57.7303 48.0252 55.7664 47.6324 53.5559C47.2396 51.3454 47.7409 49.0694 49.0262 47.2285C50.3115 45.3877 52.2755 44.1329 54.486 43.7401Z" fill="#F4511E"/>
<path d="M54.486 43.7401L62.8207 42.2589L65.7829 58.9283L57.4482 60.4095C55.2377 60.8023 52.9617 60.3009 51.1209 59.0156C49.28 57.7303 48.0252 55.7664 47.6324 53.5559C47.2396 51.3454 47.7409 49.0694 49.0262 47.2285C50.3115 45.3877 52.2755 44.1329 54.486 43.7401Z" fill="white" fill-opacity="0.15"/>
<path d="M74.1168 57.4474L65.7821 58.9286L62.8199 42.2592L71.1546 40.778C73.3651 40.3852 75.6411 40.8866 77.4819 42.1719C79.3228 43.4572 80.5776 45.4211 80.9704 47.6316C81.3632 49.8421 80.8619 52.1181 79.5766 53.959C78.2913 55.7998 76.3273 57.0546 74.1168 57.4474Z" fill="#FF8A65"/>
<path d="M74.1168 57.4474L65.7821 58.9286L62.8199 42.2592L71.1546 40.778C73.3651 40.3852 75.6411 40.8866 77.4819 42.1719C79.3228 43.4572 80.5776 45.4211 80.9704 47.6316C81.3632 49.8421 80.8619 52.1181 79.5766 53.959C78.2913 55.7998 76.3273 57.0546 74.1168 57.4474Z" fill="white" fill-opacity="0.15"/>
<path d="M67.2639 67.263C68.0819 71.8661 72.4766 74.9346 77.0797 74.1166C81.6828 73.2986 84.7513 68.9039 83.9333 64.3007C83.1153 59.6976 78.7206 56.6292 74.1175 57.4472C69.5143 58.2652 66.4459 62.6598 67.2639 67.263Z" fill="#29B6F6"/>
<path d="M67.2639 67.263C68.0819 71.8661 72.4766 74.9346 77.0797 74.1166C81.6828 73.2986 84.7513 68.9039 83.9333 64.3007C83.1153 59.6976 78.7206 56.6292 74.1175 57.4472C69.5143 58.2652 66.4459 62.6598 67.2639 67.263Z" fill="white" fill-opacity="0.15"/>
<path d="M57.4482 60.4094L65.7829 58.9283L68.7451 75.5977L60.4104 77.0788C58.1999 77.4716 55.9239 76.9702 54.0831 75.6849C52.2422 74.3996 50.9874 72.4357 50.5946 70.2252C50.2018 68.0147 50.7032 65.7387 51.9884 63.8979C53.2737 62.0571 55.2377 60.8022 57.4482 60.4094Z" fill="#7C4DFF"/>
<path d="M57.4482 60.4094L65.7829 58.9283L68.7451 75.5977L60.4104 77.0788C58.1999 77.4716 55.9239 76.9702 54.0831 75.6849C52.2422 74.3996 50.9874 72.4357 50.5946 70.2252C50.2018 68.0147 50.7032 65.7387 51.9884 63.8979C53.2737 62.0571 55.2377 60.8022 57.4482 60.4094Z" fill="white" fill-opacity="0.15"/>
<path d="M60.4104 77.0788L68.7451 75.5976L70.2262 83.9323C70.619 86.1428 70.1176 88.4189 68.8323 90.2597C67.547 92.1005 65.5831 93.3553 63.3726 93.7482C61.1621 94.141 58.8861 93.6396 57.0453 92.3543C55.2045 91.069 53.9496 89.1051 53.5568 86.8946C53.164 84.6841 53.6654 82.4081 54.9507 80.5672C56.236 78.7264 58.1999 77.4716 60.4104 77.0788Z" fill="#00E676"/>
<path d="M60.4104 77.0788L68.7451 75.5976L70.2262 83.9323C70.619 86.1428 70.1176 88.4189 68.8323 90.2597C67.547 92.1005 65.5831 93.3553 63.3726 93.7482C61.1621 94.141 58.8861 93.6396 57.0453 92.3543C55.2045 91.069 53.9496 89.1051 53.5568 86.8946C53.164 84.6841 53.6654 82.4081 54.9507 80.5672C56.236 78.7264 58.1999 77.4716 60.4104 77.0788Z" fill="white" fill-opacity="0.15"/>
</g>
<defs>
<filter id="filter0_d_1_13" x="23" y="26" width="88.5265" height="88.5265" filterUnits="userSpaceOnUse" color-interpolation-filters="sRGB">
<feFlood flood-opacity="0" result="BackgroundImageFix"/>
<feColorMatrix in="SourceAlpha" type="matrix" values="0 0 0 0 0 0 0 0 0 0 0 0 0 0 0 0 0 0 127 0" result="hardAlpha"/>
<feOffset dy="3"/>
<feGaussianBlur stdDeviation="2.5"/>
<feComposite in2="hardAlpha" operator="out"/>
<feColorMatrix type="matrix" values="0 0 0 0 0 0 0 0 0 0 0 0 0 0 0 0 0 0 0.1 0"/>
<feBlend mode="normal" in2="BackgroundImageFix" result="effect1_dropShadow_1_13"/>
<feBlend mode="normal" in="SourceGraphic" in2="effect1_dropShadow_1_13" result="shape"/>
</filter>
<linearGradient id="paint0_linear_1_13" x1="57.5" y1="20.1277" x2="57.5" y2="135.128" gradientUnits="userSpaceOnUse">
<stop stop-color="#E6E6E6" stop-opacity="0.5"/>
<stop offset="1" stop-color="#E3E3E3" stop-opacity="0.5"/>
</linearGradient>
</defs>
</svg>
