<svg width="20" height="20" viewBox="0 0 20 20" fill="none" xmlns="http://www.w3.org/2000/svg">
<path d="M8.26442 9.36483C8.26442 9.36483 9.96783 9.23171 9.96783 7.12904C9.96783 5.02622 8.57422 4 6.80892 4H1V15.7509H6.80892C6.80892 15.7509 10.3551 15.8688 10.3551 12.2825C10.3551 12.2826 10.5097 9.36483 8.26442 9.36483ZM6.3908 6.08858H6.80892C6.80892 6.08858 7.59852 6.08858 7.59852 7.31121C7.59852 8.53369 7.13415 8.71093 6.60743 8.71093H3.55948V6.08858H6.3908ZM6.64477 13.6624H3.55948V10.5221H6.80892C6.80892 10.5221 7.98579 10.5058 7.98579 12.1359C7.98579 13.5103 7.10678 13.652 6.64477 13.6624ZM15.0844 6.98977C10.7915 6.98977 10.7953 11.5048 10.7953 11.5048C10.7953 11.5048 10.5007 15.9967 15.0844 15.9967C15.0844 15.9967 18.9042 16.2264 18.9042 12.8719H16.9397C16.9397 12.8719 17.0053 14.1352 15.15 14.1352C15.15 14.1352 13.1852 14.2738 13.1852 12.0908H18.9697C18.9697 12.0907 19.6026 6.98977 15.0844 6.98977ZM13.1636 10.5221C13.1636 10.5221 13.4035 8.71089 15.1281 8.71089C16.8523 8.71089 16.8307 10.5221 16.8307 10.5221H13.1636ZM17.2883 6.13931H12.6827V4.69228H17.2883V6.13931Z" fill="black" fill-opacity="0.25"/>
</svg>
