<svg width="16" height="16" viewBox="0 0 16 16" fill="none" xmlns="http://www.w3.org/2000/svg">
<path d="M0 8.0008C0.0416 5.73017 0.8432 3.83398 2.4064 2.31383C3.9696 0.793679 5.8336 0.0208021 8 0C10.3328 0.0416042 12.2448 0.838484 13.7344 2.39064C15.224 3.94279 15.9792 5.81338 16 8.0008C15.9584 10.2506 15.1568 12.142 13.5936 13.6734C12.0304 15.2031 10.1664 15.9792 8 16C7.2496 16 6.5008 15.8848 5.7504 15.656C5.896 15.4271 6.0416 15.1663 6.1872 14.8751C6.3536 14.5215 6.5616 13.8542 6.8128 12.8749C6.8752 12.6045 6.9696 12.2396 7.0944 11.7804C7.24 12.03 7.4896 12.2588 7.8448 12.4684C8.7824 12.9053 9.7712 12.8637 10.8128 12.3436C11.896 11.718 12.6464 10.7499 13.0624 9.43774C13.4368 8.06321 13.3904 6.78628 12.9216 5.61016C12.4528 4.43244 11.6144 3.58436 10.4064 3.06271C8.8864 2.62586 7.4064 2.67227 5.9696 3.20352C4.5328 3.73477 3.5328 4.64686 2.9696 5.93819C2.824 6.41664 2.736 6.89189 2.704 7.36074C2.672 7.82958 2.688 8.28723 2.7504 8.73527C2.8128 9.18332 2.9696 9.58496 3.2192 9.93859C3.4688 10.2922 3.8032 10.5643 4.2192 10.7515C4.3232 10.7931 4.4064 10.7931 4.4688 10.7515C4.552 10.7099 4.6352 10.5435 4.7184 10.2522C4.8016 9.961 4.8336 9.76258 4.8128 9.65856C4.792 9.61696 4.7504 9.54335 4.688 9.43934C4.2512 8.73047 4.104 7.9864 4.2512 7.20552C4.3968 6.42464 4.72 5.76218 5.2192 5.22132C5.9904 4.53325 6.8912 4.15882 7.9216 4.09641C8.952 4.034 9.8336 4.31563 10.5616 4.93969C10.9568 5.39734 11.2128 5.94939 11.3264 6.59586C11.44 7.24232 11.4416 7.86159 11.3264 8.45525C11.2112 9.0489 11.008 9.60576 10.7168 10.1274C10.1952 10.9403 9.5808 11.3563 8.8736 11.3771C8.4576 11.3563 8.1184 11.1947 7.8576 10.8923C7.5968 10.5899 7.5184 10.241 7.624 9.84578C7.6656 9.61696 7.7904 9.16892 7.9984 8.50165C8.2064 7.83438 8.3216 7.33513 8.3424 7.0023C8.28 6.21022 7.9152 5.80378 7.248 5.78298C6.7264 5.84538 6.3424 6.08061 6.0912 6.48545C5.84 6.89029 5.7056 7.35594 5.6848 7.87599C5.7472 8.48085 5.8416 8.89689 5.9664 9.12571C5.7376 10.0634 5.56 10.8139 5.4352 11.3755C5.3936 11.5212 5.2784 11.9692 5.0912 12.7197C4.904 13.4701 4.8 14.043 4.7792 14.4382V15.3135C3.3008 14.6255 2.1328 13.6318 1.28 12.3292C0.4272 11.0267 0 9.58336 0 8.0008Z" fill="black" fill-opacity="0.25"/>
</svg>
