<svg width="19" height="12" viewBox="0 0 19 12" fill="none" xmlns="http://www.w3.org/2000/svg">
<path fill-rule="evenodd" clip-rule="evenodd" d="M18.5625 0.805263C18.6962 0.331579 18.5625 0 17.9388 0H15.8598C15.3252 0 15.0876 0.3 14.954 0.631579C14.954 0.631579 13.8996 3.37895 12.3998 5.14737C11.9097 5.66842 11.7018 5.82632 11.4345 5.82632C11.3009 5.82632 11.1078 5.66842 11.1078 5.19474V0.805263C11.1078 0.236842 10.9593 0 10.5138 0H7.24681C6.92011 0 6.71221 0.268421 6.71221 0.505263C6.71221 1.0421 7.45472 1.16842 7.54382 2.65263V5.90526C7.54382 6.61579 7.42502 6.7421 7.15771 6.7421C6.45976 6.7421 4.73716 3.99474 3.72736 0.836843C3.51946 0.252632 3.32641 0 2.79181 0H0.712801C0.1188 0 0 0.3 0 0.631579C0 1.21579 0.697951 4.12105 3.28186 7.95789C5.00446 10.5789 7.42502 12 9.62282 12C10.9445 12 11.1078 11.6842 11.1078 11.1474V9.15789C11.1078 8.52632 11.2266 8.4 11.6573 8.4C11.9691 8.4 12.4889 8.55789 13.7214 9.82105C15.1322 11.3211 15.3698 12 16.1568 12H18.2358C18.8298 12 19.1268 11.6842 18.9486 11.0684C18.7556 10.4526 18.0873 9.55263 17.1963 8.47895C16.7063 7.86316 15.9786 7.21579 15.7707 6.88421C15.4589 6.45789 15.548 6.26842 15.7707 5.90526C15.7707 5.88947 18.3101 2.1 18.5625 0.805263Z" fill="black" fill-opacity="0.25"/>
</svg>
