<svg width="20" height="20" viewBox="0 0 20 20" fill="none" xmlns="http://www.w3.org/2000/svg">
<path d="M15.1988 6.6326C15.2157 6.6227 15.2298 6.60851 15.2396 6.59146C15.2494 6.57441 15.2546 6.55509 15.2546 6.53543C15.2546 6.51577 15.2494 6.49645 15.2396 6.4794C15.2298 6.46235 15.2157 6.44817 15.1988 6.43826L10.9029 3.94245C10.6281 3.78312 10.316 3.69922 9.9983 3.69922C9.6806 3.69922 9.36853 3.78312 9.09366 3.94245L4.79869 6.43826C4.78171 6.44817 4.76762 6.46235 4.75783 6.4794C4.74803 6.49645 4.74288 6.51577 4.74288 6.53543C4.74288 6.55509 4.74803 6.57441 4.75783 6.59146C4.76762 6.60851 4.78171 6.6227 4.79869 6.6326L9.94219 9.65829C9.95949 9.66848 9.9792 9.67385 9.99928 9.67385C10.0194 9.67385 10.0391 9.66848 10.0564 9.65829L15.1988 6.6326ZM4.31719 7.39788C4.30003 7.38798 4.28057 7.38278 4.26076 7.38281C4.24095 7.38284 4.2215 7.3881 4.20437 7.39806C4.18725 7.40803 4.17306 7.42233 4.16324 7.43953C4.15342 7.45674 4.14831 7.47623 4.14844 7.49604V12.3867C4.14886 12.6224 4.21098 12.8538 4.32861 13.0581C4.44624 13.2623 4.61529 13.4322 4.81894 13.5508L9.37969 16.2854C9.39678 16.2953 9.41617 16.3005 9.43591 16.3005C9.45565 16.3005 9.47504 16.2953 9.49214 16.2854C9.50924 16.2756 9.52344 16.2614 9.53333 16.2443C9.54321 16.2272 9.54842 16.2078 9.54844 16.1881V10.5139C9.54842 10.4941 9.54321 10.4747 9.53334 10.4577C9.52347 10.4406 9.50928 10.4264 9.49219 10.4165L4.31719 7.39788ZM10.4484 10.5335V16.1867C10.4485 16.2064 10.4537 16.2258 10.4636 16.2429C10.4734 16.26 10.4876 16.2741 10.5047 16.284C10.5218 16.2939 10.5412 16.2991 10.561 16.2991C10.5807 16.299 10.6001 16.2938 10.6172 16.284L15.1777 13.5494C15.3812 13.4309 15.5501 13.2613 15.6678 13.0573C15.7855 12.8534 15.8477 12.6222 15.8484 12.3867V7.49604C15.8484 7.47633 15.8431 7.45698 15.8332 7.43993C15.8233 7.42288 15.8091 7.40874 15.792 7.39891C15.7749 7.38908 15.7556 7.38392 15.7358 7.38394C15.7161 7.38395 15.6968 7.38915 15.6797 7.39901L10.5047 10.4365C10.4876 10.4463 10.4735 10.4605 10.4636 10.4775C10.4537 10.4945 10.4485 10.5139 10.4484 10.5335Z" fill="black"/>
</svg>
