<svg width="20" height="20" viewBox="0 0 20 20" fill="none" xmlns="http://www.w3.org/2000/svg">
<path d="M4.19831 12.3047C3.82519 12.8116 3.65156 13.438 3.71048 14.0647C3.76941 14.6913 4.05678 15.2744 4.51785 15.7029C4.97893 16.1313 5.58149 16.3752 6.21078 16.3881C6.84006 16.401 7.4521 16.1819 7.93031 15.7727C7.03876 15.6193 6.21114 15.2097 5.54844 14.5938C4.88574 13.978 4.41662 13.1826 4.19831 12.3047Z" fill="black"/>
<path d="M5.87424 8.60938C5.21865 9.33458 4.86434 10.2825 4.88355 11.26C4.90277 12.2374 5.29405 13.1707 5.97763 13.8696C6.66122 14.5685 7.58562 14.9803 8.56238 15.0211C9.53914 15.062 10.4947 14.7288 11.2342 14.0894C9.81504 14.0184 8.47482 13.4147 7.48122 12.3989C6.48762 11.3831 5.91376 10.0298 5.87424 8.60938Z" fill="black"/>
<path d="M11.5121 3.60156C12.4704 3.60157 13.4072 3.8856 14.2042 4.41777C15.0012 4.94995 15.6226 5.7064 15.9899 6.59155C16.3572 7.47671 16.4539 8.45086 16.2678 9.39096C16.0817 10.331 15.6212 11.1949 14.9444 11.8734C14.2675 12.5519 13.4048 13.0145 12.4652 13.2029C11.5256 13.3914 10.5512 13.2971 9.66513 12.932C8.77907 12.5669 8.02109 11.9474 7.48694 11.1517C6.95279 10.356 6.66645 9.41989 6.66408 8.46156C6.6625 7.8239 6.78673 7.1922 7.02966 6.60263C7.27259 6.01306 7.62944 5.4772 8.07977 5.02575C8.53011 4.5743 9.06508 4.21612 9.65405 3.97174C10.243 3.72735 10.8744 3.60156 11.5121 3.60156Z" fill="black"/>
</svg>
