<svg width="12" height="12" viewBox="0 0 12 12" fill="none" xmlns="http://www.w3.org/2000/svg">
<path d="M2 2.125C2 1.82663 2.11853 1.54048 2.3295 1.3295C2.54048 1.11853 2.82663 1 3.125 1H7.125C7.42337 1 7.70952 1.11853 7.9205 1.3295C8.13147 1.54048 8.25 1.82663 8.25 2.125V4.75H8.875C9.02274 4.75 9.16903 4.7791 9.30552 4.83564C9.44201 4.89217 9.56603 4.97504 9.6705 5.0795C9.77496 5.18397 9.85783 5.30799 9.91436 5.44448C9.9709 5.58097 10 5.72726 10 5.875V10.625C10 10.7245 9.96049 10.8198 9.89017 10.8902C9.81984 10.9605 9.72446 11 9.625 11H8.25V9.125C8.25 8.78 7.97 8.5 7.625 8.5H4.375C4.03 8.5 3.75 8.78 3.75 9.125V11H2.375C2.27554 11 2.18016 10.9605 2.10983 10.8902C2.03951 10.8198 2 10.7245 2 10.625V2.125ZM7.5 9.25V11H6.375V9.25H7.5ZM5.625 9.25V11H4.5V9.25H5.625ZM3.75 3.25C3.75 3.38261 3.80268 3.50979 3.89645 3.60355C3.99021 3.69732 4.11739 3.75 4.25 3.75C4.38261 3.75 4.50979 3.69732 4.60355 3.60355C4.69732 3.50979 4.75 3.38261 4.75 3.25C4.75 3.11739 4.69732 2.99021 4.60355 2.89645C4.50979 2.80268 4.38261 2.75 4.25 2.75C4.11739 2.75 3.99021 2.80268 3.89645 2.89645C3.80268 2.99021 3.75 3.11739 3.75 3.25ZM4.25 6.25C4.11739 6.25 3.99021 6.30268 3.89645 6.39645C3.80268 6.49021 3.75 6.61739 3.75 6.75C3.75 6.88261 3.80268 7.00979 3.89645 7.10355C3.99021 7.19732 4.11739 7.25 4.25 7.25C4.38261 7.25 4.50979 7.19732 4.60355 7.10355C4.69732 7.00979 4.75 6.88261 4.75 6.75C4.75 6.61739 4.69732 6.49021 4.60355 6.39645C4.50979 6.30268 4.38261 6.25 4.25 6.25ZM4.25 4.5C4.11739 4.5 3.99021 4.55268 3.89645 4.64645C3.80268 4.74021 3.75 4.86739 3.75 5C3.75 5.13261 3.80268 5.25979 3.89645 5.35355C3.99021 5.44732 4.11739 5.5 4.25 5.5C4.38261 5.5 4.50979 5.44732 4.60355 5.35355C4.69732 5.25979 4.75 5.13261 4.75 5C4.75 4.86739 4.69732 4.74021 4.60355 4.64645C4.50979 4.55268 4.38261 4.5 4.25 4.5ZM6 2.75C5.86739 2.75 5.74021 2.80268 5.64645 2.89645C5.55268 2.99021 5.5 3.11739 5.5 3.25C5.5 3.38261 5.55268 3.50979 5.64645 3.60355C5.74021 3.69732 5.86739 3.75 6 3.75C6.13261 3.75 6.25979 3.69732 6.35355 3.60355C6.44732 3.50979 6.5 3.38261 6.5 3.25C6.5 3.11739 6.44732 2.99021 6.35355 2.89645C6.25979 2.80268 6.13261 2.75 6 2.75ZM6 6.25C5.86739 6.25 5.74021 6.30268 5.64645 6.39645C5.55268 6.49021 5.5 6.61739 5.5 6.75C5.5 6.88261 5.55268 7.00979 5.64645 7.10355C5.74021 7.19732 5.86739 7.25 6 7.25C6.13261 7.25 6.25979 7.19732 6.35355 7.10355C6.44732 7.00979 6.5 6.88261 6.5 6.75C6.5 6.61739 6.44732 6.49021 6.35355 6.39645C6.25979 6.30268 6.13261 6.25 6 6.25ZM7.75 6.25C7.61739 6.25 7.49021 6.30268 7.39645 6.39645C7.30268 6.49021 7.25 6.61739 7.25 6.75C7.25 6.88261 7.30268 7.00979 7.39645 7.10355C7.49021 7.19732 7.61739 7.25 7.75 7.25C7.88261 7.25 8.00979 7.19732 8.10355 7.10355C8.19732 7.00979 8.25 6.88261 8.25 6.75C8.25 6.61739 8.19732 6.49021 8.10355 6.39645C8.00979 6.30268 7.88261 6.25 7.75 6.25ZM6 4.5C5.86739 4.5 5.74021 4.55268 5.64645 4.64645C5.55268 4.74021 5.5 4.86739 5.5 5C5.5 5.13261 5.55268 5.25979 5.64645 5.35355C5.74021 5.44732 5.86739 5.5 6 5.5C6.13261 5.5 6.25979 5.44732 6.35355 5.35355C6.44732 5.25979 6.5 5.13261 6.5 5C6.5 4.86739 6.44732 4.74021 6.35355 4.64645C6.25979 4.55268 6.13261 4.5 6 4.5Z" fill="black"/>
</svg>
