<svg width="12" height="12" viewBox="0 0 12 12" fill="none" xmlns="http://www.w3.org/2000/svg">
<path fill-rule="evenodd" clip-rule="evenodd" d="M9.625 2.25C9.98967 2.25 10.3398 2.39448 10.5977 2.65234C10.8555 2.91021 11 3.26033 11 3.625V8.375C11 8.73967 10.8555 9.08979 10.5977 9.34766C10.3398 9.60552 9.98967 9.75 9.625 9.75H2.375C2.01033 9.75 1.66021 9.60747 1.40234 9.34961C1.14472 9.09179 1 8.74437 1 8.37988V3.625C1 3.26033 1.14448 2.91021 1.40234 2.65234C1.66021 2.39448 2.01033 2.25 2.375 2.25H9.625ZM3.375 6.75C3.27554 6.75 3.1797 6.78905 3.10938 6.85938C3.03905 6.9297 3 7.02554 3 7.125C3 7.22446 3.03905 7.3203 3.10938 7.39062C3.1797 7.46095 3.27554 7.5 3.375 7.5H6.625C6.72446 7.5 6.8203 7.46095 6.89062 7.39062C6.96095 7.3203 7 7.22446 7 7.125C7 7.02554 6.96095 6.9297 6.89062 6.85938C6.8203 6.78905 6.72446 6.75 6.625 6.75H3.375ZM3.375 4.25C3.27554 4.25 3.1797 4.28905 3.10938 4.35938C3.03905 4.4297 3 4.52554 3 4.625C3 4.72446 3.03905 4.8203 3.10938 4.89062C3.1797 4.96095 3.27554 5 3.375 5H8.625C8.72446 5 8.8203 4.96095 8.89062 4.89062C8.96095 4.8203 9 4.72446 9 4.625C9 4.52554 8.96095 4.4297 8.89062 4.35938C8.8203 4.28905 8.72446 4.25 8.625 4.25H3.375Z" fill="black"/>
</svg>
