<svg width="12" height="12" viewBox="0 0 12 12" fill="none" xmlns="http://www.w3.org/2000/svg">
<path fill-rule="evenodd" clip-rule="evenodd" d="M8.65043 6.12395C8.18379 6.12395 7.74581 6.21638 7.37741 6.37311C8.6668 6.73881 9.57962 7.61489 9.60418 8.63966C10.2755 8.55527 11 8.30611 11 7.62695C11 6.81115 9.92346 6.12395 8.65043 6.12395Z" fill="black"/>
<path fill-rule="evenodd" clip-rule="evenodd" d="M8.63814 5.54527H8.64633C9.51821 5.54527 10.2304 4.84601 10.2304 3.99405C10.2304 3.13806 9.51821 2.43881 8.64633 2.43881C8.47441 2.43881 8.31068 2.46694 8.15513 2.51517C8.43757 2.92507 8.6013 3.41937 8.6013 3.95386C8.6054 4.49639 8.43348 5.01882 8.1101 5.45284C8.27793 5.51312 8.45394 5.54527 8.63814 5.54527Z" fill="black"/>
<path fill-rule="evenodd" clip-rule="evenodd" d="M4.6185 6.36909C4.2501 6.21638 3.81211 6.12395 3.34957 6.12395C2.07654 6.12395 1 6.81115 1 7.62695C1 8.30611 1.72043 8.55125 2.39173 8.63966C2.4122 7.61489 3.32501 6.73881 4.6185 6.36909Z" fill="black"/>
<path fill-rule="evenodd" clip-rule="evenodd" d="M3.34957 5.54527H3.36185C3.54605 5.54527 3.72206 5.51312 3.88989 5.45284C3.5788 5.03489 3.3946 4.51648 3.3946 3.95386C3.3946 3.41937 3.55833 2.92507 3.84077 2.51517C3.68522 2.46694 3.52149 2.43881 3.34957 2.43881C2.47769 2.43881 1.76955 3.13806 1.76955 3.99405C1.76955 4.84601 2.47769 5.54527 3.34957 5.54527Z" fill="black"/>
<path fill-rule="evenodd" clip-rule="evenodd" d="M5.99779 6.78182C4.37642 6.78182 3.00639 7.64826 3.00639 8.67383C3.00639 10 5.25772 10 5.99779 10C7.28228 10 8.99001 9.86336 8.99001 8.68227C8.99001 7.65187 7.61957 6.78182 5.99779 6.78182Z" fill="black"/>
<path fill-rule="evenodd" clip-rule="evenodd" d="M5.99819 5.90939H6.0117C6.54179 5.90779 7.03954 5.70323 7.41285 5.33391C7.78657 4.9646 7.99123 4.47472 7.98919 3.9551C7.98919 2.87688 7.09643 2 5.99819 2C4.90036 2 4.00761 2.87688 4.00761 3.9551C4.00761 5.03251 4.90036 5.90939 5.99819 5.90939Z" fill="black"/>
</svg>
