<svg width="16" height="16" viewBox="0 0 16 16" fill="none" xmlns="http://www.w3.org/2000/svg">
<path fill-rule="evenodd" clip-rule="evenodd" d="M8 2C11.31 2 14 3.39055 14 6.87162C13.9999 10.3626 11.31 11.753 8 11.753C7.906 11.753 7.81208 11.7518 7.71875 11.7491L3.26855 13.9695C3.19912 13.9993 3.12199 14.0076 3.04785 13.993C2.97379 13.9783 2.9054 13.9414 2.85254 13.8874V13.8914C2.80046 13.837 2.76595 13.7682 2.75293 13.694C2.73993 13.6195 2.74949 13.5423 2.78027 13.4733L4 10.783C2.77403 10.0128 2.00003 8.74213 2 6.87162C2 3.39055 4.69 2 8 2ZM5.5 6.00123C5.08579 6.00123 4.75 6.33712 4.75 6.75146C4.75 7.1658 5.08579 7.50169 5.5 7.50169C5.91421 7.50169 6.25 7.1658 6.25 6.75146C6.25 6.33712 5.91421 6.00123 5.5 6.00123ZM8 6.00123C7.58579 6.00123 7.25 6.33712 7.25 6.75146C7.25 7.1658 7.58579 7.50169 8 7.50169C8.41421 7.50169 8.75 7.1658 8.75 6.75146C8.75 6.33712 8.41421 6.00123 8 6.00123ZM10.5 6.00123C10.0858 6.00123 9.75 6.33712 9.75 6.75146C9.75 7.1658 10.0858 7.50169 10.5 7.50169C10.9142 7.50169 11.25 7.1658 11.25 6.75146C11.25 6.33712 10.9142 6.00123 10.5 6.00123Z" fill="black" fill-opacity="0.4"/>
</svg>
