<svg width="20" height="20" viewBox="0 0 20 20" fill="none" xmlns="http://www.w3.org/2000/svg">
<path fill-rule="evenodd" clip-rule="evenodd" d="M10 2.5C14.1375 2.5 17.5 4.23818 17.5 8.58952C17.4999 12.9533 14.1375 14.6913 10 14.6913C9.8825 14.6913 9.7651 14.6897 9.64844 14.6864L4.08569 17.4619C3.9989 17.4991 3.90249 17.5095 3.80981 17.4912C3.71723 17.4728 3.63175 17.4268 3.56567 17.3593V17.3642C3.50058 17.2962 3.45743 17.2103 3.44116 17.1175C3.42491 17.0244 3.43686 16.9279 3.47534 16.8416L5 13.4787C3.46753 12.5159 2.50004 10.9277 2.5 8.58952C2.5 4.23818 5.8625 2.5 10 2.5ZM6.875 7.50154C6.35723 7.50154 5.9375 7.9214 5.9375 8.43933C5.9375 8.95726 6.35723 9.37712 6.875 9.37712C7.39277 9.37712 7.8125 8.95726 7.8125 8.43933C7.8125 7.9214 7.39277 7.50154 6.875 7.50154ZM10 7.50154C9.48223 7.50154 9.0625 7.9214 9.0625 8.43933C9.0625 8.95726 9.48223 9.37712 10 9.37712C10.5178 9.37712 10.9375 8.95726 10.9375 8.43933C10.9375 7.9214 10.5178 7.50154 10 7.50154ZM13.125 7.50154C12.6072 7.50154 12.1875 7.9214 12.1875 8.43933C12.1875 8.95726 12.6072 9.37712 13.125 9.37712C13.6428 9.37712 14.0625 8.95726 14.0625 8.43933C14.0625 7.9214 13.6428 7.50154 13.125 7.50154Z" fill="black" fill-opacity="0.4"/>
</svg>
