<svg width="12" height="12" viewBox="0 0 12 12" fill="none" xmlns="http://www.w3.org/2000/svg">
<path d="M2.80859 6.74219C2.55046 6.74219 2.33252 6.65544 2.15479 6.48193C1.98128 6.3042 1.89453 6.08626 1.89453 5.82812C1.89453 5.57422 1.98128 5.3584 2.15479 5.18066C2.33252 5.00293 2.55046 4.91406 2.80859 4.91406C3.0625 4.91406 3.2762 5.00293 3.44971 5.18066C3.62744 5.3584 3.71631 5.57422 3.71631 5.82812C3.71631 6.08626 3.62744 6.3042 3.44971 6.48193C3.2762 6.65544 3.0625 6.74219 2.80859 6.74219Z" fill="black" fill-opacity="0.9"/>
<path d="M5.7925 6.74219C5.53436 6.74219 5.31643 6.65544 5.13869 6.48193C4.96519 6.3042 4.87844 6.08626 4.87844 5.82812C4.87844 5.57422 4.96519 5.3584 5.13869 5.18066C5.31643 5.00293 5.53436 4.91406 5.7925 4.91406C6.04641 4.91406 6.26011 5.00293 6.43361 5.18066C6.61135 5.3584 6.70021 5.57422 6.70021 5.82812C6.70021 6.08626 6.61135 6.3042 6.43361 6.48193C6.26011 6.65544 6.04641 6.74219 5.7925 6.74219Z" fill="black" fill-opacity="0.9"/>
<path d="M8.77641 6.74219C8.51827 6.74219 8.30033 6.65544 8.1226 6.48193C7.9491 6.3042 7.86234 6.08626 7.86234 5.82812C7.86234 5.57422 7.9491 5.3584 8.1226 5.18066C8.30033 5.00293 8.51827 4.91406 8.77641 4.91406C9.03031 4.91406 9.24402 5.00293 9.41752 5.18066C9.59525 5.3584 9.68412 5.57422 9.68412 5.82812C9.68412 6.08626 9.59525 6.3042 9.41752 6.48193C9.24402 6.65544 9.03031 6.74219 8.77641 6.74219Z" fill="black" fill-opacity="0.9"/>
</svg>
