<svg width="20" height="20" viewBox="0 0 20 20" fill="none" xmlns="http://www.w3.org/2000/svg">
<path fill-rule="evenodd" clip-rule="evenodd" d="M11.6089 5.65994C11.3819 5.46194 10.7919 5.29494 10.0069 5.78894C7.49893 7.36895 5.31393 10.2189 4.57493 11.2519C4.51761 11.3321 4.44507 11.4001 4.36146 11.4522C4.27784 11.5042 4.18479 11.5393 4.08761 11.5554C3.99044 11.5715 3.89104 11.5684 3.7951 11.5461C3.69915 11.5238 3.60854 11.4828 3.52843 11.4254C3.44833 11.3681 3.38029 11.2956 3.32822 11.212C3.27615 11.1284 3.24106 11.0353 3.22494 10.9381C3.20883 10.841 3.21202 10.7416 3.23432 10.6456C3.25663 10.5497 3.29761 10.4591 3.35493 10.3789C4.10493 9.33195 6.43293 6.26694 9.20793 4.51894C10.4089 3.76294 11.7489 3.79494 12.5929 4.52694C13.0139 4.89194 13.2779 5.41694 13.2809 6.01294C13.2849 6.60394 13.0349 7.18994 12.5789 7.71094C11.1519 9.34295 9.26693 11.5559 8.47493 12.6359C8.37093 12.7779 8.36393 12.8859 8.37293 12.9479C8.38293 13.0179 8.41993 13.0829 8.48293 13.1309C8.52592 13.1612 8.57446 13.1827 8.62576 13.1942C8.67707 13.2057 8.73014 13.207 8.78193 13.1979C8.92193 13.1809 9.14193 13.1039 9.40993 12.8589C9.63593 12.6509 9.87093 12.4289 10.1129 12.2019C10.8579 11.5009 11.6629 10.7419 12.4689 10.1489C13.3069 9.53295 14.2869 9.36195 15.0299 9.81595C15.4009 10.0429 15.6619 10.4059 15.7519 10.8399C15.8419 11.2699 15.7569 11.7179 15.5399 12.1299C15.3069 12.5719 15.1059 12.8899 14.9249 13.1759L14.9109 13.1989C14.7375 13.4648 14.5757 13.7381 14.4259 14.0179C14.3924 14.0814 14.3729 14.1512 14.3688 14.2228C14.3646 14.2944 14.3759 14.3661 14.4019 14.4329C14.4259 14.4929 14.4489 14.5219 14.4619 14.5339C14.5539 14.5409 14.6339 14.5179 14.7609 14.4199C14.9389 14.2809 15.1379 14.0459 15.4369 13.6539C15.5577 13.4959 15.7364 13.3923 15.9336 13.3659C16.1308 13.3396 16.3304 13.3926 16.4884 13.5134C16.6465 13.6343 16.7501 13.8129 16.7765 14.0101C16.8028 14.2073 16.7497 14.4069 16.6289 14.5649C16.3439 14.9379 16.0349 15.3289 15.6809 15.6049C15.2889 15.9089 14.8139 16.0929 14.2369 16.0179C13.6039 15.9359 13.1889 15.4479 13.0059 14.9809C12.9013 14.7143 12.8552 14.4282 12.8707 14.1422C12.8863 13.8561 12.9631 13.5767 13.0959 13.3229C13.2859 12.9589 13.4659 12.6759 13.6369 12.4069L13.6589 12.3729C13.8349 12.0939 14.0089 11.8169 14.2129 11.4309C14.2979 11.2689 14.2899 11.1759 14.2839 11.1469C14.2823 11.1362 14.2782 11.1261 14.2719 11.1172C14.2657 11.1084 14.2575 11.1011 14.2479 11.0959C14.2049 11.0689 13.9009 10.9579 13.3579 11.3579C12.6319 11.8909 11.9249 12.5579 11.1979 13.2419C10.9433 13.4833 10.6849 13.7243 10.4229 13.9649C9.49993 14.8109 8.37593 14.9239 7.58493 14.3319C6.81493 13.7559 6.60393 12.6519 7.26493 11.7499C8.10193 10.6079 10.0319 8.34494 11.4499 6.72394C11.7209 6.41394 11.7819 6.16894 11.7809 6.02194C11.7808 5.95274 11.7655 5.8844 11.7359 5.82183C11.7063 5.75925 11.6633 5.70397 11.6099 5.65994M14.4729 14.5429L14.4699 14.5409C14.4719 14.5409 14.4729 14.5416 14.4729 14.5429Z" fill="black"/>
</svg>
