<svg width="12" height="12" viewBox="0 0 12 12" fill="none" xmlns="http://www.w3.org/2000/svg">
<path d="M10.1999 5.84375V5.9082L11.5068 4.54687C11.9174 4.11914 11.9174 3.42773 11.5068 3L10.0424 1.47656C9.63178 1.04883 8.96803 1.04883 8.5574 1.47656L7.80553 2.25977C7.7549 2.25391 7.7024 2.25 7.6499 2.25H5.5499C4.85428 2.25 4.2824 2.79687 4.2074 3.5H4.1999V5.84375C4.1999 6.27539 4.53553 6.625 4.9499 6.625C5.36428 6.625 5.6999 6.27539 5.6999 5.84375V4.125H8.6999C9.52865 4.125 10.1999 4.82422 10.1999 5.6875V5.84375ZM6.2999 4.75V5.84375C6.2999 6.62109 5.69615 7.25 4.9499 7.25C4.20365 7.25 3.5999 6.62109 3.5999 5.84375V3.52734C2.92678 3.64844 2.36615 4.1582 2.1749 4.85937L1.86553 5.98437L0.493027 7.41406C0.0824023 7.8418 0.0824023 8.5332 0.493027 8.96094L1.9574 10.4863C2.36803 10.9141 3.03178 10.9141 3.4424 10.4863L4.14928 9.75C4.16615 9.75 4.18303 9.75195 4.1999 9.75195H7.1999C7.69678 9.75195 8.0999 9.33203 8.0999 8.81445C8.0999 8.70508 8.08115 8.59961 8.04928 8.50195H8.0999C8.59678 8.50195 8.9999 8.08203 8.9999 7.56445C8.9999 7.31445 8.90615 7.08789 8.7524 6.91992C9.23428 6.82227 9.59803 6.38086 9.5999 5.84961V5.8418C9.59803 5.24023 9.12928 4.75195 8.5499 4.75195H6.2999V4.75Z" fill="black"/>
</svg>
