<svg width="12" height="12" viewBox="0 0 12 12" fill="none" xmlns="http://www.w3.org/2000/svg">
<path d="M6 8.625C6.14875 8.625 6.27352 8.5746 6.37432 8.4738C6.47512 8.373 6.52535 8.2484 6.525 8.1V6C6.525 5.85125 6.4746 5.72665 6.3738 5.6262C6.273 5.52575 6.1484 5.47535 6 5.475C5.8516 5.47465 5.727 5.52505 5.6262 5.6262C5.5254 5.72735 5.475 5.85195 5.475 6V8.1C5.475 8.24875 5.5254 8.37352 5.6262 8.47432C5.727 8.57512 5.8516 8.62535 6 8.625ZM6 4.425C6.14875 4.425 6.27352 4.3746 6.37432 4.2738C6.47512 4.173 6.52535 4.0484 6.525 3.9C6.52465 3.7516 6.47425 3.627 6.3738 3.5262C6.27335 3.4254 6.14875 3.375 6 3.375C5.85125 3.375 5.72665 3.4254 5.6262 3.5262C5.52575 3.627 5.47535 3.7516 5.475 3.9C5.47465 4.0484 5.52505 4.17317 5.6262 4.27432C5.72735 4.37547 5.85195 4.4257 6 4.425ZM6 11.25C5.27375 11.25 4.59125 11.1121 3.9525 10.8363C3.31375 10.5605 2.75812 10.1865 2.28562 9.71437C1.81313 9.24222 1.43915 8.6866 1.1637 8.0475C0.888251 7.4084 0.750351 6.7259 0.750001 6C0.749651 5.2741 0.887551 4.5916 1.1637 3.9525C1.43985 3.3134 1.81383 2.75777 2.28562 2.28562C2.75742 1.81347 3.31305 1.4395 3.9525 1.1637C4.59195 0.8879 5.27445 0.75 6 0.75C6.72555 0.75 7.40805 0.8879 8.0475 1.1637C8.68695 1.4395 9.24257 1.81347 9.71437 2.28562C10.1862 2.75777 10.5603 3.3134 10.8368 3.9525C11.1133 4.5916 11.251 5.2741 11.25 6C11.2489 6.7259 11.111 7.4084 10.8363 8.0475C10.5615 8.6866 10.1876 9.24222 9.71437 9.71437C9.24117 10.1865 8.68555 10.5607 8.0475 10.8368C7.40945 11.113 6.72695 11.2507 6 11.25Z" fill="black" fill-opacity="0.4"/>
</svg>
