<svg width="20" height="20" viewBox="0 0 20 20" fill="none" xmlns="http://www.w3.org/2000/svg">
<path d="M10.8224 2.00098C11.4062 1.99874 11.9899 2.00461 12.5735 2.01858L12.7287 2.02418C12.9079 2.03058 13.0847 2.03858 13.2983 2.04818C14.1494 2.08818 14.7302 2.22258 15.2398 2.42017C15.7678 2.62336 16.2125 2.89855 16.6573 3.34334C17.064 3.74301 17.3787 4.22647 17.5797 4.76009C17.7773 5.26967 17.9116 5.85125 17.9516 6.70242C17.9612 6.91522 17.9692 7.09281 17.9756 7.272L17.9804 7.4272C17.9947 8.01053 18.0008 8.59404 17.9988 9.17754L17.9996 9.77432V10.8223C18.0016 11.4061 17.9955 11.9898 17.9812 12.5734L17.9764 12.7286C17.97 12.9078 17.962 13.0846 17.9524 13.2982C17.9124 14.1494 17.7765 14.7302 17.5797 15.2397C17.3794 15.7739 17.0646 16.2578 16.6573 16.6573C16.2573 17.0639 15.7736 17.3787 15.2398 17.5797C14.7302 17.7772 14.1494 17.9116 13.2983 17.9516C13.0847 17.9612 12.9079 17.9692 12.7287 17.9756L12.5735 17.9804C11.9899 17.9947 11.4062 18.0008 10.8224 17.9988L10.2256 17.9996H9.17849C8.59473 18.0016 8.01097 17.9955 7.42738 17.9812L7.27219 17.9764C7.08229 17.9696 6.89243 17.9616 6.70262 17.9524C5.85146 17.9124 5.27069 17.7764 4.76032 17.5797C4.22649 17.3791 3.74296 17.0643 3.34359 16.6573C2.93645 16.2575 2.62141 15.7738 2.42044 15.2397C2.22285 14.7302 2.08846 14.1494 2.04846 13.2982C2.03955 13.1084 2.03155 12.9185 2.02446 12.7286L2.02046 12.5734C2.00571 11.9898 1.99905 11.4061 2.00046 10.8223V9.17754C1.99823 8.59404 2.0041 8.01054 2.01806 7.4272L2.02366 7.272C2.03006 7.09281 2.03806 6.91522 2.04766 6.70242C2.08766 5.85045 2.22205 5.27047 2.41964 4.76009C2.62073 4.2262 2.93638 3.74288 3.34439 3.34414C3.74349 2.93675 4.22672 2.62142 4.76032 2.42017C5.27069 2.22258 5.85066 2.08818 6.70262 2.04818L7.27219 2.02418L7.42738 2.02018C8.0107 2.00544 8.59419 1.99878 9.17769 2.00018L10.8224 2.00098ZM10.0001 6.00085C9.47008 5.99335 8.94391 6.09126 8.45211 6.28889C7.96031 6.48652 7.5127 6.77992 7.13527 7.15205C6.75785 7.52418 6.45815 7.96761 6.25359 8.45657C6.04903 8.94554 5.94369 9.47028 5.94369 10.0003C5.94369 10.5303 6.04903 11.0551 6.25359 11.5441C6.45815 12.033 6.75785 12.4764 7.13527 12.8486C7.5127 13.2207 7.96031 13.5141 8.45211 13.7117C8.94391 13.9094 9.47008 14.0073 10.0001 13.9998C11.0609 13.9998 12.0782 13.5784 12.8283 12.8282C13.5784 12.0781 13.9998 11.0607 13.9998 9.99991C13.9998 8.93908 13.5784 7.9217 12.8283 7.17158C12.0782 6.42146 11.0609 6.00085 10.0001 6.00085ZM10.0001 7.60079C10.3188 7.59492 10.6356 7.65263 10.9318 7.77055C11.2281 7.88848 11.4978 8.06425 11.7254 8.28761C11.9529 8.51096 12.1337 8.77742 12.2571 9.07142C12.3805 9.36541 12.4441 9.68106 12.4441 9.9999C12.4442 10.3188 12.3807 10.6344 12.2574 10.9285C12.1341 11.2225 11.9534 11.489 11.726 11.7124C11.4985 11.9359 11.2288 12.1117 10.9326 12.2298C10.6364 12.3478 10.3196 12.4056 10.0009 12.3998C9.36436 12.3998 8.75395 12.147 8.30388 11.6969C7.85382 11.2468 7.60097 10.6364 7.60097 9.99991C7.60097 9.36341 7.85382 8.75299 8.30388 8.30291C8.75395 7.85284 9.36436 7.59999 10.0009 7.59999L10.0001 7.60079ZM14.1998 4.80089C13.9418 4.81122 13.6977 4.92101 13.5188 5.10726C13.3398 5.29351 13.2399 5.54177 13.2399 5.80005C13.2399 6.05834 13.3398 6.3066 13.5188 6.49285C13.6977 6.6791 13.9418 6.78889 14.1998 6.79922C14.465 6.79922 14.7194 6.69387 14.9069 6.50634C15.0944 6.31881 15.1998 6.06446 15.1998 5.79925C15.1998 5.53405 15.0944 5.2797 14.9069 5.09217C14.7194 4.90464 14.465 4.79929 14.1998 4.79929V4.80089Z" fill="black" fill-opacity="0.25"/>
</svg>
