<svg width="12" height="12" viewBox="0 0 12 12" fill="none" xmlns="http://www.w3.org/2000/svg">
<path d="M5.9751 10C5.10704 10 4.36919 9.68889 3.76156 9.06667C3.15392 8.44444 2.8501 7.68889 2.8501 6.8H3.89176C3.89176 7.38667 4.09576 7.88889 4.50374 8.30667C4.91173 8.72445 5.40218 8.93333 5.9751 8.93333C6.54801 8.93333 7.03847 8.72445 7.44645 8.30667C7.85444 7.88889 8.05843 7.38667 8.05843 6.8H9.1001C9.1001 7.68889 8.79628 8.44444 8.18864 9.06667C7.581 9.68889 6.84315 10 5.9751 10ZM5.9751 7.32L3.89176 5.18667L4.62093 4.42667L5.45426 5.28V2H6.49593V5.28L7.32926 4.42667L8.05843 5.18667L5.9751 7.32Z" fill="black"/>
</svg>
