<svg width="12" height="12" viewBox="0 0 12 12" fill="none" xmlns="http://www.w3.org/2000/svg">
<path d="M6.69468 1.71393L9.87718 3.83543C9.94566 3.88109 10.0018 3.94295 10.0406 4.01552C10.0795 4.08809 10.0998 4.16912 10.0998 4.25143C10.0998 4.33373 10.0795 4.41477 10.0406 4.48734C10.0018 4.5599 9.94566 4.62177 9.87718 4.66743L6.69468 6.78943C6.48932 6.92637 6.24801 6.99945 6.00118 6.99945C5.75435 6.99945 5.51304 6.92637 5.30768 6.78943L2.12518 4.66743C2.0567 4.62177 2.00055 4.5599 1.96172 4.48734C1.92289 4.41477 1.90257 4.33373 1.90257 4.25143C1.90257 4.16912 1.92289 4.08809 1.96172 4.01552C2.00055 3.94295 2.0567 3.88109 2.12518 3.83543L5.30768 1.71393C5.51304 1.57698 5.75435 1.50391 6.00118 1.50391C6.24801 1.50391 6.48932 1.57698 6.69468 1.71393ZM10.0142 6.09743C9.94001 6.21619 9.84172 6.31806 9.72568 6.39643L6.70068 8.43843C6.49407 8.57793 6.25047 8.65247 6.00118 8.65247C5.75189 8.65247 5.50829 8.57793 5.30168 8.43843L2.27668 6.39643C2.09563 6.27429 1.95955 6.09624 1.88922 5.88948C1.81888 5.68273 1.81817 5.45863 1.88718 5.25143L5.30768 7.53143C5.49971 7.65939 5.72341 7.73171 5.95401 7.74036C6.18461 7.749 6.41311 7.69365 6.61418 7.58043L6.69418 7.53143L10.1147 5.25143C10.1613 5.39114 10.1764 5.53942 10.159 5.68566C10.1417 5.83191 10.0922 5.97251 10.0142 6.09743ZM10.0142 7.72243C9.94001 7.84119 9.84172 7.94306 9.72568 8.02143L6.70068 10.0634C6.49407 10.2029 6.25047 10.2775 6.00118 10.2775C5.75189 10.2775 5.50829 10.2029 5.30168 10.0634L2.27668 8.02143C2.09563 7.89929 1.95955 7.72124 1.88922 7.51448C1.81888 7.30773 1.81817 7.08363 1.88718 6.87643L5.30768 9.15643C5.49971 9.28439 5.72341 9.35671 5.95401 9.36536C6.18461 9.37401 6.41311 9.31865 6.61418 9.20543L6.69418 9.15643L10.1147 6.87643C10.1613 7.01614 10.1764 7.16442 10.159 7.31066C10.1417 7.45691 10.0922 7.59751 10.0142 7.72243Z" fill="black"/>
</svg>
