<svg width="20" height="20" viewBox="0 0 20 20" fill="none" xmlns="http://www.w3.org/2000/svg">
<path d="M14.0013 5.9987H12.668C12.668 4.52536 11.4746 3.33203 10.0013 3.33203C8.52797 3.33203 7.33464 4.52536 7.33464 5.9987H6.0013C5.26797 5.9987 4.66797 6.5987 4.66797 7.33203V15.332C4.66797 16.0654 5.26797 16.6654 6.0013 16.6654H14.0013C14.7346 16.6654 15.3346 16.0654 15.3346 15.332V7.33203C15.3346 6.5987 14.7346 5.9987 14.0013 5.9987ZM8.66797 8.66536C8.66797 9.03203 8.36797 9.33203 8.0013 9.33203C7.63464 9.33203 7.33464 9.03203 7.33464 8.66536V7.33203H8.66797V8.66536ZM10.0013 4.66536C10.7346 4.66536 11.3346 5.26536 11.3346 5.9987H8.66797C8.66797 5.26536 9.26797 4.66536 10.0013 4.66536ZM12.668 8.66536C12.668 9.03203 12.368 9.33203 12.0013 9.33203C11.6346 9.33203 11.3346 9.03203 11.3346 8.66536V7.33203H12.668V8.66536Z" fill="black"/>
</svg>
