<svg width="12" height="12" viewBox="0 0 12 12" fill="none" xmlns="http://www.w3.org/2000/svg">
<path d="M6 7.125C6.62132 7.125 7.125 6.62132 7.125 6C7.125 5.37868 6.62132 4.875 6 4.875C5.37868 4.875 4.875 5.37868 4.875 6C4.875 6.62132 5.37868 7.125 6 7.125Z" stroke="black" stroke-linecap="round" stroke-linejoin="round"/>
<path d="M4.5 3.75C5.12132 3.75 5.625 3.24632 5.625 2.625C5.625 2.00368 5.12132 1.5 4.5 1.5C3.87868 1.5 3.375 2.00368 3.375 2.625C3.375 3.24632 3.87868 3.75 4.5 3.75Z" stroke="black" stroke-linecap="round" stroke-linejoin="round"/>
<path d="M9.375 6C9.99632 6 10.5 5.49632 10.5 4.875C10.5 4.25368 9.99632 3.75 9.375 3.75C8.75368 3.75 8.25 4.25368 8.25 4.875C8.25 5.49632 8.75368 6 9.375 6Z" stroke="black" stroke-linecap="round" stroke-linejoin="round"/>
<path d="M9.375 9.75C9.99632 9.75 10.5 9.24632 10.5 8.625C10.5 8.00368 9.99632 7.5 9.375 7.5C8.75368 7.5 8.25 8.00368 8.25 8.625C8.25 9.24632 8.75368 9.75 9.375 9.75Z" stroke="black" stroke-linecap="round" stroke-linejoin="round"/>
<path d="M2.625 10.125C3.24632 10.125 3.75 9.62132 3.75 9C3.75 8.37868 3.24632 7.875 2.625 7.875C2.00368 7.875 1.5 8.37868 1.5 9C1.5 9.62132 2.00368 10.125 2.625 10.125Z" stroke="black" stroke-linecap="round" stroke-linejoin="round"/>
<path d="M5.54375 4.97422L4.95312 3.65234" stroke="black" stroke-linecap="round" stroke-linejoin="round"/>
<path d="M8.30781 5.23047L7.07031 5.64297" stroke="black" stroke-linecap="round" stroke-linejoin="round"/>
<path d="M8.48984 7.93438L6.88672 6.6875" stroke="black" stroke-linecap="round" stroke-linejoin="round"/>
<path d="M5.16172 6.74609L3.46484 8.25547" stroke="black" stroke-linecap="round" stroke-linejoin="round"/>
</svg>
