<svg width="20" height="20" viewBox="0 0 20 20" fill="none" xmlns="http://www.w3.org/2000/svg">
<path d="M6.875 9.1146C8.60212 9.1146 10 7.72837 10 6.01565C10 4.30292 8.60212 2.91669 6.875 2.91669C5.14788 2.91669 3.75 4.30292 3.75 6.01565C3.75 7.72837 5.14788 9.1146 6.875 9.1146ZM6.875 4.68752C7.6144 4.68752 8.21429 5.28241 8.21429 6.01565C8.21429 6.74888 7.6144 7.34377 6.875 7.34377C6.1356 7.34377 5.53571 6.74888 5.53571 6.01565C5.53571 5.28241 6.1356 4.68752 6.875 4.68752ZM13.125 10.8854C11.3979 10.8854 10 12.2717 10 13.9844C10 15.6971 11.3979 17.0834 13.125 17.0834C14.8521 17.0834 16.25 15.6971 16.25 13.9844C16.25 12.2717 14.8521 10.8854 13.125 10.8854ZM13.125 15.3125C12.3856 15.3125 11.7857 14.7176 11.7857 13.9844C11.7857 13.2512 12.3856 12.6563 13.125 12.6563C13.8644 12.6563 14.4643 13.2512 14.4643 13.9844C14.4643 14.7176 13.8644 15.3125 13.125 15.3125ZM14.6959 2.92222L15.5776 2.91945C16.1189 2.91669 16.4397 3.52264 16.1272 3.96535L5.9096 16.7956C5.84799 16.8827 5.76613 16.9539 5.67094 17.003C5.57575 17.0521 5.47003 17.0778 5.36272 17.0778L4.4308 17.0806C3.88672 17.0806 3.56864 16.4746 3.88114 16.0347L14.149 3.20445C14.2746 3.02736 14.4782 2.92222 14.6959 2.92222Z" fill="black"/>
</svg>
