<svg width="12" height="12" viewBox="0 0 12 12" fill="none" xmlns="http://www.w3.org/2000/svg">
<path d="M4.125 5.46875C5.16127 5.46875 6 4.63701 6 3.60938C6 2.58174 5.16127 1.75 4.125 1.75C3.08873 1.75 2.25 2.58174 2.25 3.60938C2.25 4.63701 3.08873 5.46875 4.125 5.46875ZM4.125 2.8125C4.56864 2.8125 4.92857 3.16943 4.92857 3.60938C4.92857 4.04932 4.56864 4.40625 4.125 4.40625C3.68136 4.40625 3.32143 4.04932 3.32143 3.60938C3.32143 3.16943 3.68136 2.8125 4.125 2.8125ZM7.875 6.53125C6.83873 6.53125 6 7.36299 6 8.39062C6 9.41826 6.83873 10.25 7.875 10.25C8.91127 10.25 9.75 9.41826 9.75 8.39062C9.75 7.36299 8.91127 6.53125 7.875 6.53125ZM7.875 9.1875C7.43136 9.1875 7.07143 8.83057 7.07143 8.39062C7.07143 7.95068 7.43136 7.59375 7.875 7.59375C8.31864 7.59375 8.67857 7.95068 8.67857 8.39062C8.67857 8.83057 8.31864 9.1875 7.875 9.1875ZM8.81752 1.75332L9.34654 1.75166C9.67132 1.75 9.86384 2.11357 9.67634 2.3792L3.54576 10.0773C3.50879 10.1296 3.45968 10.1723 3.40256 10.2018C3.34545 10.2313 3.28202 10.2467 3.21763 10.2467L2.65848 10.2483C2.33203 10.2483 2.14118 9.88477 2.32868 9.6208L8.4894 1.92266C8.56473 1.81641 8.68694 1.75332 8.81752 1.75332Z" fill="black"/>
</svg>
