<svg width="16" height="16" viewBox="0 0 16 16" fill="none" xmlns="http://www.w3.org/2000/svg">
<path d="M5.5 7.29165C6.8817 7.29165 8 6.18266 8 4.81248C8 3.4423 6.8817 2.33331 5.5 2.33331C4.1183 2.33331 3 3.4423 3 4.81248C3 6.18266 4.1183 7.29165 5.5 7.29165ZM5.5 3.74998C6.09152 3.74998 6.57143 4.22589 6.57143 4.81248C6.57143 5.39907 6.09152 5.87498 5.5 5.87498C4.90848 5.87498 4.42857 5.39907 4.42857 4.81248C4.42857 4.22589 4.90848 3.74998 5.5 3.74998ZM10.5 8.70831C9.1183 8.70831 8 9.8173 8 11.1875C8 12.5577 9.1183 13.6666 10.5 13.6666C11.8817 13.6666 13 12.5577 13 11.1875C13 9.8173 11.8817 8.70831 10.5 8.70831ZM10.5 12.25C9.90848 12.25 9.42857 11.7741 9.42857 11.1875C9.42857 10.6009 9.90848 10.125 10.5 10.125C11.0915 10.125 11.5714 10.6009 11.5714 11.1875C11.5714 11.7741 11.0915 12.25 10.5 12.25ZM11.7567 2.33774L12.4621 2.33553C12.8951 2.33331 13.1518 2.81808 12.9018 3.17225L4.72768 13.4364C4.67839 13.5061 4.6129 13.563 4.53675 13.6023C4.4606 13.6416 4.37603 13.6622 4.29018 13.6622L3.54464 13.6644C3.10937 13.6644 2.85491 13.1797 3.10491 12.8277L11.3192 2.56352C11.4196 2.42185 11.5826 2.33774 11.7567 2.33774Z" fill="black"/>
</svg>
