<svg width="20" height="20" viewBox="0 0 20 20" fill="none" xmlns="http://www.w3.org/2000/svg">
<path d="M2 10.0008C2.0416 7.73017 2.8432 5.83398 4.4064 4.31383C5.9696 2.79368 7.8336 2.0208 10 2C12.3328 2.0416 14.2448 2.83848 15.7344 4.39064C17.224 5.94279 17.9792 7.81338 18 10.0008C17.9584 12.2506 17.1568 14.142 15.5936 15.6734C14.0304 17.2031 12.1664 17.9792 10 18C9.2496 18 8.5008 17.8848 7.7504 17.656C7.896 17.4271 8.0416 17.1663 8.1872 16.8751C8.3536 16.5215 8.5616 15.8542 8.8128 14.8749C8.8752 14.6045 8.9696 14.2396 9.0944 13.7804C9.24 14.03 9.4896 14.2588 9.8448 14.4684C10.7824 14.9053 11.7712 14.8637 12.8128 14.3436C13.896 13.718 14.6464 12.7499 15.0624 11.4377C15.4368 10.0632 15.3904 8.78628 14.9216 7.61016C14.4528 6.43244 13.6144 5.58436 12.4064 5.06271C10.8864 4.62586 9.4064 4.67227 7.9696 5.20352C6.5328 5.73477 5.5328 6.64686 4.9696 7.93819C4.824 8.41664 4.736 8.89189 4.704 9.36074C4.672 9.82958 4.688 10.2872 4.7504 10.7353C4.8128 11.1833 4.9696 11.585 5.2192 11.9386C5.4688 12.2922 5.8032 12.5643 6.2192 12.7515C6.3232 12.7931 6.4064 12.7931 6.4688 12.7515C6.552 12.7099 6.6352 12.5435 6.7184 12.2522C6.8016 11.961 6.8336 11.7626 6.8128 11.6586C6.792 11.617 6.7504 11.5434 6.688 11.4393C6.2512 10.7305 6.104 9.9864 6.2512 9.20552C6.3968 8.42464 6.72 7.76218 7.2192 7.22132C7.9904 6.53325 8.8912 6.15882 9.9216 6.09641C10.952 6.034 11.8336 6.31563 12.5616 6.93969C12.9568 7.39734 13.2128 7.94939 13.3264 8.59586C13.44 9.24232 13.4416 9.86159 13.3264 10.4552C13.2112 11.0489 13.008 11.6058 12.7168 12.1274C12.1952 12.9403 11.5808 13.3563 10.8736 13.3771C10.4576 13.3563 10.1184 13.1947 9.8576 12.8923C9.5968 12.5899 9.5184 12.241 9.624 11.8458C9.6656 11.617 9.7904 11.1689 9.9984 10.5016C10.2064 9.83438 10.3216 9.33513 10.3424 9.0023C10.28 8.21022 9.9152 7.80378 9.248 7.78298C8.7264 7.84538 8.3424 8.08061 8.0912 8.48545C7.84 8.89029 7.7056 9.35594 7.6848 9.87599C7.7472 10.4808 7.8416 10.8969 7.9664 11.1257C7.7376 12.0634 7.56 12.8139 7.4352 13.3755C7.3936 13.5212 7.2784 13.9692 7.0912 14.7197C6.904 15.4701 6.8 16.043 6.7792 16.4382V17.3135C5.3008 16.6255 4.1328 15.6318 3.28 14.3292C2.4272 13.0267 2 11.5834 2 10.0008Z" fill="black" fill-opacity="0.25"/>
</svg>
