<svg width="12" height="12" viewBox="0 0 12 12" fill="none" xmlns="http://www.w3.org/2000/svg">
<path d="M1.625 1.9C1.625 1.66131 1.72377 1.43239 1.89959 1.2636C2.0754 1.09482 2.31386 1 2.5625 1H9.4375C9.68614 1 9.9246 1.09482 10.1004 1.2636C10.2762 1.43239 10.375 1.66131 10.375 1.9V6.1C10.375 6.3387 10.2762 6.56761 10.1004 6.7364C9.9246 6.90518 9.68614 7 9.4375 7H6V4C6 3.68174 5.8683 3.37652 5.63388 3.15147C5.39946 2.92643 5.08152 2.8 4.75 2.8H1.625V1.9ZM6 8.2H10.6875C10.7704 8.2 10.8499 8.16839 10.9085 8.11213C10.9671 8.05587 11 7.97957 11 7.9C11 7.82044 10.9671 7.74413 10.9085 7.68787C10.8499 7.63161 10.7704 7.6 10.6875 7.6H6V8.2ZM1 4.3C1 4.06131 1.09877 3.83239 1.27459 3.6636C1.4504 3.49482 1.68886 3.4 1.9375 3.4H4.4375C4.68614 3.4 4.9246 3.49482 5.10041 3.6636C5.27623 3.83239 5.375 4.06131 5.375 4.3V9.1C5.375 9.3387 5.27623 9.56761 5.10041 9.7364C4.9246 9.90518 4.68614 10 4.4375 10H1.9375C1.68886 10 1.4504 9.90518 1.27459 9.7364C1.09877 9.56761 1 9.3387 1 9.1V4.3ZM2.875 8.2C2.79212 8.2 2.71263 8.23161 2.65403 8.28787C2.59542 8.34413 2.5625 8.42044 2.5625 8.5C2.5625 8.57957 2.59542 8.65587 2.65403 8.71213C2.71263 8.76839 2.79212 8.8 2.875 8.8H3.5C3.58288 8.8 3.66237 8.76839 3.72097 8.71213C3.77958 8.65587 3.8125 8.57957 3.8125 8.5C3.8125 8.42044 3.77958 8.34413 3.72097 8.28787C3.66237 8.23161 3.58288 8.2 3.5 8.2H2.875Z" fill="black"/>
</svg>
