<svg width="12" height="12" viewBox="0 0 12 12" fill="none" xmlns="http://www.w3.org/2000/svg">
<path d="M6 4.7C5.63834 4.7 5.29149 4.83696 5.03576 5.08076C4.78003 5.32456 4.63636 5.65522 4.63636 6C4.63636 6.34478 4.78003 6.67544 5.03576 6.91924C5.29149 7.16304 5.63834 7.3 6 7.3C6.36166 7.3 6.70851 7.16304 6.96424 6.91924C7.21997 6.67544 7.36364 6.34478 7.36364 6C7.36364 5.65522 7.21997 5.32456 6.96424 5.08076C6.70851 4.83696 6.36166 4.7 6 4.7ZM6 8.16667C5.39724 8.16667 4.81916 7.93839 4.39294 7.53206C3.96672 7.12574 3.72727 6.57464 3.72727 6C3.72727 5.42536 3.96672 4.87426 4.39294 4.46794C4.81916 4.06161 5.39724 3.83333 6 3.83333C6.60276 3.83333 7.18084 4.06161 7.60706 4.46794C8.03328 4.87426 8.27273 5.42536 8.27273 6C8.27273 6.57464 8.03328 7.12574 7.60706 7.53206C7.18084 7.93839 6.60276 8.16667 6 8.16667ZM6 2.75C3.72727 2.75 1.78636 4.09767 1 6C1.78636 7.90233 3.72727 9.25 6 9.25C8.27273 9.25 10.2136 7.90233 11 6C10.2136 4.09767 8.27273 2.75 6 2.75Z" fill="black"/>
</svg>
