<svg width="12" height="12" viewBox="0 0 12 12" fill="none" xmlns="http://www.w3.org/2000/svg">
<path d="M6.61719 1.9502C7.3519 1.95022 7.96145 2.22383 8.38672 2.68457C8.81156 3.14491 9.0498 3.78886 9.0498 4.52539C9.04975 5.25965 8.80553 5.89956 8.37305 6.35645C7.94033 6.81353 7.32219 7.08393 6.58008 7.08398H5.24414V8.0791H7.34863V8.81836H5.24414V10.0498H3.98438V8.81836H2.9502V8.0791H3.98438V7.08398H2.9502V6.33984H3.98438V1.9502H6.61719ZM5.24609 5.96582H6.29297C6.79263 5.96574 7.16054 5.82486 7.40332 5.5791C7.64621 5.33316 7.77044 4.97564 7.77051 4.53027C7.77051 4.08776 7.64633 3.73309 7.4043 3.48926C7.16229 3.24556 6.79582 3.10555 6.29883 3.10547H5.24609V5.96582Z" fill="black" stroke="black" stroke-width="0.1"/>
</svg>
