<svg width="20" height="20" viewBox="0 0 20 20" fill="none" xmlns="http://www.w3.org/2000/svg">
<path d="M8.33317 2.29169C11.6699 2.29169 14.3748 4.99663 14.3748 8.33335C14.3748 9.77658 13.8688 11.1016 13.0245 12.1407L17.1084 16.2247C17.3525 16.4688 17.3525 16.8646 17.1084 17.1086C16.8866 17.3305 16.5393 17.3507 16.2947 17.1691L16.2246 17.1086L12.1405 13.0246C11.1014 13.869 9.7764 14.375 8.33317 14.375C4.99645 14.375 2.2915 11.6701 2.2915 8.33335C2.2915 4.99663 4.99645 2.29169 8.33317 2.29169ZM8.33317 3.54169C5.68681 3.54169 3.5415 5.68699 3.5415 8.33335C3.5415 10.9797 5.68681 13.125 8.33317 13.125C10.9795 13.125 13.1248 10.9797 13.1248 8.33335C13.1248 5.68699 10.9795 3.54169 8.33317 3.54169Z" fill="black" fill-opacity="0.4"/>
<path d="M8.3335 2.19208C11.7253 2.19225 14.4751 4.94184 14.4751 8.33368C14.475 9.7681 13.982 11.0872 13.1577 12.1325L17.1792 16.154C17.4623 16.4371 17.4623 16.8963 17.1792 17.1794C16.9217 17.4368 16.5188 17.4603 16.2349 17.2497L16.229 17.2448L16.1597 17.1843L16.1538 17.1794L12.1323 13.1579C11.087 13.9822 9.76791 14.4752 8.3335 14.4753C4.94166 14.4753 2.19207 11.7255 2.19189 8.33368C2.19189 4.94173 4.94155 2.19208 8.3335 2.19208ZM8.3335 3.6413C5.74236 3.6413 3.64111 5.74254 3.64111 8.33368C3.64129 10.9247 5.74247 13.0251 8.3335 13.0251C10.9244 13.0249 13.0247 10.9246 13.0249 8.33368C13.0249 5.74265 10.9245 3.64147 8.3335 3.6413Z" stroke="black" stroke-opacity="0.4" stroke-width="0.2"/>
</svg>
