<svg width="12" height="12" viewBox="0 0 12 12" fill="none" xmlns="http://www.w3.org/2000/svg">
<path fill-rule="evenodd" clip-rule="evenodd" d="M10 2.5V5.5498C10 6.8164 9.62306 7.96872 8.86914 9.00635C8.11514 10.044 7.15867 10.7087 6 11C4.84167 10.7083 3.88519 10.0435 3.13086 9.00586C2.3766 7.96823 1.99967 6.81607 2 5.5498V2.5L6 1L10 2.5ZM7.54346 4.39502L5.39844 6.57471L4.45654 5.61719L4.34961 5.50879L4.24268 5.61719L3.89307 5.97266L3.78955 6.07812L3.89307 6.18311L5.39893 7.71387L8.10693 4.96094L8.21045 4.85547L8.10693 4.75049L7.65039 4.28613L7.54346 4.39502Z" fill="black"/>
</svg>
