<svg width="20" height="20" viewBox="0 0 20 20" fill="none" xmlns="http://www.w3.org/2000/svg">
<path d="M7.18569 13.3578C7.32656 13.4573 7.48779 13.5242 7.65771 13.5537C7.82763 13.5832 8.00197 13.5745 8.16812 13.5283C8.33426 13.482 8.48804 13.3994 8.61833 13.2865C8.74861 13.1735 8.85214 13.0329 8.9214 12.875L9.4714 11.2036C9.60517 10.8014 9.83076 10.436 10.1303 10.1362C10.4298 9.83641 10.7951 9.61052 11.1971 9.47642L12.7957 8.95713C13.0229 8.87809 13.2194 8.72936 13.3571 8.53213C13.4635 8.38261 13.5328 8.20993 13.5592 8.02836C13.5857 7.84678 13.5686 7.66151 13.5094 7.48784C13.4501 7.31417 13.3504 7.15708 13.2185 7.02953C13.0866 6.90198 12.9263 6.80764 12.7507 6.75428L11.1685 6.23999C10.7663 6.10656 10.4007 5.88127 10.1006 5.58197C9.8006 5.28268 9.5744 4.91761 9.43997 4.5157L8.92069 2.91785C8.84084 2.69146 8.69257 2.4955 8.4964 2.35713C8.29907 2.22106 8.06503 2.14819 7.82533 2.14819C7.58563 2.14819 7.35159 2.22106 7.15426 2.35713C6.95506 2.498 6.80514 2.69789 6.72569 2.92856L6.19997 4.54642C6.06586 4.93789 5.84447 5.29373 5.55255 5.58701C5.26062 5.8803 4.90582 6.10335 4.51497 6.23928L2.91497 6.75785C2.6873 6.83833 2.49037 6.98777 2.35159 7.18539C2.21281 7.383 2.13908 7.61896 2.14065 7.86043C2.14222 8.10191 2.21902 8.33689 2.36036 8.53268C2.5017 8.72847 2.70056 8.87534 2.92926 8.95285L4.51212 9.46713C5.02529 9.63935 5.47642 9.95882 5.80926 10.3857C5.99926 10.6307 6.14569 10.9057 6.24212 11.2L6.76212 12.7957C6.84212 13.0228 6.99069 13.2193 7.18712 13.3578M14.1471 17.7007C14.2925 17.8034 14.4662 17.8584 14.6443 17.8578C14.8211 17.8584 14.9937 17.8043 15.1385 17.7028C15.2877 17.5976 15.3993 17.4474 15.4571 17.2743L15.7228 16.4578C15.779 16.2883 15.8739 16.1343 16 16.0078C16.1261 15.8813 16.2799 15.786 16.4493 15.7293L17.2821 15.4593C17.4501 15.3996 17.5955 15.2895 17.6984 15.144C17.8014 14.9984 17.8568 14.8247 17.8571 14.6464C17.8571 14.4635 17.7986 14.2854 17.6901 14.1381C17.5817 13.9908 17.4289 13.8821 17.2543 13.8278L16.4371 13.5636C16.2675 13.5073 16.1134 13.4123 15.9869 13.2861C15.8605 13.1598 15.7652 13.0059 15.7085 12.8364L15.4371 12.0057C15.3786 11.8362 15.2683 11.6892 15.1219 11.5857C14.9755 11.4821 14.8002 11.427 14.6209 11.4283C14.4415 11.4296 14.2671 11.4871 14.1221 11.5927C13.9771 11.6983 13.869 11.8468 13.8128 12.0171L13.5457 12.8357C13.4909 13.003 13.3985 13.1555 13.2756 13.2814C13.1526 13.4074 13.0023 13.5034 12.8364 13.5621L12.0035 13.8321C11.8352 13.8916 11.6894 14.0017 11.5862 14.1474C11.483 14.2931 11.4274 14.4672 11.4271 14.6457C11.4273 14.8258 11.4842 15.0012 11.5897 15.1471C11.6952 15.293 11.844 15.402 12.015 15.4586L12.8321 15.7243C13.0024 15.7804 13.157 15.8758 13.2836 16.0027C13.4101 16.1297 13.5051 16.2846 13.5607 16.455L13.8314 17.2857C13.8905 17.4535 14.0003 17.5988 14.1457 17.7014" fill="black" fill-opacity="0.9"/>
</svg>
