<svg width="16" height="16" viewBox="0 0 16 16" fill="none" xmlns="http://www.w3.org/2000/svg">
<path d="M6.72501 2.9119C7.12791 1.73286 8.75701 1.69715 9.2347 2.80477L9.27512 2.91257L9.81883 4.50259C9.94343 4.86724 10.1448 5.20092 10.4093 5.48114C10.6738 5.76135 10.9954 5.98158 11.3523 6.12697L11.4985 6.18154L13.0885 6.72457C14.2675 7.12747 14.3032 8.75656 13.1963 9.23424L13.0885 9.27466L11.4985 9.81837C11.1337 9.94289 10.7999 10.1442 10.5195 10.4087C10.2392 10.6733 10.0189 10.9949 9.8734 11.3518L9.81883 11.4973L9.27579 13.088C8.8729 14.2671 7.24379 14.3028 6.76678 13.1958L6.72501 13.088L6.18198 11.498C6.05746 11.1332 5.85614 10.7994 5.59161 10.5191C5.32708 10.2387 5.00549 10.0184 4.64854 9.87294L4.50302 9.81837L2.91299 9.27534C1.73327 8.87244 1.69756 7.24335 2.80519 6.76634L2.91299 6.72457L4.50302 6.18154C4.86767 6.05694 5.20136 5.85558 5.48157 5.59106C5.76179 5.32653 5.98202 5.00499 6.1274 4.64812L6.18198 4.50259L6.72501 2.9119Z" fill="black"/>
</svg>
