<svg width="12" height="12" viewBox="0 0 12 12" fill="none" xmlns="http://www.w3.org/2000/svg">
<path d="M4.31146 8.01473C4.39598 8.07442 4.49272 8.11456 4.59467 8.13224C4.69662 8.14993 4.80123 8.14471 4.90092 8.11698C5.0006 8.08925 5.09288 8.03969 5.17105 7.9719C5.24922 7.90411 5.31133 7.81978 5.35289 7.72502L5.68289 6.72216C5.76315 6.48088 5.8985 6.26162 6.07823 6.08174C6.25795 5.90187 6.47711 5.76633 6.71832 5.68588L7.67746 5.3743C7.81379 5.32688 7.93167 5.23764 8.01432 5.1193C8.07813 5.02959 8.1197 4.92598 8.13558 4.81704C8.15147 4.70809 8.14122 4.59693 8.10567 4.49273C8.07013 4.38853 8.01031 4.29427 7.93116 4.21774C7.85201 4.14122 7.7558 4.08461 7.65046 4.05259L6.70118 3.74402C6.45983 3.66396 6.24045 3.52879 6.06043 3.34921C5.88041 3.16963 5.74469 2.95059 5.66403 2.70945L5.35246 1.75073C5.30456 1.6149 5.21559 1.49733 5.09789 1.4143C4.97949 1.33266 4.83907 1.28894 4.69525 1.28894C4.55143 1.28894 4.411 1.33266 4.2926 1.4143C4.17308 1.49882 4.08314 1.61876 4.03546 1.75716L3.72003 2.72788C3.63957 2.96276 3.50673 3.17626 3.33158 3.35223C3.15642 3.5282 2.94354 3.66203 2.70903 3.74359L1.74903 4.05473C1.61243 4.10302 1.49427 4.19269 1.411 4.31126C1.32774 4.42983 1.2835 4.5714 1.28444 4.71628C1.28538 4.86117 1.33146 5.00216 1.41627 5.11963C1.50107 5.23711 1.62038 5.32523 1.7576 5.37173L2.70732 5.6803C3.01522 5.78364 3.2859 5.97532 3.4856 6.23145C3.5996 6.37845 3.68746 6.54345 3.74532 6.72002L4.05732 7.67745C4.10532 7.81373 4.19446 7.93159 4.31232 8.01473M8.48832 10.6204C8.57554 10.6821 8.6798 10.715 8.7866 10.7147C8.89269 10.7151 8.99628 10.6826 9.08318 10.6217C9.17265 10.5586 9.23961 10.4685 9.27432 10.3646L9.43375 9.87473C9.46747 9.77303 9.52441 9.68058 9.60006 9.6047C9.67572 9.52883 9.768 9.47161 9.8696 9.43759L10.3693 9.27559C10.4701 9.23979 10.5573 9.17371 10.6191 9.0864C10.6809 8.99909 10.7141 8.89482 10.7143 8.78788C10.7143 8.67813 10.6792 8.57126 10.6141 8.48289C10.5491 8.39452 10.4574 8.32929 10.3526 8.29673L9.86232 8.13816C9.76057 8.1044 9.66809 8.04739 9.59221 7.97166C9.51633 7.89593 9.45914 7.80356 9.42518 7.70188L9.26232 7.20345C9.2272 7.10172 9.16105 7.01357 9.07319 6.95142C8.98533 6.88927 8.88019 6.85625 8.77257 6.85701C8.66495 6.85777 8.56029 6.89226 8.47331 6.95564C8.38633 7.01902 8.32143 7.10809 8.28775 7.2103L8.12746 7.70145C8.09461 7.80182 8.03916 7.89332 7.96538 7.96888C7.8916 8.04445 7.80145 8.10207 7.70189 8.1373L7.20218 8.2993C7.10117 8.33498 7.01369 8.40107 6.95176 8.48847C6.88983 8.57588 6.85649 8.68032 6.85632 8.78745C6.85643 8.89549 6.89056 9.00075 6.95388 9.08829C7.01719 9.17584 7.10646 9.24122 7.20903 9.27516L7.69932 9.43459C7.80146 9.46827 7.89425 9.5255 7.97019 9.60166C8.04613 9.67782 8.10308 9.77078 8.13646 9.87302L8.29889 10.3714C8.33433 10.4721 8.40024 10.5593 8.48746 10.6209" fill="black" fill-opacity="0.9"/>
</svg>
