<svg width="16" height="16" viewBox="0 0 16 16" fill="none" xmlns="http://www.w3.org/2000/svg">
<path d="M5.74845 10.6863C5.86115 10.7659 5.99014 10.8194 6.12607 10.843C6.262 10.8665 6.40148 10.8596 6.53439 10.8226C6.66731 10.7856 6.79034 10.7196 6.89457 10.6292C6.99879 10.5388 7.08161 10.4264 7.13702 10.3L7.57702 8.96286C7.68403 8.64116 7.86451 8.34881 8.10414 8.10897C8.34378 7.86914 8.63598 7.68842 8.9576 7.58115L10.2365 7.16572C10.4182 7.10248 10.5754 6.9835 10.6856 6.82572C10.7707 6.7061 10.8261 6.56796 10.8473 6.4227C10.8685 6.27744 10.8548 6.12922 10.8074 5.99029C10.76 5.85135 10.6803 5.72568 10.5747 5.62364C10.4692 5.5216 10.3409 5.44612 10.2005 5.40343L8.93474 4.992C8.61295 4.88526 8.32044 4.70503 8.08041 4.46559C7.84038 4.22616 7.65942 3.9341 7.55188 3.61258L7.13645 2.33429C7.07258 2.15318 6.95396 1.99641 6.79702 1.88572C6.63916 1.77686 6.45193 1.71857 6.26017 1.71857C6.06841 1.71857 5.88118 1.77686 5.72331 1.88572C5.56395 1.99841 5.44402 2.15832 5.38045 2.34286L4.95988 3.63715C4.85259 3.95032 4.67548 4.235 4.44194 4.46962C4.2084 4.70425 3.92456 4.88269 3.61188 4.99143L2.33188 5.40629C2.14974 5.47067 1.9922 5.59023 1.88118 5.74832C1.77015 5.90641 1.71116 6.09518 1.71242 6.28836C1.71368 6.48154 1.77512 6.66952 1.88819 6.82615C2.00126 6.98279 2.16035 7.10028 2.34331 7.16229L3.60959 7.57372C4.02014 7.71149 4.38104 7.96707 4.64731 8.30858C4.79931 8.50458 4.91645 8.72458 4.99359 8.96L5.40959 10.2366C5.47359 10.4183 5.59245 10.5754 5.7496 10.6863M11.3176 14.1606C11.4339 14.2428 11.5729 14.2867 11.7153 14.2863C11.8568 14.2867 11.9949 14.2434 12.1107 14.1623C12.23 14.0781 12.3193 13.9579 12.3656 13.8194L12.5782 13.1663C12.6231 13.0307 12.6991 12.9074 12.7999 12.8062C12.9008 12.7051 13.0238 12.6288 13.1593 12.5834L13.8256 12.3674C13.96 12.3197 14.0763 12.2316 14.1586 12.1152C14.241 11.9988 14.2853 11.8597 14.2856 11.7171C14.2856 11.5708 14.2388 11.4283 14.152 11.3105C14.0652 11.1927 13.9431 11.1057 13.8033 11.0623L13.1496 10.8509C13.0139 10.8058 12.8906 10.7298 12.7894 10.6289C12.6883 10.5279 12.612 10.4047 12.5667 10.2691L12.3496 9.60458C12.3028 9.46894 12.2146 9.35141 12.0974 9.26855C11.9803 9.18568 11.8401 9.14165 11.6966 9.14266C11.5531 9.14367 11.4136 9.18967 11.2976 9.27417C11.1816 9.35868 11.0951 9.47744 11.0502 9.61372L10.8365 10.2686C10.7927 10.4024 10.7187 10.5244 10.6203 10.6252C10.522 10.7259 10.4018 10.8027 10.269 10.8497L9.60274 11.0657C9.46806 11.1133 9.35142 11.2014 9.26885 11.3179C9.18628 11.4345 9.14182 11.5737 9.1416 11.7166C9.14174 11.8606 9.18726 12.001 9.27167 12.1177C9.35609 12.2344 9.47512 12.3216 9.61188 12.3669L10.2656 12.5794C10.4018 12.6243 10.5255 12.7006 10.6268 12.8022C10.728 12.9037 10.804 13.0277 10.8485 13.164L11.065 13.8286C11.1123 13.9628 11.2002 14.0791 11.3165 14.1611" fill="black" fill-opacity="0.9"/>
</svg>
