<svg width="20" height="20" viewBox="0 0 20 20" fill="none" xmlns="http://www.w3.org/2000/svg">
<path d="M8.40614 3.63987C8.90977 2.16607 10.9461 2.12144 11.5432 3.50597L11.5938 3.64071L12.2734 5.62824C12.4292 6.08405 12.6809 6.50115 13.0115 6.85142C13.3422 7.20169 13.7441 7.47698 14.1902 7.65871L14.373 7.72692L16.3605 8.40571C17.8343 8.90933 17.8789 10.9457 16.4952 11.5428L16.3605 11.5933L14.373 12.273C13.917 12.4286 13.4997 12.6803 13.1493 13.0109C12.7989 13.3416 12.5235 13.7436 12.3416 14.1897L12.2734 14.3716L11.5946 16.36C11.091 17.8338 9.05462 17.8784 8.45836 16.4948L8.40614 16.36L7.72735 14.3725C7.5717 13.9165 7.32005 13.4993 6.98939 13.1488C6.65872 12.7984 6.25674 12.523 5.81056 12.3412L5.62865 12.273L3.64111 11.5942C2.16646 11.0906 2.12183 9.05418 3.50636 8.45793L3.64111 8.40571L5.62865 7.72692C6.08446 7.57117 6.50157 7.31948 6.85184 6.98882C7.20212 6.65816 7.4774 6.25623 7.65913 5.81014L7.72735 5.62824L8.40614 3.63987Z" fill="black"/>
</svg>
