<svg width="12" height="12" viewBox="0 0 12 12" fill="none" xmlns="http://www.w3.org/2000/svg">
<path d="M5.04388 2.18392C5.34605 1.29964 6.56788 1.27286 6.92614 2.10358L6.95646 2.18443L7.36424 3.37694C7.4577 3.65043 7.60871 3.90069 7.80711 4.11085C8.0055 4.32102 8.24666 4.48619 8.51432 4.59523L8.62397 4.63615L9.81649 5.04343C10.7008 5.3456 10.7276 6.56742 9.89734 6.92568L9.81649 6.956L8.62397 7.36378C8.35039 7.45717 8.10002 7.60815 7.88977 7.80655C7.67952 8.00495 7.51427 8.24614 7.40517 8.51384L7.36424 8.62299L6.95697 9.81601C6.6548 10.7003 5.43297 10.7271 5.07521 9.89686L5.04388 9.81601L4.63661 8.62349C4.54321 8.34991 4.39223 8.09955 4.19383 7.8893C3.99543 7.67905 3.75424 7.5138 3.48653 7.40471L3.37738 7.36378L2.18486 6.9565C1.30007 6.65433 1.27329 5.43251 2.10401 5.07476L2.18486 5.04343L3.37738 4.63615C3.65087 4.5427 3.90114 4.39169 4.1113 4.19329C4.32146 3.9949 4.48664 3.75374 4.59568 3.48609L4.63661 3.37694L5.04388 2.18392Z" fill="black"/>
</svg>
