<svg width="16" height="16" viewBox="0 0 16 16" fill="none" xmlns="http://www.w3.org/2000/svg">
<path fill-rule="evenodd" clip-rule="evenodd" d="M5.5521 2.36038C5.65346 2.14115 5.87933 2 6.1296 2H11.1206C11.5898 2 11.8958 2.4745 11.6856 2.87812L10.2659 5.6038H12.3669C12.93 5.6038 13.2116 6.25728 12.8137 6.63929L5.33499 13.8186C4.86323 14.2715 4.07739 13.8054 4.28886 13.1982L5.88308 8.60696H3.63191C3.52663 8.60696 3.42303 8.5817 3.3305 8.5335C3.23798 8.48529 3.15947 8.41566 3.10209 8.33093C3.04472 8.2462 3.01031 8.14905 3.00198 8.04831C2.99365 7.94756 3.01168 7.84642 3.05441 7.75406L5.5521 2.36038Z" fill="black"/>
</svg>
