<svg width="20" height="20" viewBox="0 0 20 20" fill="none" xmlns="http://www.w3.org/2000/svg">
<path fill-rule="evenodd" clip-rule="evenodd" d="M6.94012 2.95047C7.06682 2.67644 7.34916 2.5 7.66199 2.5H13.9007C14.4873 2.5 14.8698 3.09312 14.607 3.59766L12.8324 7.00475H15.4587C16.1626 7.00475 16.5145 7.82161 16.0171 8.29911L6.66874 17.2733C6.07904 17.8394 5.09673 17.2568 5.36108 16.4977L7.35385 10.7587H4.53988C4.40829 10.7587 4.27879 10.7271 4.16313 10.6669C4.04747 10.6066 3.94933 10.5196 3.87762 10.4137C3.8059 10.3077 3.76288 10.1863 3.75248 10.0604C3.74207 9.93445 3.76459 9.80802 3.81801 9.69258L6.94012 2.95047Z" fill="black"/>
</svg>
