<svg width="20" height="20" viewBox="0 0 20 20" fill="none" xmlns="http://www.w3.org/2000/svg">
<path d="M9.99963 15.0662L6.36408 17.3593C6.20348 17.4664 6.03557 17.5122 5.86036 17.4969C5.68515 17.4816 5.53185 17.4205 5.40044 17.3135C5.26904 17.2065 5.16683 17.0729 5.09383 16.9126C5.02083 16.7524 5.00623 16.5727 5.05003 16.3733L6.01367 12.0393L2.79424 9.12708C2.64823 8.9895 2.55713 8.83265 2.52092 8.65654C2.48471 8.48043 2.49551 8.3086 2.55333 8.14105C2.61115 7.9735 2.69875 7.83591 2.81614 7.72829C2.93353 7.62066 3.09413 7.55187 3.29796 7.52191L7.54673 7.13208L9.18929 3.05035C9.2623 2.8669 9.3756 2.72931 9.5292 2.63759C9.68279 2.54586 9.8396 2.5 9.99963 2.5C10.1596 2.5 10.3165 2.54586 10.4701 2.63759C10.6237 2.72931 10.737 2.8669 10.81 3.05035L12.4525 7.13208L16.7013 7.52191C16.9057 7.55248 17.0663 7.62128 17.1831 7.72829C17.2999 7.8353 17.3875 7.97289 17.4459 8.14105C17.5043 8.30921 17.5154 8.48135 17.4792 8.65746C17.443 8.83357 17.3516 8.99011 17.205 9.12708L13.9856 12.0393L14.9492 16.3733C14.993 16.572 14.9784 16.7518 14.9054 16.9126C14.8324 17.0735 14.7302 17.2071 14.5988 17.3135C14.4674 17.4199 14.3141 17.481 14.1389 17.4969C13.9637 17.5128 13.7958 17.467 13.6352 17.3593L9.99963 15.0662Z" fill="black" fill-opacity="0.4"/>
</svg>
