<svg width="20" height="20" viewBox="0 0 20 20" fill="none" xmlns="http://www.w3.org/2000/svg">
<path d="M12.71 8.90753C11.8875 7.92419 11.4767 7.43253 11.0034 7.50753C10.5309 7.58336 10.31 8.17669 9.86836 9.36336L9.75336 9.67003C9.62836 10.0075 9.56503 10.1759 9.44253 10.3C9.32086 10.4242 9.15253 10.49 8.81753 10.6217L8.5117 10.7409C7.33086 11.2034 6.74003 11.435 6.67253 11.9075C6.60503 12.38 7.10586 12.7817 8.1067 13.5834L8.36503 13.7917C8.65003 14.0192 8.79253 14.1334 8.8742 14.2892C8.95753 14.445 8.97003 14.6259 8.99586 14.9867L9.02003 15.315C9.1117 16.5842 9.15836 17.2192 9.5892 17.4359C10.02 17.6525 10.5509 17.3067 11.6117 16.6167L11.8859 16.4375C12.1875 16.2417 12.3384 16.1434 12.5109 16.115C12.6842 16.0875 12.8609 16.1334 13.2117 16.225L13.5325 16.3084C14.77 16.63 15.3892 16.7917 15.7234 16.4525C16.0575 16.1134 15.8842 15.4992 15.5392 14.2692L15.4492 13.9525C15.3517 13.6025 15.3025 13.4275 15.3267 13.255C15.3517 13.0817 15.4475 12.93 15.6384 12.625L15.8134 12.3484C16.4859 11.2775 16.8217 10.7425 16.5967 10.3167C16.3725 9.89086 15.7359 9.85586 14.4617 9.78753L14.1317 9.76919C13.77 9.75003 13.5884 9.74003 13.4309 9.66086C13.2725 9.58169 13.1559 9.44169 12.9225 9.16169L12.71 8.90753Z" fill="black"/>
<path d="M12.3983 4.30581L12.5508 4.74081C12.7183 5.21831 12.8024 5.45748 12.9649 5.63248C13.1283 5.80914 13.3516 5.90248 13.7991 6.08831L14.2066 6.25831C15.7816 6.91331 16.5691 7.24164 16.6583 7.91081C16.6958 8.18914 16.6024 8.45081 16.3833 8.74248C16.3133 8.72351 16.2427 8.70684 16.1716 8.69248C15.7333 8.60331 15.1758 8.57331 14.6074 8.54248L14.1991 8.52081L14.0074 8.50998L13.8816 8.35998L13.6183 8.04581C13.2516 7.60581 12.8933 7.17664 12.5583 6.87831C12.2024 6.55998 11.6074 6.14498 10.8058 6.27331C9.99577 6.40331 9.5641 6.99248 9.33077 7.41248C9.11493 7.80248 8.92077 8.32414 8.7241 8.85164L8.58243 9.23331L8.52243 9.39414C8.47799 9.41081 8.42438 9.43192 8.3616 9.45748L7.9816 9.60581C7.4566 9.81164 6.93743 10.0141 6.55077 10.2366C6.13577 10.4758 5.55077 10.9175 5.43493 11.7308C5.32077 12.5366 5.74993 13.125 6.0741 13.4741C6.31577 13.7333 6.6416 14.0075 6.9891 14.2891C5.6816 14.6433 4.9866 14.7758 4.5916 14.3491C4.1466 13.8691 4.3766 12.9991 4.83743 11.2575L4.95577 10.8075C5.0866 10.3116 5.15243 10.065 5.11993 9.81914C5.0866 9.57414 4.9591 9.35831 4.7041 8.92748L4.47243 8.53581C3.57493 7.01831 3.1266 6.25998 3.42493 5.65581C3.72493 5.05248 4.5741 5.00331 6.27327 4.90581L6.71243 4.88081C7.19577 4.85248 7.4366 4.83914 7.64743 4.72664C7.85743 4.61414 8.01327 4.41664 8.32493 4.01998L8.60827 3.65998C9.70493 2.26581 10.2533 1.56914 10.8833 1.67664C11.5133 1.78414 11.8083 2.62414 12.3974 4.30498" fill="black"/>
</svg>
