<svg width="16" height="16" viewBox="0 0 16 16" fill="none" xmlns="http://www.w3.org/2000/svg">
<path d="M10.1678 7.12597C9.50983 6.33931 9.18116 5.94597 8.8025 6.00597C8.4245 6.06664 8.24783 6.54131 7.8945 7.49064L7.8025 7.73597C7.7025 8.00597 7.65183 8.14064 7.55383 8.23997C7.4565 8.33931 7.32183 8.39197 7.05383 8.49731L6.80916 8.59264C5.8645 8.96264 5.39183 9.14797 5.33783 9.52597C5.28383 9.90397 5.6845 10.2253 6.48516 10.8666L6.69183 11.0333C6.91983 11.2153 7.03383 11.3066 7.09916 11.4313C7.16583 11.556 7.17583 11.7006 7.1965 11.9893L7.21583 12.252C7.28916 13.2673 7.3265 13.7753 7.67116 13.9486C8.01583 14.122 8.4405 13.8453 9.28916 13.2933L9.5085 13.15C9.74983 12.9933 9.8705 12.9146 10.0085 12.892C10.1472 12.87 10.2885 12.9066 10.5692 12.98L10.8258 13.0466C11.8158 13.304 12.3112 13.4333 12.5785 13.162C12.8458 12.8906 12.7072 12.3993 12.4312 11.4153L12.3592 11.162C12.2812 10.882 12.2418 10.742 12.2612 10.604C12.2812 10.4653 12.3578 10.344 12.5105 10.1L12.6505 9.87864C13.1885 9.02197 13.4572 8.59397 13.2772 8.25331C13.0978 7.91264 12.5885 7.88464 11.5692 7.82997L11.3052 7.81531C11.0158 7.79997 10.8705 7.79197 10.7445 7.72864C10.6178 7.66531 10.5245 7.55331 10.3378 7.32931L10.1678 7.12597Z" fill="black"/>
<path d="M9.91871 3.44468L10.0407 3.79268C10.1747 4.17468 10.242 4.36602 10.372 4.50602C10.5027 4.64735 10.6814 4.72202 11.0394 4.87068L11.3654 5.00668C12.6254 5.53068 13.2554 5.79335 13.3267 6.32868C13.3567 6.55135 13.282 6.76068 13.1067 6.99402C13.0507 6.97885 12.9942 6.96551 12.9374 6.95402C12.5867 6.88268 12.1407 6.85868 11.686 6.83402L11.3594 6.81668L11.206 6.80802L11.1054 6.68802L10.8947 6.43668C10.6014 6.08468 10.3147 5.74135 10.0467 5.50268C9.76204 5.24802 9.28604 4.91602 8.64471 5.01868C7.99671 5.12268 7.65138 5.59402 7.46471 5.93002C7.29204 6.24202 7.13671 6.65935 6.97938 7.08135L6.86604 7.38668L6.81805 7.51535C6.78249 7.52868 6.7396 7.54557 6.68938 7.56602L6.38538 7.68468C5.96538 7.84935 5.55004 8.01135 5.24071 8.18935C4.90871 8.38068 4.44071 8.73402 4.34804 9.38468C4.25671 10.0294 4.60004 10.5 4.85938 10.7794C5.05271 10.9867 5.31338 11.206 5.59138 11.4314C4.54538 11.7147 3.98938 11.8207 3.67338 11.4794C3.31738 11.0954 3.50138 10.3994 3.87004 9.00602L3.96471 8.64602C4.06938 8.24935 4.12204 8.05202 4.09604 7.85535C4.06938 7.65935 3.96738 7.48668 3.76338 7.14202L3.57804 6.82868C2.86004 5.61468 2.50138 5.00802 2.74004 4.52468C2.98004 4.04202 3.65938 4.00268 5.01871 3.92468L5.37005 3.90468C5.75671 3.88202 5.94938 3.87135 6.11804 3.78135C6.28604 3.69135 6.41071 3.53335 6.66004 3.21602L6.88671 2.92802C7.76404 1.81268 8.20271 1.25535 8.70671 1.34135C9.21071 1.42735 9.44671 2.09935 9.91804 3.44402" fill="black"/>
</svg>
