<svg width="12" height="12" viewBox="0 0 12 12" fill="none" xmlns="http://www.w3.org/2000/svg">
<path d="M7.10847 1.74974C6.76206 1.58531 6.38342 1.5 5.99997 1.5C5.61652 1.5 5.23787 1.58531 4.89147 1.74974L1.54597 3.31824C1.00797 3.57024 0.867466 4.28174 1.12497 4.77324V7.24974C1.12497 7.34919 1.16447 7.44458 1.2348 7.5149C1.30513 7.58523 1.40051 7.62474 1.49997 7.62474C1.59942 7.62474 1.6948 7.58523 1.76513 7.5149C1.83546 7.44458 1.87497 7.34919 1.87497 7.24974V5.33574L4.89147 6.74974C5.23787 6.91417 5.61652 6.99947 5.99997 6.99947C6.38342 6.99947 6.76206 6.91417 7.10847 6.74974L10.454 5.18124C11.182 4.84024 11.182 3.65924 10.454 3.31824L7.10847 1.74974Z" fill="black"/>
<path d="M2.5 6.45703V8.31203C2.5 8.81603 2.7515 9.28803 3.1925 9.53203C3.927 9.93953 5.102 10.4995 6 10.4995C6.898 10.4995 8.073 9.93903 8.8075 9.53253C9.2485 9.28803 9.5 8.81603 9.5 8.31253V6.45703L7.427 7.42903C6.98092 7.64021 6.49354 7.74975 6 7.74975C5.50646 7.74975 5.01908 7.64021 4.573 7.42903L2.5 6.45703Z" fill="black"/>
</svg>
