<svg width="16" height="16" viewBox="0 0 16 16" fill="none" xmlns="http://www.w3.org/2000/svg">
<path d="M8 2C4.6916 2 2 4.6916 2 8V10.4858C2 11.1002 2.5382 11.6 3.2 11.6H3.8C3.95913 11.6 4.11174 11.5368 4.22426 11.4243C4.33679 11.3117 4.4 11.1591 4.4 11V7.9142C4.4 7.75507 4.33679 7.60246 4.22426 7.48994C4.11174 7.37741 3.95913 7.3142 3.8 7.3142H3.2552C3.5888 4.9922 5.5868 3.2 8 3.2C10.4132 3.2 12.4112 4.9922 12.7448 7.3142H12.2C12.0409 7.3142 11.8883 7.37741 11.7757 7.48994C11.6632 7.60246 11.6 7.75507 11.6 7.9142V11.6C11.6 12.2618 11.0618 12.8 10.4 12.8H9.2V12.2H6.8V14H10.4C11.7236 14 12.8 12.9236 12.8 11.6C13.4618 11.6 14 11.1002 14 10.4858V8C14 4.6916 11.3084 2 8 2Z" fill="#435700"/>
</svg>
