<svg width="12" height="12" viewBox="0 0 12 12" fill="none" xmlns="http://www.w3.org/2000/svg">
<path d="M6 1.125C3.30773 1.125 1.125 3.30773 1.125 6C1.125 8.69227 3.30773 10.875 6 10.875C8.69227 10.875 10.875 8.69227 10.875 6C10.875 3.30773 8.69227 1.125 6 1.125ZM8.25 6.75H6C5.90054 6.75 5.80516 6.71049 5.73484 6.64017C5.66451 6.56984 5.625 6.47446 5.625 6.375V3C5.625 2.90054 5.66451 2.80516 5.73484 2.73484C5.80516 2.66451 5.90054 2.625 6 2.625C6.09946 2.625 6.19484 2.66451 6.26517 2.73484C6.33549 2.80516 6.375 2.90054 6.375 3V6H8.25C8.34946 6 8.44484 6.03951 8.51517 6.10983C8.58549 6.18016 8.625 6.27554 8.625 6.375C8.625 6.47446 8.58549 6.56984 8.51517 6.64017C8.44484 6.71049 8.34946 6.75 8.25 6.75Z" fill="black" fill-opacity="0.5"/>
</svg>
