<svg width="20" height="20" viewBox="0 0 20 20" fill="none" xmlns="http://www.w3.org/2000/svg">
<path d="M7.15789 14.7368H5.26316C4.92815 14.7368 4.60686 14.6038 4.36997 14.3669C4.13308 14.13 4 13.8087 4 13.4737V5.89474C4 5.55973 4.13308 5.23844 4.36997 5.00155C4.60686 4.76466 4.92815 4.63158 5.26316 4.63158H7.15789C7.4929 4.63158 7.81419 4.76466 8.05108 5.00155C8.28797 5.23844 8.42105 5.55973 8.42105 5.89474V13.4737C8.42105 13.8087 8.28797 14.13 8.05108 14.3669C7.81419 14.6038 7.4929 14.7368 7.15789 14.7368ZM12.2105 8.42105H14.7368C15.0719 8.42105 15.3931 8.28797 15.63 8.05108C15.8669 7.81419 16 7.4929 16 7.15789V5.26316C16 4.92815 15.8669 4.60686 15.63 4.36997C15.3931 4.13308 15.0719 4 14.7368 4H12.2105C11.8755 4 11.5542 4.13308 11.3173 4.36997C11.0805 4.60686 10.9474 4.92815 10.9474 5.26316V7.15789C10.9474 7.4929 11.0805 7.81419 11.3173 8.05108C11.5542 8.28797 11.8755 8.42105 12.2105 8.42105ZM15.3684 14.7368V10.9474C15.3684 10.6124 15.2353 10.2911 14.9984 10.0542C14.7616 9.81729 14.4403 9.68421 14.1053 9.68421H10.9474C10.6124 9.68421 10.2911 9.81729 10.0542 10.0542C9.81729 10.2911 9.68421 10.6124 9.68421 10.9474V14.7368C9.68421 15.0719 9.81729 15.3931 10.0542 15.63C10.2911 15.8669 10.6124 16 10.9474 16H14.1053C14.4403 16 14.7616 15.8669 14.9984 15.63C15.2353 15.3931 15.3684 15.0719 15.3684 14.7368Z" fill="black"/>
</svg>
