<svg width="12" height="12" viewBox="0 0 12 12" fill="none" xmlns="http://www.w3.org/2000/svg">
<path d="M8.25 1.5C7.65326 1.5 7.08097 1.74953 6.65901 2.19369C6.23705 2.63786 6 3.24028 6 3.86842V5.28947H2.22C1.824 5.28947 1.5 5.63053 1.5 6.04737V9.36316C1.5 9.98842 1.986 10.5 2.58 10.5H6.72C7.314 10.5 7.8 9.98842 7.8 9.36316V6.04737C7.8 5.63053 7.476 5.28947 7.08 5.28947H6.9V3.86842C6.9 3.08305 7.5039 2.44737 8.25 2.44737C8.9961 2.44737 9.6 3.08305 9.6 3.86842V5.28947C9.6 5.4151 9.64741 5.53559 9.7318 5.62442C9.81619 5.71325 9.93065 5.76316 10.05 5.76316C10.1693 5.76316 10.2838 5.71325 10.3682 5.62442C10.4526 5.53559 10.5 5.4151 10.5 5.28947V3.86842C10.5 3.5574 10.4418 3.24942 10.3287 2.96207C10.2157 2.67472 10.0499 2.41362 9.84099 2.19369C9.63206 1.97377 9.38402 1.79931 9.11104 1.68029C8.83806 1.56126 8.54547 1.5 8.25 1.5Z" fill="black"/>
</svg>
