<svg width="20" height="20" viewBox="0 0 20 20" fill="none" xmlns="http://www.w3.org/2000/svg">
<path fill-rule="evenodd" clip-rule="evenodd" d="M19.5625 4.80526C19.6962 4.33158 19.5625 4 18.9388 4H16.8598C16.3252 4 16.0876 4.3 15.954 4.63158C15.954 4.63158 14.8996 7.37895 13.3998 9.14737C12.9097 9.66842 12.7018 9.82632 12.4345 9.82632C12.3009 9.82632 12.1078 9.66842 12.1078 9.19474V4.80526C12.1078 4.23684 11.9593 4 11.5138 4H8.24681C7.92011 4 7.71221 4.26842 7.71221 4.50526C7.71221 5.0421 8.45472 5.16842 8.54382 6.65263V9.90526C8.54382 10.6158 8.42502 10.7421 8.15771 10.7421C7.45976 10.7421 5.73716 7.99474 4.72736 4.83684C4.51946 4.25263 4.32641 4 3.79181 4H1.7128C1.1188 4 1 4.3 1 4.63158C1 5.21579 1.69795 8.12105 4.28186 11.9579C6.00446 14.5789 8.42502 16 10.6228 16C11.9445 16 12.1078 15.6842 12.1078 15.1474V13.1579C12.1078 12.5263 12.2266 12.4 12.6573 12.4C12.9691 12.4 13.4889 12.5579 14.7214 13.8211C16.1322 15.3211 16.3698 16 17.1568 16H19.2358C19.8298 16 20.1268 15.6842 19.9486 15.0684C19.7556 14.4526 19.0873 13.5526 18.1963 12.4789C17.7063 11.8632 16.9786 11.2158 16.7707 10.8842C16.4589 10.4579 16.548 10.2684 16.7707 9.90526C16.7707 9.88947 19.3101 6.1 19.5625 4.80526Z" fill="black" fill-opacity="0.25"/>
</svg>
