<svg width="12" height="12" viewBox="0 0 12 12" fill="none" xmlns="http://www.w3.org/2000/svg">
<path d="M2.8 9.5C2.58 9.5 2.39173 9.42791 2.2352 9.28374C2.07867 9.13956 2.00027 8.96603 2 8.76316V4.71053C2 4.50789 2.0784 4.33449 2.2352 4.19032C2.392 4.04614 2.58027 3.97393 2.8 3.97368H4.4V3.23684C4.4 3.03421 4.4784 2.86081 4.6352 2.71663C4.792 2.57246 4.98027 2.50025 5.2 2.5H6.8C7.02 2.5 7.2084 2.57221 7.3652 2.71663C7.522 2.86105 7.60027 3.03446 7.6 3.23684V3.97368H9.2C9.42 3.97368 9.6084 4.04589 9.7652 4.19032C9.922 4.33474 10.0003 4.50814 10 4.71053V8.76316C10 8.96579 9.92173 9.13932 9.7652 9.28374C9.60867 9.42816 9.42027 9.50024 9.2 9.5H2.8ZM5.2 3.97368H6.8V3.23684H5.2V3.97368Z" fill="black"/>
</svg>
