<svg width="16" height="16" viewBox="0 0 16 16" fill="none" xmlns="http://www.w3.org/2000/svg">
<g clip-path="url(#clip0_19_418)">
<path d="M2.83501 0C1.26451 0 0 1.26451 0 2.83501V13.165C0 14.7355 1.26451 16 2.83501 16H10.438L16 8.00202L10.438 1.6e-05L2.83501 0ZM7.09251 2.92101H8.89901C9.00992 2.92101 9.0735 2.96157 9.0735 3.05701V13.013C9.0735 13.0808 9.04158 13.1215 8.9465 13.1215H7.964C7.90106 13.1215 7.8535 13.0672 7.8535 13.0265V9.3405H7.0605L4.858 13.0265C4.82638 13.0943 4.76309 13.1215 4.668 13.1215H3.54299C3.41659 13.1215 3.33733 13.0265 3.4165 12.904L5.8405 9.15C4.5415 8.66037 3.8125 7.6675 3.8125 6.32099C3.8125 4.07677 5.31795 2.92099 7.0925 2.92099L7.09251 2.92101ZM7.04501 3.79101C6.07842 3.79101 5.1275 4.48464 5.1275 6.18501C5.1275 7.81718 6.14173 8.47002 7.1875 8.47002H7.8535V3.79101H7.04501Z" fill="black"/>
</g>
<defs>
<clipPath id="clip0_19_418">
<rect width="16" height="16" fill="white"/>
</clipPath>
</defs>
</svg>
