<svg width="20" height="20" viewBox="0 0 20 20" fill="none" xmlns="http://www.w3.org/2000/svg">
<g clip-path="url(#clip0_19_464)">
<path d="M3.54376 0C1.58064 0 0 1.58064 0 3.54376V16.4563C0 18.4194 1.58064 20 3.54376 20H13.0475L20 10.0025L13.0475 2e-05L3.54376 0ZM8.86564 3.65126H11.1238C11.2624 3.65126 11.3419 3.70196 11.3419 3.82126V16.2663C11.3419 16.3509 11.302 16.4019 11.1831 16.4019H9.955C9.87632 16.4019 9.81688 16.334 9.81688 16.2831V11.6756H8.82562L6.0725 16.2831C6.03298 16.3679 5.95386 16.4019 5.835 16.4019H4.42874C4.27074 16.4019 4.17166 16.2831 4.27062 16.13L7.30062 11.4375C5.67688 10.8255 4.76562 9.58438 4.76562 7.90124C4.76562 5.09596 6.64744 3.65124 8.86562 3.65124L8.86564 3.65126ZM8.80626 4.73876C7.59802 4.73876 6.40938 5.6058 6.40938 7.73126C6.40938 9.77148 7.67716 10.5875 8.98438 10.5875H9.81688V4.73876H8.80626Z" fill="black"/>
</g>
<defs>
<clipPath id="clip0_19_464">
<rect width="20" height="20" fill="white"/>
</clipPath>
</defs>
</svg>
