<svg width="20" height="20" viewBox="0 0 20 20" fill="none" xmlns="http://www.w3.org/2000/svg">
<path d="M8.6 13L13.5305 10L8.6 7V13ZM19.582 5.17C19.7055 5.64 19.791 6.27 19.848 7.07C19.9145 7.87 19.943 8.56 19.943 9.16L20 10C20 12.19 19.848 13.8 19.582 14.83C19.3445 15.73 18.7935 16.31 17.9385 16.56C17.492 16.69 16.675 16.78 15.421 16.84C14.186 16.91 13.0555 16.94 12.0105 16.94L10.5 17C6.5195 17 4.04 16.84 3.0615 16.56C2.2065 16.31 1.6555 15.73 1.418 14.83C1.2945 14.36 1.209 13.73 1.152 12.93C1.0855 12.13 1.057 11.44 1.057 10.84L1 10C1 7.81 1.152 6.2 1.418 5.17C1.6555 4.27 2.2065 3.69 3.0615 3.44C3.508 3.31 4.325 3.22 5.579 3.16C6.814 3.09 7.9445 3.06 8.9895 3.06L10.5 3C14.4805 3 16.96 3.16 17.9385 3.44C18.7935 3.69 19.3445 4.27 19.582 5.17Z" fill="black" fill-opacity="0.25"/>
</svg>
