<svg width="14" height="16" viewBox="0 0 14 16" fill="none" xmlns="http://www.w3.org/2000/svg">
<path fill-rule="evenodd" clip-rule="evenodd" d="M3.94012 0.950474C4.06682 0.676436 4.34916 0.5 4.66199 0.5H10.9007C11.4873 0.5 11.8698 1.09312 11.607 1.59766L9.8324 5.00475H12.4587C13.1626 5.00475 13.5145 5.82161 13.0171 6.29911L3.66874 15.2733C3.07904 15.8394 2.09673 15.2568 2.36108 14.4977L4.35385 8.7587H1.53988C1.40829 8.75869 1.27879 8.72713 1.16313 8.66687C1.04747 8.60662 0.949331 8.51958 0.877616 8.41366C0.8059 8.30775 0.762884 8.18631 0.752475 8.06038C0.742066 7.93445 0.764594 7.80802 0.818012 7.69258L3.94012 0.950474Z" fill="black"/>
</svg>
