<svg width="11" height="10" viewBox="0 0 11 10" fill="none" xmlns="http://www.w3.org/2000/svg">
<path d="M5.5 0.125C2.80773 0.125 0.625 2.30773 0.625 5C0.625 7.69227 2.80773 9.875 5.5 9.875C8.19227 9.875 10.375 7.69227 10.375 5C10.375 2.30773 8.19227 0.125 5.5 0.125ZM7.75 5.75H5.5C5.40054 5.75 5.30516 5.71049 5.23484 5.64017C5.16451 5.56984 5.125 5.47446 5.125 5.375V2C5.125 1.90054 5.16451 1.80516 5.23484 1.73484C5.30516 1.66451 5.40054 1.625 5.5 1.625C5.59946 1.625 5.69484 1.66451 5.76517 1.73484C5.83549 1.80516 5.875 1.90054 5.875 2V5H7.75C7.84946 5 7.94484 5.03951 8.01517 5.10983C8.08549 5.18016 8.125 5.27554 8.125 5.375C8.125 5.47446 8.08549 5.56984 8.01517 5.64017C7.94484 5.71049 7.84946 5.75 7.75 5.75Z" fill="black"/>
</svg>
