<svg width="16" height="16" viewBox="0 0 16 16" fill="none" xmlns="http://www.w3.org/2000/svg">
<path d="M6.40614 1.63987C6.90977 0.166072 8.94615 0.121437 9.54325 1.50597L9.59378 1.64071L10.2734 3.62824C10.4292 4.08405 10.6809 4.50115 11.0115 4.85142C11.3422 5.20169 11.7441 5.47698 12.1902 5.65871L12.373 5.72692L14.3605 6.40571C15.8343 6.90933 15.8789 8.9457 14.4952 9.5428L14.3605 9.59333L12.373 10.273C11.917 10.4286 11.4997 10.6803 11.1493 11.0109C10.7989 11.3416 10.5235 11.7436 10.3416 12.1897L10.2734 12.3716L9.59462 14.36C9.091 15.8338 7.05462 15.8784 6.45836 14.4948L6.40614 14.36L5.72735 12.3725C5.5717 11.9165 5.32005 11.4993 4.98939 11.1488C4.65872 10.7984 4.25674 10.523 3.81056 10.3412L3.62865 10.273L1.64111 9.59417C0.166463 9.09055 0.121827 7.05418 1.50636 6.45793L1.64111 6.40571L3.62865 5.72692C4.08446 5.57117 4.50157 5.31948 4.85184 4.98882C5.20212 4.65816 5.4774 4.25623 5.65913 3.81014L5.72735 3.62824L6.40614 1.63987Z" fill="black"/>
</svg>
