<svg width="84" height="84" viewBox="0 0 84 84" fill="none" xmlns="http://www.w3.org/2000/svg">
<g filter="url(#filter0_dii_4814_14303)">
<rect x="10" y="8" width="64" height="64" rx="17" fill="white" fill-opacity="0.25" shape-rendering="crispEdges"/>
<rect x="10" y="8" width="64" height="64" rx="17" fill="#CEFF2F" shape-rendering="crispEdges"/>
<rect x="10.5" y="8.5" width="63" height="63" rx="16.5" stroke="url(#paint0_linear_4814_14303)" shape-rendering="crispEdges"/>
<rect x="20.75" y="18.75" width="42.5" height="42.5" rx="21.25" stroke="#70AF2C" stroke-width="1.5"/>
<path d="M36.4648 46.6768C33.3799 46.6768 31.082 44.3916 31.082 41.3701V41.3447C31.082 38.3232 33.3799 36.0381 36.4648 36.0381C38.458 36.0381 40.0195 36.9395 41.8223 39.1484L42 39.3643L42.1777 39.1484C43.9805 36.9395 45.542 36.0381 47.5479 36.0381C50.6201 36.0381 52.918 38.3232 52.918 41.3447V41.3701C52.918 44.3916 50.6201 46.6768 47.5479 46.6768C45.542 46.6768 43.9805 45.7881 42.1777 43.5664L42 43.3633L41.8223 43.5664C40.0195 45.7881 38.458 46.6768 36.4648 46.6768ZM36.6426 44.0488C37.8867 44.0488 38.7881 43.3887 40.2607 41.5605L40.4258 41.3574L40.2607 41.1543C38.7881 39.3262 37.8867 38.666 36.6426 38.666C35.0557 38.666 33.9258 39.8086 33.9258 41.3447V41.3701C33.9258 42.9189 35.0557 44.0488 36.6426 44.0488ZM47.3574 44.0488C48.9443 44.0488 50.0742 42.9189 50.0742 41.3701V41.3447C50.0742 39.8086 48.9443 38.666 47.3574 38.666C46.1133 38.666 45.2119 39.3262 43.7393 41.1543L43.5742 41.3574L43.7393 41.5605C45.2119 43.3887 46.1133 44.0488 47.3574 44.0488Z" fill="#70AF2C"/>
</g>
<defs>
<filter id="filter0_dii_4814_14303" x="-5" y="-7" width="94" height="94" filterUnits="userSpaceOnUse" color-interpolation-filters="sRGB">
<feFlood flood-opacity="0" result="BackgroundImageFix"/>
<feColorMatrix in="SourceAlpha" type="matrix" values="0 0 0 0 0 0 0 0 0 0 0 0 0 0 0 0 0 0 127 0" result="hardAlpha"/>
<feOffset dy="2"/>
<feGaussianBlur stdDeviation="5"/>
<feComposite in2="hardAlpha" operator="out"/>
<feColorMatrix type="matrix" values="0 0 0 0 0 0 0 0 0 0 0 0 0 0 0 0 0 0 0.12 0"/>
<feBlend mode="normal" in2="BackgroundImageFix" result="effect1_dropShadow_4814_14303"/>
<feBlend mode="normal" in="SourceGraphic" in2="effect1_dropShadow_4814_14303" result="shape"/>
<feColorMatrix in="SourceAlpha" type="matrix" values="0 0 0 0 0 0 0 0 0 0 0 0 0 0 0 0 0 0 127 0" result="hardAlpha"/>
<feOffset dx="-2" dy="-2"/>
<feGaussianBlur stdDeviation="10"/>
<feComposite in2="hardAlpha" operator="arithmetic" k2="-1" k3="1"/>
<feColorMatrix type="matrix" values="0 0 0 0 1 0 0 0 0 1 0 0 0 0 1 0 0 0 0.9 0"/>
<feBlend mode="normal" in2="shape" result="effect2_innerShadow_4814_14303"/>
<feColorMatrix in="SourceAlpha" type="matrix" values="0 0 0 0 0 0 0 0 0 0 0 0 0 0 0 0 0 0 127 0" result="hardAlpha"/>
<feOffset dx="2" dy="2"/>
<feGaussianBlur stdDeviation="10"/>
<feComposite in2="hardAlpha" operator="arithmetic" k2="-1" k3="1"/>
<feColorMatrix type="matrix" values="0 0 0 0 1 0 0 0 0 1 0 0 0 0 1 0 0 0 0.9 0"/>
<feBlend mode="normal" in2="effect2_innerShadow_4814_14303" result="effect3_innerShadow_4814_14303"/>
</filter>
<linearGradient id="paint0_linear_4814_14303" x1="42" y1="8" x2="42" y2="72" gradientUnits="userSpaceOnUse">
<stop stop-color="white" stop-opacity="0.8"/>
<stop offset="1" stop-color="white" stop-opacity="0.3"/>
</linearGradient>
</defs>
</svg>
