<svg width="84" height="84" viewBox="0 0 84 84" fill="none" xmlns="http://www.w3.org/2000/svg">
<g filter="url(#filter0_dii_4814_14298)">
<rect x="10" y="8" width="64" height="64" rx="17" fill="black" fill-opacity="0.05" shape-rendering="crispEdges"/>
<rect x="10.5" y="8.5" width="63" height="63" rx="16.5" stroke="url(#paint0_linear_4814_14298)" shape-rendering="crispEdges"/>
<g filter="url(#filter1_d_4814_14298)">
<path d="M17.5 35C17.5 31.6863 20.1863 29 23.5 29H41.5V51H23.5C20.1863 51 17.5 48.3137 17.5 45V35Z" fill="#EFC610"/>
<path d="M29.5 33.5C29.6567 33.5 29.807 33.5623 29.9178 33.6731C30.0287 33.7839 30.0909 33.9342 30.0909 34.0909V35.2727C30.0909 35.4294 30.0287 35.5797 29.9178 35.6906C29.807 35.8014 29.6567 35.8636 29.5 35.8636C29.3433 35.8636 29.193 35.8014 29.0822 35.6906C28.9713 35.5797 28.9091 35.4294 28.9091 35.2727V34.0909C28.9091 33.9342 28.9713 33.7839 29.0822 33.6731C29.193 33.5623 29.3433 33.5 29.5 33.5ZM29.5 44.1364C29.6567 44.1364 29.807 44.1986 29.9178 44.3094C30.0287 44.4203 30.0909 44.5706 30.0909 44.7273V45.9091C30.0909 46.0658 30.0287 46.2161 29.9178 46.3269C29.807 46.4377 29.6567 46.5 29.5 46.5C29.3433 46.5 29.193 46.4377 29.0822 46.3269C28.9713 46.2161 28.9091 46.0658 28.9091 45.9091V44.7273C28.9091 44.5706 28.9713 44.4203 29.0822 44.3094C29.193 44.1986 29.3433 44.1364 29.5 44.1364ZM23 40C23 39.8433 23.0623 39.693 23.1731 39.5822C23.2839 39.4713 23.4342 39.4091 23.5909 39.4091H24.7727C24.9294 39.4091 25.0797 39.4713 25.1906 39.5822C25.3014 39.693 25.3636 39.8433 25.3636 40C25.3636 40.1567 25.3014 40.307 25.1906 40.4178C25.0797 40.5287 24.9294 40.5909 24.7727 40.5909H23.5909C23.4342 40.5909 23.2839 40.5287 23.1731 40.4178C23.0623 40.307 23 40.1567 23 40ZM33.6364 40C33.6364 39.8433 33.6986 39.693 33.8094 39.5822C33.9203 39.4713 34.0706 39.4091 34.2273 39.4091H35.4091C35.5658 39.4091 35.7161 39.4713 35.8269 39.5822C35.9377 39.693 36 39.8433 36 40C36 40.1567 35.9377 40.307 35.8269 40.4178C35.7161 40.5287 35.5658 40.5909 35.4091 40.5909H34.2273C34.0706 40.5909 33.9203 40.5287 33.8094 40.4178C33.6986 40.307 33.6364 40.1567 33.6364 40ZM26.5732 42.9268C26.684 43.0376 26.7462 43.1879 26.7462 43.3445C26.7462 43.5012 26.684 43.6515 26.5732 43.7623L25.74 44.5955C25.6855 44.6519 25.6203 44.697 25.5482 44.7279C25.4761 44.7589 25.3986 44.7752 25.3201 44.7759C25.2417 44.7766 25.1639 44.7616 25.0913 44.7319C25.0186 44.7022 24.9527 44.6583 24.8972 44.6028C24.8417 44.5473 24.7978 44.4814 24.7681 44.4087C24.7384 44.3361 24.7234 44.2583 24.7241 44.1799C24.7248 44.1014 24.7411 44.0239 24.7721 43.9518C24.803 43.8797 24.8481 43.8145 24.9045 43.76L25.7377 42.9268C25.8485 42.816 25.9988 42.7538 26.1555 42.7538C26.3121 42.7538 26.4624 42.816 26.5732 42.9268ZM34.0955 35.4045C34.2063 35.5153 34.2685 35.6656 34.2685 35.8223C34.2685 35.979 34.2063 36.1292 34.0955 36.24L33.2623 37.0732C33.2078 37.1297 33.1426 37.1747 33.0705 37.2057C32.9984 37.2366 32.9209 37.2529 32.8424 37.2536C32.764 37.2543 32.6861 37.2393 32.6135 37.2096C32.5409 37.1799 32.4749 37.136 32.4194 37.0806C32.364 37.0251 32.3201 36.9591 32.2904 36.8865C32.2607 36.8139 32.2457 36.736 32.2464 36.6576C32.2471 36.5791 32.2634 36.5016 32.2943 36.4295C32.3253 36.3574 32.3703 36.2922 32.4268 36.2377L33.26 35.4045C33.3708 35.2937 33.521 35.2315 33.6777 35.2315C33.8344 35.2315 33.9847 35.2937 34.0955 35.4045ZM32.4268 42.9268C32.5376 42.816 32.6879 42.7538 32.8445 42.7538C33.0012 42.7538 33.1515 42.816 33.2623 42.9268L34.0955 43.76C34.1519 43.8145 34.197 43.8797 34.2279 43.9518C34.2589 44.0239 34.2752 44.1014 34.2759 44.1799C34.2766 44.2583 34.2616 44.3361 34.2319 44.4087C34.2022 44.4814 34.1583 44.5473 34.1028 44.6028C34.0473 44.6583 33.9814 44.7022 33.9087 44.7319C33.8361 44.7616 33.7583 44.7766 33.6799 44.7759C33.6014 44.7752 33.5239 44.7589 33.4518 44.7279C33.3797 44.697 33.3145 44.6519 33.26 44.5955L32.4268 43.7623C32.316 43.6515 32.2538 43.5012 32.2538 43.3445C32.2538 43.1879 32.316 43.0376 32.4268 42.9268ZM24.9045 35.4045C25.0153 35.2937 25.1656 35.2315 25.3223 35.2315C25.479 35.2315 25.6292 35.2937 25.74 35.4045L26.5732 36.2377C26.6809 36.3491 26.7404 36.4984 26.7391 36.6533C26.7377 36.8083 26.6756 36.9565 26.566 37.066C26.4565 37.1756 26.3083 37.2377 26.1533 37.2391C25.9984 37.2404 25.8491 37.1809 25.7377 37.0732L24.9045 36.24C24.7937 36.1292 24.7315 35.979 24.7315 35.8223C24.7315 35.6656 24.7937 35.5153 24.9045 35.4045ZM29.5 37.0455C28.7164 37.0455 27.9649 37.3567 27.4108 37.9108C26.8567 38.4649 26.5455 39.2164 26.5455 40C26.5455 40.7836 26.8567 41.5351 27.4108 42.0892C27.9649 42.6433 28.7164 42.9545 29.5 42.9545C30.2836 42.9545 31.0351 42.6433 31.5892 42.0892C32.1433 41.5351 32.4545 40.7836 32.4545 40C32.4545 39.2164 32.1433 38.4649 31.5892 37.9108C31.0351 37.3567 30.2836 37.0455 29.5 37.0455Z" fill="#EAEAEA"/>
</g>
<g filter="url(#filter2_d_4814_14298)">
<path d="M42.5 29H60.5C63.8137 29 66.5 31.6863 66.5 35V45C66.5 48.3137 63.8137 51 60.5 51H42.5V29Z" fill="#08203F" shape-rendering="crispEdges"/>
<path d="M52.5943 46C52.2206 46 51.847 45.965 51.4733 45.895C51.0996 45.825 50.742 45.72 50.4004 45.58C50.2829 45.53 50.1868 45.455 50.1121 45.355C50.0374 45.255 50 45.145 50 45.025C50 44.935 50.0214 44.85 50.0641 44.77C50.1068 44.69 50.1708 44.62 50.2562 44.56C51.0036 44.01 51.5801 43.335 51.9858 42.535C52.3915 41.735 52.5943 40.89 52.5943 40C52.5943 39.11 52.3889 38.2674 51.9781 37.4722C51.5673 36.677 50.988 35.9996 50.2402 35.44C50.1655 35.38 50.1068 35.31 50.0641 35.23C50.0214 35.15 50 35.065 50 34.975C50 34.855 50.0348 34.745 50.1044 34.645C50.174 34.545 50.2673 34.47 50.3843 34.42C50.7367 34.28 51.0996 34.175 51.4733 34.105C51.847 34.035 52.2206 34 52.5943 34C53.4804 34 54.3132 34.1576 55.0925 34.4728C55.8719 34.788 56.5498 35.2154 57.1263 35.755C57.7028 36.2946 58.1594 36.9296 58.4959 37.66C58.8324 38.3904 59.0004 39.1704 59 40C58.9996 40.8296 58.8313 41.6096 58.4952 42.34C58.1591 43.0704 57.7028 43.7054 57.1263 44.245C56.5498 44.7846 55.8719 45.2122 55.0925 45.5278C54.3132 45.8434 53.4804 46.0008 52.5943 46Z" fill="black" fill-opacity="0.15"/>
<path d="M52.5943 46C52.2206 46 51.847 45.965 51.4733 45.895C51.0996 45.825 50.742 45.72 50.4004 45.58C50.2829 45.53 50.1868 45.455 50.1121 45.355C50.0374 45.255 50 45.145 50 45.025C50 44.935 50.0214 44.85 50.0641 44.77C50.1068 44.69 50.1708 44.62 50.2562 44.56C51.0036 44.01 51.5801 43.335 51.9858 42.535C52.3915 41.735 52.5943 40.89 52.5943 40C52.5943 39.11 52.3889 38.2674 51.9781 37.4722C51.5673 36.677 50.988 35.9996 50.2402 35.44C50.1655 35.38 50.1068 35.31 50.0641 35.23C50.0214 35.15 50 35.065 50 34.975C50 34.855 50.0348 34.745 50.1044 34.645C50.174 34.545 50.2673 34.47 50.3843 34.42C50.7367 34.28 51.0996 34.175 51.4733 34.105C51.847 34.035 52.2206 34 52.5943 34C53.4804 34 54.3132 34.1576 55.0925 34.4728C55.8719 34.788 56.5498 35.2154 57.1263 35.755C57.7028 36.2946 58.1594 36.9296 58.4959 37.66C58.8324 38.3904 59.0004 39.1704 59 40C58.9996 40.8296 58.8313 41.6096 58.4952 42.34C58.1591 43.0704 57.7028 43.7054 57.1263 44.245C56.5498 44.7846 55.8719 45.2122 55.0925 45.5278C54.3132 45.8434 53.4804 46.0008 52.5943 46Z" fill="#EAEAEA"/>
</g>
</g>
<defs>
<filter id="filter0_dii_4814_14298" x="-5" y="-7" width="94" height="94" filterUnits="userSpaceOnUse" color-interpolation-filters="sRGB">
<feFlood flood-opacity="0" result="BackgroundImageFix"/>
<feColorMatrix in="SourceAlpha" type="matrix" values="0 0 0 0 0 0 0 0 0 0 0 0 0 0 0 0 0 0 127 0" result="hardAlpha"/>
<feOffset dy="2"/>
<feGaussianBlur stdDeviation="5"/>
<feComposite in2="hardAlpha" operator="out"/>
<feColorMatrix type="matrix" values="0 0 0 0 0 0 0 0 0 0 0 0 0 0 0 0 0 0 0.12 0"/>
<feBlend mode="normal" in2="BackgroundImageFix" result="effect1_dropShadow_4814_14298"/>
<feBlend mode="normal" in="SourceGraphic" in2="effect1_dropShadow_4814_14298" result="shape"/>
<feColorMatrix in="SourceAlpha" type="matrix" values="0 0 0 0 0 0 0 0 0 0 0 0 0 0 0 0 0 0 127 0" result="hardAlpha"/>
<feOffset dx="-2" dy="-2"/>
<feGaussianBlur stdDeviation="10"/>
<feComposite in2="hardAlpha" operator="arithmetic" k2="-1" k3="1"/>
<feColorMatrix type="matrix" values="0 0 0 0 1 0 0 0 0 1 0 0 0 0 1 0 0 0 0.9 0"/>
<feBlend mode="normal" in2="shape" result="effect2_innerShadow_4814_14298"/>
<feColorMatrix in="SourceAlpha" type="matrix" values="0 0 0 0 0 0 0 0 0 0 0 0 0 0 0 0 0 0 127 0" result="hardAlpha"/>
<feOffset dx="2" dy="2"/>
<feGaussianBlur stdDeviation="10"/>
<feComposite in2="hardAlpha" operator="arithmetic" k2="-1" k3="1"/>
<feColorMatrix type="matrix" values="0 0 0 0 1 0 0 0 0 1 0 0 0 0 1 0 0 0 1 0"/>
<feBlend mode="normal" in2="effect2_innerShadow_4814_14298" result="effect3_innerShadow_4814_14298"/>
</filter>
<filter id="filter1_d_4814_14298" x="7.5" y="21" width="44" height="42" filterUnits="userSpaceOnUse" color-interpolation-filters="sRGB">
<feFlood flood-opacity="0" result="BackgroundImageFix"/>
<feColorMatrix in="SourceAlpha" type="matrix" values="0 0 0 0 0 0 0 0 0 0 0 0 0 0 0 0 0 0 127 0" result="hardAlpha"/>
<feOffset dy="2"/>
<feGaussianBlur stdDeviation="5"/>
<feComposite in2="hardAlpha" operator="out"/>
<feColorMatrix type="matrix" values="0 0 0 0 0 0 0 0 0 0 0 0 0 0 0 0 0 0 0.12 0"/>
<feBlend mode="normal" in2="BackgroundImageFix" result="effect1_dropShadow_4814_14298"/>
<feBlend mode="normal" in="SourceGraphic" in2="effect1_dropShadow_4814_14298" result="shape"/>
</filter>
<filter id="filter2_d_4814_14298" x="32.5" y="21" width="44" height="42" filterUnits="userSpaceOnUse" color-interpolation-filters="sRGB">
<feFlood flood-opacity="0" result="BackgroundImageFix"/>
<feColorMatrix in="SourceAlpha" type="matrix" values="0 0 0 0 0 0 0 0 0 0 0 0 0 0 0 0 0 0 127 0" result="hardAlpha"/>
<feOffset dy="2"/>
<feGaussianBlur stdDeviation="5"/>
<feComposite in2="hardAlpha" operator="out"/>
<feColorMatrix type="matrix" values="0 0 0 0 0 0 0 0 0 0 0 0 0 0 0 0 0 0 0.12 0"/>
<feBlend mode="normal" in2="BackgroundImageFix" result="effect1_dropShadow_4814_14298"/>
<feBlend mode="normal" in="SourceGraphic" in2="effect1_dropShadow_4814_14298" result="shape"/>
</filter>
<linearGradient id="paint0_linear_4814_14298" x1="42" y1="8" x2="42" y2="72" gradientUnits="userSpaceOnUse">
<stop stop-color="white" stop-opacity="0.8"/>
<stop offset="1" stop-color="white" stop-opacity="0.3"/>
</linearGradient>
</defs>
</svg>
