<svg width="8" height="10" viewBox="0 0 8 10" fill="none" xmlns="http://www.w3.org/2000/svg">
<path d="M0 1.125C0 0.826631 0.118527 0.540483 0.329505 0.329505C0.540483 0.118526 0.826631 0 1.125 0H5.125C5.42337 0 5.70952 0.118526 5.9205 0.329505C6.13147 0.540483 6.25 0.826631 6.25 1.125V3.75H6.875C7.02274 3.75 7.16903 3.7791 7.30552 3.83564C7.44201 3.89217 7.56603 3.97504 7.6705 4.0795C7.77496 4.18397 7.85783 4.30799 7.91436 4.44448C7.9709 4.58097 8 4.72726 8 4.875V9.625C8 9.72446 7.96049 9.81984 7.89017 9.89017C7.81984 9.96049 7.72446 10 7.625 10H6.25V8.125C6.25 7.78 5.97 7.5 5.625 7.5H2.375C2.03 7.5 1.75 7.78 1.75 8.125V10H0.375C0.275544 10 0.180161 9.96049 0.109835 9.89017C0.0395088 9.81984 0 9.72446 0 9.625V1.125ZM5.5 8.25V10H4.375V8.25H5.5ZM3.625 8.25V10H2.5V8.25H3.625ZM1.75 2.25C1.75 2.38261 1.80268 2.50979 1.89645 2.60355C1.99021 2.69732 2.11739 2.75 2.25 2.75C2.38261 2.75 2.50979 2.69732 2.60355 2.60355C2.69732 2.50979 2.75 2.38261 2.75 2.25C2.75 2.11739 2.69732 1.99021 2.60355 1.89645C2.50979 1.80268 2.38261 1.75 2.25 1.75C2.11739 1.75 1.99021 1.80268 1.89645 1.89645C1.80268 1.99021 1.75 2.11739 1.75 2.25ZM2.25 5.25C2.11739 5.25 1.99021 5.30268 1.89645 5.39645C1.80268 5.49021 1.75 5.61739 1.75 5.75C1.75 5.88261 1.80268 6.00979 1.89645 6.10355C1.99021 6.19732 2.11739 6.25 2.25 6.25C2.38261 6.25 2.50979 6.19732 2.60355 6.10355C2.69732 6.00979 2.75 5.88261 2.75 5.75C2.75 5.61739 2.69732 5.49021 2.60355 5.39645C2.50979 5.30268 2.38261 5.25 2.25 5.25ZM2.25 3.5C2.11739 3.5 1.99021 3.55268 1.89645 3.64645C1.80268 3.74021 1.75 3.86739 1.75 4C1.75 4.13261 1.80268 4.25979 1.89645 4.35355C1.99021 4.44732 2.11739 4.5 2.25 4.5C2.38261 4.5 2.50979 4.44732 2.60355 4.35355C2.69732 4.25979 2.75 4.13261 2.75 4C2.75 3.86739 2.69732 3.74021 2.60355 3.64645C2.50979 3.55268 2.38261 3.5 2.25 3.5ZM4 1.75C3.86739 1.75 3.74021 1.80268 3.64645 1.89645C3.55268 1.99021 3.5 2.11739 3.5 2.25C3.5 2.38261 3.55268 2.50979 3.64645 2.60355C3.74021 2.69732 3.86739 2.75 4 2.75C4.13261 2.75 4.25979 2.69732 4.35355 2.60355C4.44732 2.50979 4.5 2.38261 4.5 2.25C4.5 2.11739 4.44732 1.99021 4.35355 1.89645C4.25979 1.80268 4.13261 1.75 4 1.75ZM4 5.25C3.86739 5.25 3.74021 5.30268 3.64645 5.39645C3.55268 5.49021 3.5 5.61739 3.5 5.75C3.5 5.88261 3.55268 6.00979 3.64645 6.10355C3.74021 6.19732 3.86739 6.25 4 6.25C4.13261 6.25 4.25979 6.19732 4.35355 6.10355C4.44732 6.00979 4.5 5.88261 4.5 5.75C4.5 5.61739 4.44732 5.49021 4.35355 5.39645C4.25979 5.30268 4.13261 5.25 4 5.25ZM5.75 5.25C5.61739 5.25 5.49021 5.30268 5.39645 5.39645C5.30268 5.49021 5.25 5.61739 5.25 5.75C5.25 5.88261 5.30268 6.00979 5.39645 6.10355C5.49021 6.19732 5.61739 6.25 5.75 6.25C5.88261 6.25 6.00979 6.19732 6.10355 6.10355C6.19732 6.00979 6.25 5.88261 6.25 5.75C6.25 5.61739 6.19732 5.49021 6.10355 5.39645C6.00979 5.30268 5.88261 5.25 5.75 5.25ZM4 3.5C3.86739 3.5 3.74021 3.55268 3.64645 3.64645C3.55268 3.74021 3.5 3.86739 3.5 4C3.5 4.13261 3.55268 4.25979 3.64645 4.35355C3.74021 4.44732 3.86739 4.5 4 4.5C4.13261 4.5 4.25979 4.44732 4.35355 4.35355C4.44732 4.25979 4.5 4.13261 4.5 4C4.5 3.86739 4.44732 3.74021 4.35355 3.64645C4.25979 3.55268 4.13261 3.5 4 3.5Z" fill="black"/>
</svg>
