<svg width="10" height="9" viewBox="0 0 10 9" fill="none" xmlns="http://www.w3.org/2000/svg">
<path d="M0.625 0.9C0.625 0.661305 0.723772 0.432387 0.899587 0.263604C1.0754 0.0948212 1.31386 0 1.5625 0H8.4375C8.68614 0 8.9246 0.0948212 9.10041 0.263604C9.27623 0.432387 9.375 0.661305 9.375 0.9V5.1C9.375 5.3387 9.27623 5.56761 9.10041 5.7364C8.9246 5.90518 8.68614 6 8.4375 6H5V3C5 2.68174 4.8683 2.37652 4.63388 2.15147C4.39946 1.92643 4.08152 1.8 3.75 1.8H0.625V0.9ZM5 7.2H9.6875C9.77038 7.2 9.84987 7.16839 9.90847 7.11213C9.96708 7.05587 10 6.97957 10 6.9C10 6.82044 9.96708 6.74413 9.90847 6.68787C9.84987 6.63161 9.77038 6.6 9.6875 6.6H5V7.2ZM0 3.3C0 3.06131 0.0987721 2.83239 0.274587 2.6636C0.450403 2.49482 0.68886 2.4 0.9375 2.4H3.4375C3.68614 2.4 3.9246 2.49482 4.10041 2.6636C4.27623 2.83239 4.375 3.06131 4.375 3.3V8.1C4.375 8.3387 4.27623 8.56761 4.10041 8.7364C3.9246 8.90518 3.68614 9 3.4375 9H0.9375C0.68886 9 0.450403 8.90518 0.274587 8.7364C0.0987721 8.56761 0 8.3387 0 8.1V3.3ZM1.875 7.2C1.79212 7.2 1.71263 7.23161 1.65403 7.28787C1.59542 7.34413 1.5625 7.42044 1.5625 7.5C1.5625 7.57957 1.59542 7.65587 1.65403 7.71213C1.71263 7.76839 1.79212 7.8 1.875 7.8H2.5C2.58288 7.8 2.66237 7.76839 2.72097 7.71213C2.77958 7.65587 2.8125 7.57957 2.8125 7.5C2.8125 7.42044 2.77958 7.34413 2.72097 7.28787C2.66237 7.23161 2.58288 7.2 2.5 7.2H1.875Z" fill="black"/>
</svg>
