<svg style="display: none;" xmlns="http://www.w3.org/2000/svg">

  <symbol id="plus-16" viewBox="0 0 16 16">
    <ns0:path xmlns:ns0="http://www.w3.org/2000/svg" d="M8 2V14M2 8H14" stroke="black" stroke-width="1.3" />
  </symbol>
  <symbol id="info-16" viewBox="0 0 16 16">
    <ns0:path xmlns:ns0="http://www.w3.org/2000/svg" d="M8 11.5C8.19833 11.5 8.3647 11.4328 8.4991 11.2984C8.6335 11.164 8.70046 10.9979 8.7 10.8V8C8.7 7.80166 8.6328 7.63553 8.4984 7.5016C8.364 7.36767 8.19786 7.30046 8 7.3C7.80213 7.29953 7.636 7.36673 7.5016 7.5016C7.3672 7.63646 7.3 7.8026 7.3 8V10.8C7.3 10.9983 7.3672 11.1647 7.5016 11.2991C7.636 11.4335 7.80213 11.5005 8 11.5ZM8 5.9C8.19833 5.9 8.3647 5.8328 8.4991 5.6984C8.6335 5.564 8.70046 5.39787 8.7 5.2C8.69953 5.00213 8.63233 4.836 8.4984 4.7016C8.36446 4.5672 8.19833 4.5 8 4.5C7.80166 4.5 7.63553 4.5672 7.5016 4.7016C7.36766 4.836 7.30046 5.00213 7.3 5.2C7.29953 5.39787 7.36673 5.56423 7.5016 5.6991C7.63646 5.83397 7.8026 5.90093 8 5.9ZM8 15C7.03166 15 6.12166 14.8161 5.27 14.4484C4.41833 14.0807 3.6775 13.582 3.0475 12.9525C2.4175 12.323 1.91887 11.5821 1.5516 10.73C1.18433 9.87786 1.00047 8.96786 1 8C0.999534 7.03213 1.1834 6.12213 1.5516 5.27C1.9198 4.41787 2.41843 3.67703 3.0475 3.0475C3.67657 2.41797 4.4174 1.91933 5.27 1.5516C6.1226 1.18387 7.0326 1 8 1C8.9674 1 9.87739 1.18387 10.73 1.5516C11.5826 1.91933 12.3234 2.41797 12.9525 3.0475C13.5816 3.67703 14.0804 4.41787 14.4491 5.27C14.8178 6.12213 15.0014 7.03213 15 8C14.9986 8.96786 14.8147 9.87786 14.4484 10.73C14.0821 11.5821 13.5834 12.323 12.9525 12.9525C12.3216 13.582 11.5807 14.0809 10.73 14.4491C9.87926 14.8173 8.96926 15.0009 8 15Z" fill="currentColor" fill-opacity="0.4" />
  </symbol>
  <symbol id="stars-16" viewBox="0 0 16 16">
    <ns0:path xmlns:ns0="http://www.w3.org/2000/svg" d="M10.1678 7.12597C9.50983 6.33931 9.18116 5.94597 8.8025 6.00597C8.4245 6.06664 8.24783 6.54131 7.8945 7.49064L7.8025 7.73597C7.7025 8.00597 7.65183 8.14064 7.55383 8.23997C7.4565 8.33931 7.32183 8.39197 7.05383 8.49731L6.80916 8.59264C5.8645 8.96264 5.39183 9.14797 5.33783 9.52597C5.28383 9.90397 5.6845 10.2253 6.48516 10.8666L6.69183 11.0333C6.91983 11.2153 7.03383 11.3066 7.09916 11.4313C7.16583 11.556 7.17583 11.7006 7.1965 11.9893L7.21583 12.252C7.28916 13.2673 7.3265 13.7753 7.67116 13.9486C8.01583 14.122 8.4405 13.8453 9.28916 13.2933L9.5085 13.15C9.74983 12.9933 9.8705 12.9146 10.0085 12.892C10.1472 12.87 10.2885 12.9066 10.5692 12.98L10.8258 13.0466C11.8158 13.304 12.3112 13.4333 12.5785 13.162C12.8458 12.8906 12.7072 12.3993 12.4312 11.4153L12.3592 11.162C12.2812 10.882 12.2418 10.742 12.2612 10.604C12.2812 10.4653 12.3578 10.344 12.5105 10.1L12.6505 9.87864C13.1885 9.02197 13.4572 8.59397 13.2772 8.25331C13.0978 7.91264 12.5885 7.88464 11.5692 7.82997L11.3052 7.81531C11.0158 7.79997 10.8705 7.79197 10.7445 7.72864C10.6178 7.66531 10.5245 7.55331 10.3378 7.32931L10.1678 7.12597Z" fill="currentColor" />
  <ns0:path xmlns:ns0="http://www.w3.org/2000/svg" d="M9.91871 3.44468L10.0407 3.79268C10.1747 4.17468 10.242 4.36602 10.372 4.50602C10.5027 4.64735 10.6814 4.72202 11.0394 4.87068L11.3654 5.00668C12.6254 5.53068 13.2554 5.79335 13.3267 6.32868C13.3567 6.55135 13.282 6.76068 13.1067 6.99402C13.0507 6.97885 12.9942 6.96551 12.9374 6.95402C12.5867 6.88268 12.1407 6.85868 11.686 6.83402L11.3594 6.81668L11.206 6.80802L11.1054 6.68802L10.8947 6.43668C10.6014 6.08468 10.3147 5.74135 10.0467 5.50268C9.76204 5.24802 9.28604 4.91602 8.64471 5.01868C7.99671 5.12268 7.65138 5.59402 7.46471 5.93002C7.29204 6.24202 7.13671 6.65935 6.97938 7.08135L6.86604 7.38668L6.81805 7.51535C6.78249 7.52868 6.7396 7.54557 6.68938 7.56602L6.38538 7.68468C5.96538 7.84935 5.55004 8.01135 5.24071 8.18935C4.90871 8.38068 4.44071 8.73402 4.34804 9.38468C4.25671 10.0294 4.60004 10.5 4.85938 10.7794C5.05271 10.9867 5.31338 11.206 5.59138 11.4314C4.54538 11.7147 3.98938 11.8207 3.67338 11.4794C3.31738 11.0954 3.50138 10.3994 3.87004 9.00602L3.96471 8.64602C4.06938 8.24935 4.12204 8.05202 4.09604 7.85535C4.06938 7.65935 3.96738 7.48668 3.76338 7.14202L3.57804 6.82868C2.86004 5.61468 2.50138 5.00802 2.74004 4.52468C2.98004 4.04202 3.65938 4.00268 5.01871 3.92468L5.37005 3.90468C5.75671 3.88202 5.94938 3.87135 6.11804 3.78135C6.28604 3.69135 6.41071 3.53335 6.66004 3.21602L6.88671 2.92802C7.76404 1.81268 8.20271 1.25535 8.70671 1.34135C9.21071 1.42735 9.44671 2.09935 9.91804 3.44402" fill="currentColor" />
  </symbol>
  <symbol id="later-payment-12" viewBox="0 0 12 12">
    <ns0:path xmlns:ns0="http://www.w3.org/2000/svg" fill-rule="evenodd" clip-rule="evenodd" d="M8.75 4.28516C8.58671 4.2618 8.41975 4.25 8.25 4.25C6.4868 4.25 5.02879 5.5539 4.78613 7.25H1.89258C1.26155 7.24986 0.75005 6.76154 0.75 6.15918V3.43164H8.75V4.28516ZM2.17871 5.61328C2.02092 5.61328 1.89258 5.7361 1.89258 5.88672C1.89278 6.03718 2.02104 6.15918 2.17871 6.15918H3.32129C3.47896 6.15918 3.60722 6.03718 3.60742 5.88672C3.60742 5.7361 3.47908 5.61328 3.32129 5.61328H2.17871ZM2.17871 4.52246C2.02092 4.52246 1.89258 4.64528 1.89258 4.7959C1.89283 4.94632 2.02107 5.06836 2.17871 5.06836H4.46387C4.62151 5.06836 4.74975 4.94632 4.75 4.7959C4.75 4.64528 4.62166 4.52246 4.46387 4.52246H2.17871Z" fill="currentColor" />
  <ns0:path xmlns:ns0="http://www.w3.org/2000/svg" d="M7.60742 1.25C8.23845 1.25014 8.74995 1.73846 8.75 2.34082V2.61328H0.75V2.34082C0.75005 1.73846 1.26155 1.25014 1.89258 1.25H7.60742Z" fill="currentColor" />
  <ns0:path xmlns:ns0="http://www.w3.org/2000/svg" d="M8.25 4.75C6.59322 4.75 5.25 6.09322 5.25 7.75C5.25 9.40678 6.59322 10.75 8.25 10.75C9.90678 10.75 11.25 9.40678 11.25 7.75C11.25 6.09322 9.90678 4.75 8.25 4.75ZM9.63461 8.21154H8.25C8.1888 8.21154 8.1301 8.18723 8.08682 8.14395C8.04354 8.10067 8.01923 8.04197 8.01923 7.98077V5.90385C8.01923 5.84264 8.04354 5.78395 8.08682 5.74067C8.1301 5.69739 8.1888 5.67308 8.25 5.67308C8.3112 5.67308 8.3699 5.69739 8.41318 5.74067C8.45646 5.78395 8.48077 5.84264 8.48077 5.90385V7.75H9.63461C9.69582 7.75 9.75452 7.77431 9.79779 7.81759C9.84107 7.86087 9.86539 7.91957 9.86539 7.98077C9.86539 8.04197 9.84107 8.10067 9.79779 8.14395C9.75452 8.18723 9.69582 8.21154 9.63461 8.21154Z" fill="currentColor" />
  </symbol>
  <symbol id="sparkles-20" viewBox="0 0 20 20">
    <ns0:path xmlns:ns0="http://www.w3.org/2000/svg" d="M7.18569 13.3578C7.32656 13.4573 7.48779 13.5242 7.65771 13.5537C7.82763 13.5832 8.00197 13.5745 8.16812 13.5283C8.33426 13.482 8.48804 13.3994 8.61833 13.2865C8.74861 13.1735 8.85214 13.0329 8.9214 12.875L9.4714 11.2036C9.60517 10.8014 9.83076 10.436 10.1303 10.1362C10.4298 9.83641 10.7951 9.61052 11.1971 9.47642L12.7957 8.95713C13.0229 8.87809 13.2194 8.72936 13.3571 8.53213C13.4635 8.38261 13.5328 8.20993 13.5592 8.02836C13.5857 7.84678 13.5686 7.66151 13.5094 7.48784C13.4501 7.31417 13.3504 7.15708 13.2185 7.02953C13.0866 6.90198 12.9263 6.80764 12.7507 6.75428L11.1685 6.23999C10.7663 6.10656 10.4007 5.88127 10.1006 5.58197C9.8006 5.28268 9.5744 4.91761 9.43997 4.5157L8.92069 2.91785C8.84084 2.69146 8.69257 2.4955 8.4964 2.35713C8.29907 2.22106 8.06503 2.14819 7.82533 2.14819C7.58563 2.14819 7.35159 2.22106 7.15426 2.35713C6.95506 2.498 6.80514 2.69789 6.72569 2.92856L6.19997 4.54642C6.06586 4.93789 5.84447 5.29373 5.55255 5.58701C5.26062 5.8803 4.90582 6.10335 4.51497 6.23928L2.91497 6.75785C2.6873 6.83833 2.49037 6.98777 2.35159 7.18539C2.21281 7.383 2.13908 7.61896 2.14065 7.86043C2.14222 8.10191 2.21902 8.33689 2.36036 8.53268C2.5017 8.72847 2.70056 8.87534 2.92926 8.95285L4.51212 9.46713C5.02529 9.63935 5.47642 9.95882 5.80926 10.3857C5.99926 10.6307 6.14569 10.9057 6.24212 11.2L6.76212 12.7957C6.84212 13.0228 6.99069 13.2193 7.18712 13.3578M14.1471 17.7007C14.2925 17.8034 14.4662 17.8584 14.6443 17.8578C14.8211 17.8584 14.9937 17.8043 15.1385 17.7028C15.2877 17.5976 15.3993 17.4474 15.4571 17.2743L15.7228 16.4578C15.779 16.2883 15.8739 16.1343 16 16.0078C16.1261 15.8813 16.2799 15.786 16.4493 15.7293L17.2821 15.4593C17.4501 15.3996 17.5955 15.2895 17.6984 15.144C17.8014 14.9984 17.8568 14.8247 17.8571 14.6464C17.8571 14.4635 17.7986 14.2854 17.6901 14.1381C17.5817 13.9908 17.4289 13.8821 17.2543 13.8278L16.4371 13.5636C16.2675 13.5073 16.1134 13.4123 15.9869 13.2861C15.8605 13.1598 15.7652 13.0059 15.7085 12.8364L15.4371 12.0057C15.3786 11.8362 15.2683 11.6892 15.1219 11.5857C14.9755 11.4821 14.8002 11.427 14.6209 11.4283C14.4415 11.4296 14.2671 11.4871 14.1221 11.5927C13.9771 11.6983 13.869 11.8468 13.8128 12.0171L13.5457 12.8357C13.4909 13.003 13.3985 13.1555 13.2756 13.2814C13.1526 13.4074 13.0023 13.5034 12.8364 13.5621L12.0035 13.8321C11.8352 13.8916 11.6894 14.0017 11.5862 14.1474C11.483 14.2931 11.4274 14.4672 11.4271 14.6457C11.4273 14.8258 11.4842 15.0012 11.5897 15.1471C11.6952 15.293 11.844 15.402 12.015 15.4586L12.8321 15.7243C13.0024 15.7804 13.157 15.8758 13.2836 16.0027C13.4101 16.1297 13.5051 16.2846 13.5607 16.455L13.8314 17.2857C13.8905 17.4535 14.0003 17.5988 14.1457 17.7014" fill="currentColor" fill-opacity="0.9" />
  </symbol>
  <symbol id="dialogue-20" viewBox="0 0 20 20">
    <ns0:path xmlns:ns0="http://www.w3.org/2000/svg" fill-rule="evenodd" clip-rule="evenodd" d="M10 2.5C14.1375 2.5 17.5 4.23818 17.5 8.58952C17.4999 12.9533 14.1375 14.6913 10 14.6913C9.8825 14.6913 9.7651 14.6897 9.64844 14.6864L4.08569 17.4619C3.9989 17.4991 3.90249 17.5095 3.80981 17.4912C3.71723 17.4728 3.63175 17.4268 3.56567 17.3593V17.3642C3.50058 17.2962 3.45743 17.2103 3.44116 17.1175C3.42491 17.0244 3.43686 16.9279 3.47534 16.8416L5 13.4787C3.46753 12.5159 2.50004 10.9277 2.5 8.58952C2.5 4.23818 5.8625 2.5 10 2.5ZM6.875 7.50154C6.35723 7.50154 5.9375 7.9214 5.9375 8.43933C5.9375 8.95726 6.35723 9.37712 6.875 9.37712C7.39277 9.37712 7.8125 8.95726 7.8125 8.43933C7.8125 7.9214 7.39277 7.50154 6.875 7.50154ZM10 7.50154C9.48223 7.50154 9.0625 7.9214 9.0625 8.43933C9.0625 8.95726 9.48223 9.37712 10 9.37712C10.5178 9.37712 10.9375 8.95726 10.9375 8.43933C10.9375 7.9214 10.5178 7.50154 10 7.50154ZM13.125 7.50154C12.6072 7.50154 12.1875 7.9214 12.1875 8.43933C12.1875 8.95726 12.6072 9.37712 13.125 9.37712C13.6428 9.37712 14.0625 8.95726 14.0625 8.43933C14.0625 7.9214 13.6428 7.50154 13.125 7.50154Z" fill="currentColor" fill-opacity="0.4" />
  </symbol>
  <symbol id="layers-12" viewBox="0 0 12 12">
    <ns0:path xmlns:ns0="http://www.w3.org/2000/svg" d="M6.69468 1.71393L9.87718 3.83543C9.94566 3.88109 10.0018 3.94295 10.0406 4.01552C10.0795 4.08809 10.0998 4.16912 10.0998 4.25143C10.0998 4.33373 10.0795 4.41477 10.0406 4.48734C10.0018 4.5599 9.94566 4.62177 9.87718 4.66743L6.69468 6.78943C6.48932 6.92637 6.24801 6.99945 6.00118 6.99945C5.75435 6.99945 5.51304 6.92637 5.30768 6.78943L2.12518 4.66743C2.0567 4.62177 2.00055 4.5599 1.96172 4.48734C1.92289 4.41477 1.90257 4.33373 1.90257 4.25143C1.90257 4.16912 1.92289 4.08809 1.96172 4.01552C2.00055 3.94295 2.0567 3.88109 2.12518 3.83543L5.30768 1.71393C5.51304 1.57698 5.75435 1.50391 6.00118 1.50391C6.24801 1.50391 6.48932 1.57698 6.69468 1.71393ZM10.0142 6.09743C9.94001 6.21619 9.84172 6.31806 9.72568 6.39643L6.70068 8.43843C6.49407 8.57793 6.25047 8.65247 6.00118 8.65247C5.75189 8.65247 5.50829 8.57793 5.30168 8.43843L2.27668 6.39643C2.09563 6.27429 1.95955 6.09624 1.88922 5.88948C1.81888 5.68273 1.81817 5.45863 1.88718 5.25143L5.30768 7.53143C5.49971 7.65939 5.72341 7.73171 5.95401 7.74036C6.18461 7.749 6.41311 7.69365 6.61418 7.58043L6.69418 7.53143L10.1147 5.25143C10.1613 5.39114 10.1764 5.53942 10.159 5.68566C10.1417 5.83191 10.0922 5.97251 10.0142 6.09743ZM10.0142 7.72243C9.94001 7.84119 9.84172 7.94306 9.72568 8.02143L6.70068 10.0634C6.49407 10.2029 6.25047 10.2775 6.00118 10.2775C5.75189 10.2775 5.50829 10.2029 5.30168 10.0634L2.27668 8.02143C2.09563 7.89929 1.95955 7.72124 1.88922 7.51448C1.81888 7.30773 1.81817 7.08363 1.88718 6.87643L5.30768 9.15643C5.49971 9.28439 5.72341 9.35671 5.95401 9.36536C6.18461 9.37401 6.41311 9.31865 6.61418 9.20543L6.69418 9.15643L10.1147 6.87643C10.1613 7.01614 10.1764 7.16442 10.159 7.31066C10.1417 7.45691 10.0922 7.59751 10.0142 7.72243Z" fill="currentColor" />
  </symbol>
  <symbol id="handshake-12" viewBox="0 0 12 12">
    <ns0:path xmlns:ns0="http://www.w3.org/2000/svg" d="M10.1999 5.84375V5.9082L11.5068 4.54687C11.9174 4.11914 11.9174 3.42773 11.5068 3L10.0424 1.47656C9.63178 1.04883 8.96803 1.04883 8.5574 1.47656L7.80553 2.25977C7.7549 2.25391 7.7024 2.25 7.6499 2.25H5.5499C4.85428 2.25 4.2824 2.79687 4.2074 3.5H4.1999V5.84375C4.1999 6.27539 4.53553 6.625 4.9499 6.625C5.36428 6.625 5.6999 6.27539 5.6999 5.84375V4.125H8.6999C9.52865 4.125 10.1999 4.82422 10.1999 5.6875V5.84375ZM6.2999 4.75V5.84375C6.2999 6.62109 5.69615 7.25 4.9499 7.25C4.20365 7.25 3.5999 6.62109 3.5999 5.84375V3.52734C2.92678 3.64844 2.36615 4.1582 2.1749 4.85937L1.86553 5.98437L0.493027 7.41406C0.0824023 7.8418 0.0824023 8.5332 0.493027 8.96094L1.9574 10.4863C2.36803 10.9141 3.03178 10.9141 3.4424 10.4863L4.14928 9.75C4.16615 9.75 4.18303 9.75195 4.1999 9.75195H7.1999C7.69678 9.75195 8.0999 9.33203 8.0999 8.81445C8.0999 8.70508 8.08115 8.59961 8.04928 8.50195H8.0999C8.59678 8.50195 8.9999 8.08203 8.9999 7.56445C8.9999 7.31445 8.90615 7.08789 8.7524 6.91992C9.23428 6.82227 9.59803 6.38086 9.5999 5.84961V5.8418C9.59803 5.24023 9.12928 4.75195 8.5499 4.75195H6.2999V4.75Z" fill="currentColor" />
  </symbol>
  <symbol id="percent-12" viewBox="0 0 12 12">
    <ns0:path xmlns:ns0="http://www.w3.org/2000/svg" d="M4.125 5.46875C5.16127 5.46875 6 4.63701 6 3.60938C6 2.58174 5.16127 1.75 4.125 1.75C3.08873 1.75 2.25 2.58174 2.25 3.60938C2.25 4.63701 3.08873 5.46875 4.125 5.46875ZM4.125 2.8125C4.56864 2.8125 4.92857 3.16943 4.92857 3.60938C4.92857 4.04932 4.56864 4.40625 4.125 4.40625C3.68136 4.40625 3.32143 4.04932 3.32143 3.60938C3.32143 3.16943 3.68136 2.8125 4.125 2.8125ZM7.875 6.53125C6.83873 6.53125 6 7.36299 6 8.39062C6 9.41826 6.83873 10.25 7.875 10.25C8.91127 10.25 9.75 9.41826 9.75 8.39062C9.75 7.36299 8.91127 6.53125 7.875 6.53125ZM7.875 9.1875C7.43136 9.1875 7.07143 8.83057 7.07143 8.39062C7.07143 7.95068 7.43136 7.59375 7.875 7.59375C8.31864 7.59375 8.67857 7.95068 8.67857 8.39062C8.67857 8.83057 8.31864 9.1875 7.875 9.1875ZM8.81752 1.75332L9.34654 1.75166C9.67132 1.75 9.86384 2.11357 9.67634 2.3792L3.54576 10.0773C3.50879 10.1296 3.45968 10.1723 3.40256 10.2018C3.34545 10.2313 3.28202 10.2467 3.21763 10.2467L2.65848 10.2483C2.33203 10.2483 2.14118 9.88477 2.32868 9.6208L8.4894 1.92266C8.56473 1.81641 8.68694 1.75332 8.81752 1.75332Z" fill="currentColor" />
  </symbol>
  <symbol id="career-12" viewBox="0 0 12 12">
    <ns0:path xmlns:ns0="http://www.w3.org/2000/svg" d="M2 2.125C2 1.82663 2.11853 1.54048 2.3295 1.3295C2.54048 1.11853 2.82663 1 3.125 1H7.125C7.42337 1 7.70952 1.11853 7.9205 1.3295C8.13147 1.54048 8.25 1.82663 8.25 2.125V4.75H8.875C9.02274 4.75 9.16903 4.7791 9.30552 4.83564C9.44201 4.89217 9.56603 4.97504 9.6705 5.0795C9.77496 5.18397 9.85783 5.30799 9.91436 5.44448C9.9709 5.58097 10 5.72726 10 5.875V10.625C10 10.7245 9.96049 10.8198 9.89017 10.8902C9.81984 10.9605 9.72446 11 9.625 11H8.25V9.125C8.25 8.78 7.97 8.5 7.625 8.5H4.375C4.03 8.5 3.75 8.78 3.75 9.125V11H2.375C2.27554 11 2.18016 10.9605 2.10983 10.8902C2.03951 10.8198 2 10.7245 2 10.625V2.125ZM7.5 9.25V11H6.375V9.25H7.5ZM5.625 9.25V11H4.5V9.25H5.625ZM3.75 3.25C3.75 3.38261 3.80268 3.50979 3.89645 3.60355C3.99021 3.69732 4.11739 3.75 4.25 3.75C4.38261 3.75 4.50979 3.69732 4.60355 3.60355C4.69732 3.50979 4.75 3.38261 4.75 3.25C4.75 3.11739 4.69732 2.99021 4.60355 2.89645C4.50979 2.80268 4.38261 2.75 4.25 2.75C4.11739 2.75 3.99021 2.80268 3.89645 2.89645C3.80268 2.99021 3.75 3.11739 3.75 3.25ZM4.25 6.25C4.11739 6.25 3.99021 6.30268 3.89645 6.39645C3.80268 6.49021 3.75 6.61739 3.75 6.75C3.75 6.88261 3.80268 7.00979 3.89645 7.10355C3.99021 7.19732 4.11739 7.25 4.25 7.25C4.38261 7.25 4.50979 7.19732 4.60355 7.10355C4.69732 7.00979 4.75 6.88261 4.75 6.75C4.75 6.61739 4.69732 6.49021 4.60355 6.39645C4.50979 6.30268 4.38261 6.25 4.25 6.25ZM4.25 4.5C4.11739 4.5 3.99021 4.55268 3.89645 4.64645C3.80268 4.74021 3.75 4.86739 3.75 5C3.75 5.13261 3.80268 5.25979 3.89645 5.35355C3.99021 5.44732 4.11739 5.5 4.25 5.5C4.38261 5.5 4.50979 5.44732 4.60355 5.35355C4.69732 5.25979 4.75 5.13261 4.75 5C4.75 4.86739 4.69732 4.74021 4.60355 4.64645C4.50979 4.55268 4.38261 4.5 4.25 4.5ZM6 2.75C5.86739 2.75 5.74021 2.80268 5.64645 2.89645C5.55268 2.99021 5.5 3.11739 5.5 3.25C5.5 3.38261 5.55268 3.50979 5.64645 3.60355C5.74021 3.69732 5.86739 3.75 6 3.75C6.13261 3.75 6.25979 3.69732 6.35355 3.60355C6.44732 3.50979 6.5 3.38261 6.5 3.25C6.5 3.11739 6.44732 2.99021 6.35355 2.89645C6.25979 2.80268 6.13261 2.75 6 2.75ZM6 6.25C5.86739 6.25 5.74021 6.30268 5.64645 6.39645C5.55268 6.49021 5.5 6.61739 5.5 6.75C5.5 6.88261 5.55268 7.00979 5.64645 7.10355C5.74021 7.19732 5.86739 7.25 6 7.25C6.13261 7.25 6.25979 7.19732 6.35355 7.10355C6.44732 7.00979 6.5 6.88261 6.5 6.75C6.5 6.61739 6.44732 6.49021 6.35355 6.39645C6.25979 6.30268 6.13261 6.25 6 6.25ZM7.75 6.25C7.61739 6.25 7.49021 6.30268 7.39645 6.39645C7.30268 6.49021 7.25 6.61739 7.25 6.75C7.25 6.88261 7.30268 7.00979 7.39645 7.10355C7.49021 7.19732 7.61739 7.25 7.75 7.25C7.88261 7.25 8.00979 7.19732 8.10355 7.10355C8.19732 7.00979 8.25 6.88261 8.25 6.75C8.25 6.61739 8.19732 6.49021 8.10355 6.39645C8.00979 6.30268 7.88261 6.25 7.75 6.25ZM6 4.5C5.86739 4.5 5.74021 4.55268 5.64645 4.64645C5.55268 4.74021 5.5 4.86739 5.5 5C5.5 5.13261 5.55268 5.25979 5.64645 5.35355C5.74021 5.44732 5.86739 5.5 6 5.5C6.13261 5.5 6.25979 5.44732 6.35355 5.35355C6.44732 5.25979 6.5 5.13261 6.5 5C6.5 4.86739 6.44732 4.74021 6.35355 4.64645C6.25979 4.55268 6.13261 4.5 6 4.5Z" fill="currentColor" />
  </symbol>
  <symbol id="yandex-20" viewBox="0 0 20 20">
    <ns0:path xmlns:ns0="http://www.w3.org/2000/svg" d="M3.54376 0C1.58064 0 0 1.58064 0 3.54376V16.4563C0 18.4194 1.58064 20 3.54376 20H13.0475L20 10.0025L13.0475 2e-05L3.54376 0ZM8.86564 3.65126H11.1238C11.2624 3.65126 11.3419 3.70196 11.3419 3.82126V16.2663C11.3419 16.3509 11.302 16.4019 11.1831 16.4019H9.955C9.87632 16.4019 9.81688 16.334 9.81688 16.2831V11.6756H8.82562L6.0725 16.2831C6.03298 16.3679 5.95386 16.4019 5.835 16.4019H4.42874C4.27074 16.4019 4.17166 16.2831 4.27062 16.13L7.30062 11.4375C5.67688 10.8255 4.76562 9.58438 4.76562 7.90124C4.76562 5.09596 6.64744 3.65124 8.86562 3.65124L8.86564 3.65126ZM8.80626 4.73876C7.59802 4.73876 6.40938 5.6058 6.40938 7.73126C6.40938 9.77148 7.67716 10.5875 8.98438 10.5875H9.81688V4.73876H8.80626Z" fill="currentColor" />
  </symbol>
  <symbol id="speed-20" viewBox="0 0 20 20">
    <ns0:path xmlns:ns0="http://www.w3.org/2000/svg" fill-rule="evenodd" clip-rule="evenodd" d="M6.94012 2.95047C7.06682 2.67644 7.34916 2.5 7.66199 2.5H13.9007C14.4873 2.5 14.8698 3.09312 14.607 3.59766L12.8324 7.00475H15.4587C16.1626 7.00475 16.5145 7.82161 16.0171 8.29911L6.66874 17.2733C6.07904 17.8394 5.09673 17.2568 5.36108 16.4977L7.35385 10.7587H4.53988C4.40829 10.7587 4.27879 10.7271 4.16313 10.6669C4.04747 10.6066 3.94933 10.5196 3.87762 10.4137C3.8059 10.3077 3.76288 10.1863 3.75248 10.0604C3.74207 9.93445 3.76459 9.80802 3.81801 9.69258L6.94012 2.95047Z" fill="currentColor" />
  </symbol>
  <symbol id="community-12" viewBox="0 0 12 12">
    <ns0:path xmlns:ns0="http://www.w3.org/2000/svg" fill-rule="evenodd" clip-rule="evenodd" d="M8.65043 6.12395C8.18379 6.12395 7.74581 6.21638 7.37741 6.37311C8.6668 6.73881 9.57962 7.61489 9.60418 8.63966C10.2755 8.55527 11 8.30611 11 7.62695C11 6.81115 9.92346 6.12395 8.65043 6.12395Z" fill="currentColor" />
  <ns0:path xmlns:ns0="http://www.w3.org/2000/svg" fill-rule="evenodd" clip-rule="evenodd" d="M8.63814 5.54527H8.64633C9.51821 5.54527 10.2304 4.84601 10.2304 3.99405C10.2304 3.13806 9.51821 2.43881 8.64633 2.43881C8.47441 2.43881 8.31068 2.46694 8.15513 2.51517C8.43757 2.92507 8.6013 3.41937 8.6013 3.95386C8.6054 4.49639 8.43348 5.01882 8.1101 5.45284C8.27793 5.51312 8.45394 5.54527 8.63814 5.54527Z" fill="currentColor" />
  <ns0:path xmlns:ns0="http://www.w3.org/2000/svg" fill-rule="evenodd" clip-rule="evenodd" d="M4.6185 6.36909C4.2501 6.21638 3.81211 6.12395 3.34957 6.12395C2.07654 6.12395 1 6.81115 1 7.62695C1 8.30611 1.72043 8.55125 2.39173 8.63966C2.4122 7.61489 3.32501 6.73881 4.6185 6.36909Z" fill="currentColor" />
  <ns0:path xmlns:ns0="http://www.w3.org/2000/svg" fill-rule="evenodd" clip-rule="evenodd" d="M3.34957 5.54527H3.36185C3.54605 5.54527 3.72206 5.51312 3.88989 5.45284C3.5788 5.03489 3.3946 4.51648 3.3946 3.95386C3.3946 3.41937 3.55833 2.92507 3.84077 2.51517C3.68522 2.46694 3.52149 2.43881 3.34957 2.43881C2.47769 2.43881 1.76955 3.13806 1.76955 3.99405C1.76955 4.84601 2.47769 5.54527 3.34957 5.54527Z" fill="currentColor" />
  <ns0:path xmlns:ns0="http://www.w3.org/2000/svg" fill-rule="evenodd" clip-rule="evenodd" d="M5.99779 6.78182C4.37642 6.78182 3.00639 7.64826 3.00639 8.67383C3.00639 10 5.25772 10 5.99779 10C7.28228 10 8.99001 9.86336 8.99001 8.68227C8.99001 7.65187 7.61957 6.78182 5.99779 6.78182Z" fill="currentColor" />
  <ns0:path xmlns:ns0="http://www.w3.org/2000/svg" fill-rule="evenodd" clip-rule="evenodd" d="M5.99819 5.90939H6.0117C6.54179 5.90779 7.03954 5.70323 7.41285 5.33391C7.78657 4.9646 7.99123 4.47472 7.98919 3.9551C7.98919 2.87688 7.09643 2 5.99819 2C4.90036 2 4.00761 2.87688 4.00761 3.9551C4.00761 5.03251 4.90036 5.90939 5.99819 5.90939Z" fill="currentColor" />
  </symbol>
  <symbol id="arrow-right-16-1" viewBox="0 0 16 16">
    <ns0:path xmlns:ns0="http://www.w3.org/2000/svg" d="M6 3L11 8L6 13" stroke="black" stroke-opacity="0.3" stroke-width="1.5" />
  </symbol>
  <symbol id="arrow-diagonal-20" viewBox="0 0 20 20">
    <ns0:path xmlns:ns0="http://www.w3.org/2000/svg" d="M13.2019 8.03559L13.2019 14.9652L14.9497 14.9498L14.9497 5.05027L5.05025 5.05027L5.03479 6.79815L11.9644 6.79815L4.43154 14.331L5.66897 15.5685L13.2019 8.03559Z" fill="currentColor" />
  </symbol>
  <symbol id="graphic-20" viewBox="0 0 20 20">
    <ns0:path xmlns:ns0="http://www.w3.org/2000/svg" fill-rule="evenodd" clip-rule="evenodd" d="M11.6089 5.65994C11.3819 5.46194 10.7919 5.29494 10.0069 5.78894C7.49893 7.36895 5.31393 10.2189 4.57493 11.2519C4.51761 11.3321 4.44507 11.4001 4.36146 11.4522C4.27784 11.5042 4.18479 11.5393 4.08761 11.5554C3.99044 11.5715 3.89104 11.5684 3.7951 11.5461C3.69915 11.5238 3.60854 11.4828 3.52843 11.4254C3.44833 11.3681 3.38029 11.2956 3.32822 11.212C3.27615 11.1284 3.24106 11.0353 3.22494 10.9381C3.20883 10.841 3.21202 10.7416 3.23432 10.6456C3.25663 10.5497 3.29761 10.4591 3.35493 10.3789C4.10493 9.33195 6.43293 6.26694 9.20793 4.51894C10.4089 3.76294 11.7489 3.79494 12.5929 4.52694C13.0139 4.89194 13.2779 5.41694 13.2809 6.01294C13.2849 6.60394 13.0349 7.18994 12.5789 7.71094C11.1519 9.34295 9.26693 11.5559 8.47493 12.6359C8.37093 12.7779 8.36393 12.8859 8.37293 12.9479C8.38293 13.0179 8.41993 13.0829 8.48293 13.1309C8.52592 13.1612 8.57446 13.1827 8.62576 13.1942C8.67707 13.2057 8.73014 13.207 8.78193 13.1979C8.92193 13.1809 9.14193 13.1039 9.40993 12.8589C9.63593 12.6509 9.87093 12.4289 10.1129 12.2019C10.8579 11.5009 11.6629 10.7419 12.4689 10.1489C13.3069 9.53295 14.2869 9.36195 15.0299 9.81595C15.4009 10.0429 15.6619 10.4059 15.7519 10.8399C15.8419 11.2699 15.7569 11.7179 15.5399 12.1299C15.3069 12.5719 15.1059 12.8899 14.9249 13.1759L14.9109 13.1989C14.7375 13.4648 14.5757 13.7381 14.4259 14.0179C14.3924 14.0814 14.3729 14.1512 14.3688 14.2228C14.3646 14.2944 14.3759 14.3661 14.4019 14.4329C14.4259 14.4929 14.4489 14.5219 14.4619 14.5339C14.5539 14.5409 14.6339 14.5179 14.7609 14.4199C14.9389 14.2809 15.1379 14.0459 15.4369 13.6539C15.5577 13.4959 15.7364 13.3923 15.9336 13.3659C16.1308 13.3396 16.3304 13.3926 16.4884 13.5134C16.6465 13.6343 16.7501 13.8129 16.7765 14.0101C16.8028 14.2073 16.7497 14.4069 16.6289 14.5649C16.3439 14.9379 16.0349 15.3289 15.6809 15.6049C15.2889 15.9089 14.8139 16.0929 14.2369 16.0179C13.6039 15.9359 13.1889 15.4479 13.0059 14.9809C12.9013 14.7143 12.8552 14.4282 12.8707 14.1422C12.8863 13.8561 12.9631 13.5767 13.0959 13.3229C13.2859 12.9589 13.4659 12.6759 13.6369 12.4069L13.6589 12.3729C13.8349 12.0939 14.0089 11.8169 14.2129 11.4309C14.2979 11.2689 14.2899 11.1759 14.2839 11.1469C14.2823 11.1362 14.2782 11.1261 14.2719 11.1172C14.2657 11.1084 14.2575 11.1011 14.2479 11.0959C14.2049 11.0689 13.9009 10.9579 13.3579 11.3579C12.6319 11.8909 11.9249 12.5579 11.1979 13.2419C10.9433 13.4833 10.6849 13.7243 10.4229 13.9649C9.49993 14.8109 8.37593 14.9239 7.58493 14.3319C6.81493 13.7559 6.60393 12.6519 7.26493 11.7499C8.10193 10.6079 10.0319 8.34494 11.4499 6.72394C11.7209 6.41394 11.7819 6.16894 11.7809 6.02194C11.7808 5.95274 11.7655 5.8844 11.7359 5.82183C11.7063 5.75925 11.6633 5.70397 11.6099 5.65994M14.4729 14.5429L14.4699 14.5409C14.4719 14.5409 14.4729 14.5416 14.4729 14.5429Z" fill="currentColor" />
  </symbol>
  <symbol id="plus-20" viewBox="0 0 20 20">
    <ns0:path xmlns:ns0="http://www.w3.org/2000/svg" d="M10 2V18M2 10H18" stroke="black" stroke-opacity="0.4" stroke-width="1.5" />
  </symbol>
  <symbol id="dialogue-12" viewBox="0 0 16 16">
    <ns0:path xmlns:ns0="http://www.w3.org/2000/svg" fill-rule="evenodd" clip-rule="evenodd" d="M8 2C11.31 2 14 3.39055 14 6.87162C13.9999 10.3626 11.31 11.753 8 11.753C7.906 11.753 7.81208 11.7518 7.71875 11.7491L3.26855 13.9695C3.19912 13.9993 3.12199 14.0076 3.04785 13.993C2.97379 13.9783 2.9054 13.9414 2.85254 13.8874V13.8914C2.80046 13.837 2.76595 13.7682 2.75293 13.694C2.73993 13.6195 2.74949 13.5423 2.78027 13.4733L4 10.783C2.77403 10.0128 2.00003 8.74213 2 6.87162C2 3.39055 4.69 2 8 2ZM5.5 6.00123C5.08579 6.00123 4.75 6.33712 4.75 6.75146C4.75 7.1658 5.08579 7.50169 5.5 7.50169C5.91421 7.50169 6.25 7.1658 6.25 6.75146C6.25 6.33712 5.91421 6.00123 5.5 6.00123ZM8 6.00123C7.58579 6.00123 7.25 6.33712 7.25 6.75146C7.25 7.1658 7.58579 7.50169 8 7.50169C8.41421 7.50169 8.75 7.1658 8.75 6.75146C8.75 6.33712 8.41421 6.00123 8 6.00123ZM10.5 6.00123C10.0858 6.00123 9.75 6.33712 9.75 6.75146C9.75 7.1658 10.0858 7.50169 10.5 7.50169C10.9142 7.50169 11.25 7.1658 11.25 6.75146C11.25 6.33712 10.9142 6.00123 10.5 6.00123Z" fill="currentColor" fill-opacity="0.4" />
  </symbol>
  <symbol id="cross-20" viewBox="0 0 20 20">
    <ns0:path xmlns:ns0="http://www.w3.org/2000/svg" d="M15.6569 4.34313L4.34315 15.6568M4.34315 4.34313L15.6569 15.6568" stroke="black" stroke-opacity="0.4" stroke-width="1.5" />
  </symbol>
  <symbol id="yandex-16" viewBox="0 0 16 16">
    <ns0:path xmlns:ns0="http://www.w3.org/2000/svg" d="M2.83501 0C1.26451 0 0 1.26451 0 2.83501V13.165C0 14.7355 1.26451 16 2.83501 16H10.438L16 8.00202L10.438 1.6e-05L2.83501 0ZM7.09251 2.92101H8.89901C9.00992 2.92101 9.0735 2.96157 9.0735 3.05701V13.013C9.0735 13.0808 9.04158 13.1215 8.9465 13.1215H7.964C7.90106 13.1215 7.8535 13.0672 7.8535 13.0265V9.3405H7.0605L4.858 13.0265C4.82638 13.0943 4.76309 13.1215 4.668 13.1215H3.54299C3.41659 13.1215 3.33733 13.0265 3.4165 12.904L5.8405 9.15C4.5415 8.66037 3.8125 7.6675 3.8125 6.32099C3.8125 4.07677 5.31795 2.92099 7.0925 2.92099L7.09251 2.92101ZM7.04501 3.79101C6.07842 3.79101 5.1275 4.48464 5.1275 6.18501C5.1275 7.81718 6.14173 8.47002 7.1875 8.47002H7.8535V3.79101H7.04501Z" fill="currentColor" />
  </symbol>
  <symbol id="boost-12" viewBox="0 0 12 12">
    <ns0:path xmlns:ns0="http://www.w3.org/2000/svg" d="M1.71387 5.99958L5.29247 2.42097C5.683 2.03045 6.31616 2.03045 6.70669 2.42097L10.2853 5.99958" stroke="black" stroke-width="1.25" />
  <ns0:path xmlns:ns0="http://www.w3.org/2000/svg" d="M1.71387 10.2857L5.29247 6.70711C5.683 6.31658 6.31616 6.31658 6.70669 6.70711L10.2853 10.2857" stroke="black" stroke-opacity="0.5" stroke-width="1.25" />
  </symbol>
  <symbol id="cross-12" viewBox="0 0 12 12">
    <ns0:path xmlns:ns0="http://www.w3.org/2000/svg" d="M9.60682 2.53553L2.53576 9.6066M2.53576 2.53553L9.60682 9.6066" stroke="black" stroke-opacity="0.9" />
  </symbol>
  <symbol id="ruble-12" viewBox="0 0 12 12">
    <ns0:path xmlns:ns0="http://www.w3.org/2000/svg" d="M6.61719 1.9502C7.3519 1.95022 7.96145 2.22383 8.38672 2.68457C8.81156 3.14491 9.0498 3.78886 9.0498 4.52539C9.04975 5.25965 8.80553 5.89956 8.37305 6.35645C7.94033 6.81353 7.32219 7.08393 6.58008 7.08398H5.24414V8.0791H7.34863V8.81836H5.24414V10.0498H3.98438V8.81836H2.9502V8.0791H3.98438V7.08398H2.9502V6.33984H3.98438V1.9502H6.61719ZM5.24609 5.96582H6.29297C6.79263 5.96574 7.16054 5.82486 7.40332 5.5791C7.64621 5.33316 7.77044 4.97564 7.77051 4.53027C7.77051 4.08776 7.64633 3.73309 7.4043 3.48926C7.16229 3.24556 6.79582 3.10555 6.29883 3.10547H5.24609V5.96582Z" fill="currentColor" stroke="black" stroke-width="0.1" />
  </symbol>
  <symbol id="study-12" viewBox="0 0 12 12">
    <ns0:path xmlns:ns0="http://www.w3.org/2000/svg" d="M7.10847 1.74974C6.76206 1.58531 6.38342 1.5 5.99997 1.5C5.61652 1.5 5.23787 1.58531 4.89147 1.74974L1.54597 3.31824C1.00797 3.57024 0.867466 4.28174 1.12497 4.77324V7.24974C1.12497 7.34919 1.16447 7.44458 1.2348 7.5149C1.30513 7.58523 1.40051 7.62474 1.49997 7.62474C1.59942 7.62474 1.6948 7.58523 1.76513 7.5149C1.83546 7.44458 1.87497 7.34919 1.87497 7.24974V5.33574L4.89147 6.74974C5.23787 6.91417 5.61652 6.99947 5.99997 6.99947C6.38342 6.99947 6.76206 6.91417 7.10847 6.74974L10.454 5.18124C11.182 4.84024 11.182 3.65924 10.454 3.31824L7.10847 1.74974Z" fill="currentColor" />
  <ns0:path xmlns:ns0="http://www.w3.org/2000/svg" d="M2.5 6.45703V8.31203C2.5 8.81603 2.7515 9.28803 3.1925 9.53203C3.927 9.93953 5.102 10.4995 6 10.4995C6.898 10.4995 8.073 9.93903 8.8075 9.53253C9.2485 9.28803 9.5 8.81603 9.5 8.31253V6.45703L7.427 7.42903C6.98092 7.64021 6.49354 7.74975 6 7.74975C5.50646 7.74975 5.01908 7.64021 4.573 7.42903L2.5 6.45703Z" fill="currentColor" />
  </symbol>
  <symbol id="menu-12" viewBox="0 0 12 12">
    <ns0:path xmlns:ns0="http://www.w3.org/2000/svg" d="M2 3H10" stroke="black" stroke-linecap="round" />
  <ns0:path xmlns:ns0="http://www.w3.org/2000/svg" d="M2 6H10" stroke="black" stroke-linecap="round" />
  <ns0:path xmlns:ns0="http://www.w3.org/2000/svg" d="M2 9H10" stroke="black" stroke-linecap="round" />
  </symbol>
  <symbol id="work-12" viewBox="0 0 12 12">
    <ns0:path xmlns:ns0="http://www.w3.org/2000/svg" d="M2.8 9.5C2.58 9.5 2.39173 9.42791 2.2352 9.28374C2.07867 9.13956 2.00027 8.96603 2 8.76316V4.71053C2 4.50789 2.0784 4.33449 2.2352 4.19032C2.392 4.04614 2.58027 3.97393 2.8 3.97368H4.4V3.23684C4.4 3.03421 4.4784 2.86081 4.6352 2.71663C4.792 2.57246 4.98027 2.50025 5.2 2.5H6.8C7.02 2.5 7.2084 2.57221 7.3652 2.71663C7.522 2.86105 7.60027 3.03446 7.6 3.23684V3.97368H9.2C9.42 3.97368 9.6084 4.04589 9.7652 4.19032C9.922 4.33474 10.0003 4.50814 10 4.71053V8.76316C10 8.96579 9.92173 9.13932 9.7652 9.28374C9.60867 9.42816 9.42027 9.50024 9.2 9.5H2.8ZM5.2 3.97368H6.8V3.23684H5.2V3.97368Z" fill="currentColor" />
  </symbol>
  <symbol id="telegram-20" viewBox="0 0 20 20">
    <ns0:path xmlns:ns0="http://www.w3.org/2000/svg" d="M10 2C5.584 2 2 5.584 2 10C2 14.416 5.584 18 10 18C14.416 18 18 14.416 18 10C18 5.584 14.416 2 10 2ZM13.712 7.44C13.592 8.704 13.072 11.776 12.808 13.192C12.696 13.792 12.472 13.992 12.264 14.016C11.8 14.056 11.448 13.712 11 13.416C10.296 12.952 9.896 12.664 9.216 12.216C8.424 11.696 8.936 11.408 9.392 10.944C9.512 10.824 11.56 8.96 11.6 8.792C11.6056 8.76655 11.6048 8.74014 11.5978 8.71504C11.5909 8.68995 11.5779 8.66693 11.56 8.648C11.512 8.608 11.448 8.624 11.392 8.632C11.32 8.648 10.2 9.392 8.016 10.864C7.696 11.08 7.408 11.192 7.152 11.184C6.864 11.176 6.32 11.024 5.912 10.888C5.408 10.728 5.016 10.64 5.048 10.36C5.064 10.216 5.264 10.072 5.64 9.92C7.976 8.904 9.528 8.232 10.304 7.912C12.528 6.984 12.984 6.824 13.288 6.824C13.352 6.824 13.504 6.84 13.6 6.92C13.68 6.984 13.704 7.072 13.712 7.136C13.704 7.184 13.72 7.328 13.712 7.44Z" fill="currentColor" fill-opacity="0.25" />
  </symbol>
  <symbol id="stars-20" viewBox="0 0 20 20">
    <ns0:path xmlns:ns0="http://www.w3.org/2000/svg" d="M12.71 8.90753C11.8875 7.92419 11.4767 7.43253 11.0034 7.50753C10.5309 7.58336 10.31 8.17669 9.86836 9.36336L9.75336 9.67003C9.62836 10.0075 9.56503 10.1759 9.44253 10.3C9.32086 10.4242 9.15253 10.49 8.81753 10.6217L8.5117 10.7409C7.33086 11.2034 6.74003 11.435 6.67253 11.9075C6.60503 12.38 7.10586 12.7817 8.1067 13.5834L8.36503 13.7917C8.65003 14.0192 8.79253 14.1334 8.8742 14.2892C8.95753 14.445 8.97003 14.6259 8.99586 14.9867L9.02003 15.315C9.1117 16.5842 9.15836 17.2192 9.5892 17.4359C10.02 17.6525 10.5509 17.3067 11.6117 16.6167L11.8859 16.4375C12.1875 16.2417 12.3384 16.1434 12.5109 16.115C12.6842 16.0875 12.8609 16.1334 13.2117 16.225L13.5325 16.3084C14.77 16.63 15.3892 16.7917 15.7234 16.4525C16.0575 16.1134 15.8842 15.4992 15.5392 14.2692L15.4492 13.9525C15.3517 13.6025 15.3025 13.4275 15.3267 13.255C15.3517 13.0817 15.4475 12.93 15.6384 12.625L15.8134 12.3484C16.4859 11.2775 16.8217 10.7425 16.5967 10.3167C16.3725 9.89086 15.7359 9.85586 14.4617 9.78753L14.1317 9.76919C13.77 9.75003 13.5884 9.74003 13.4309 9.66086C13.2725 9.58169 13.1559 9.44169 12.9225 9.16169L12.71 8.90753Z" fill="currentColor" />
  <ns0:path xmlns:ns0="http://www.w3.org/2000/svg" d="M12.3983 4.30581L12.5508 4.74081C12.7183 5.21831 12.8024 5.45748 12.9649 5.63248C13.1283 5.80914 13.3516 5.90248 13.7991 6.08831L14.2066 6.25831C15.7816 6.91331 16.5691 7.24164 16.6583 7.91081C16.6958 8.18914 16.6024 8.45081 16.3833 8.74248C16.3133 8.72351 16.2427 8.70684 16.1716 8.69248C15.7333 8.60331 15.1758 8.57331 14.6074 8.54248L14.1991 8.52081L14.0074 8.50998L13.8816 8.35998L13.6183 8.04581C13.2516 7.60581 12.8933 7.17664 12.5583 6.87831C12.2024 6.55998 11.6074 6.14498 10.8058 6.27331C9.99577 6.40331 9.5641 6.99248 9.33077 7.41248C9.11493 7.80248 8.92077 8.32414 8.7241 8.85164L8.58243 9.23331L8.52243 9.39414C8.47799 9.41081 8.42438 9.43192 8.3616 9.45748L7.9816 9.60581C7.4566 9.81164 6.93743 10.0141 6.55077 10.2366C6.13577 10.4758 5.55077 10.9175 5.43493 11.7308C5.32077 12.5366 5.74993 13.125 6.0741 13.4741C6.31577 13.7333 6.6416 14.0075 6.9891 14.2891C5.6816 14.6433 4.9866 14.7758 4.5916 14.3491C4.1466 13.8691 4.3766 12.9991 4.83743 11.2575L4.95577 10.8075C5.0866 10.3116 5.15243 10.065 5.11993 9.81914C5.0866 9.57414 4.9591 9.35831 4.7041 8.92748L4.47243 8.53581C3.57493 7.01831 3.1266 6.25998 3.42493 5.65581C3.72493 5.05248 4.5741 5.00331 6.27327 4.90581L6.71243 4.88081C7.19577 4.85248 7.4366 4.83914 7.64743 4.72664C7.85743 4.61414 8.01327 4.41664 8.32493 4.01998L8.60827 3.65998C9.70493 2.26581 10.2533 1.56914 10.8833 1.67664C11.5133 1.78414 11.8083 2.62414 12.3974 4.30498" fill="currentColor" />
  </symbol>
  <symbol id="star-16-1" viewBox="0 0 16 16">
    <ns0:path xmlns:ns0="http://www.w3.org/2000/svg" d="M8.00022 11.5161L5.23355 13.1828C5.11133 13.2606 4.98355 13.2939 4.85022 13.2828C4.71689 13.2717 4.60022 13.2273 4.50022 13.1495C4.40022 13.0717 4.32244 12.9746 4.26689 12.8581C4.21133 12.7417 4.20022 12.611 4.23355 12.4661L4.96689 9.31615L2.51689 7.19948C2.40577 7.09948 2.33644 6.98548 2.30889 6.85748C2.28133 6.72948 2.28955 6.60459 2.33355 6.48281C2.37755 6.36104 2.44422 6.26103 2.53355 6.18281C2.62289 6.10459 2.74511 6.05459 2.90022 6.03281L6.13355 5.74948L7.38355 2.78281C7.43911 2.64948 7.52533 2.54948 7.64222 2.48281C7.75911 2.41615 7.87844 2.38281 8.00022 2.38281C8.122 2.38281 8.24133 2.41615 8.35822 2.48281C8.47511 2.54948 8.56133 2.64948 8.61689 2.78281L9.86689 5.74948L13.1002 6.03281C13.2558 6.05504 13.378 6.10503 13.4669 6.18281C13.5558 6.26059 13.6224 6.36059 13.6669 6.48281C13.7113 6.60504 13.7198 6.73015 13.6922 6.85815C13.6647 6.98615 13.5951 7.09992 13.4836 7.19948L11.0336 9.31615L11.7669 12.4661C11.8002 12.6106 11.7891 12.7413 11.7336 12.8581C11.678 12.975 11.6002 13.0721 11.5002 13.1495C11.4002 13.2268 11.2836 13.2713 11.1502 13.2828C11.0169 13.2944 10.8891 13.261 10.7669 13.1828L8.00022 11.5161Z" fill="currentColor" fill-opacity="0.4" />
  </symbol>
  <symbol id="review-12" viewBox="0 0 12 12">
    <ns0:path xmlns:ns0="http://www.w3.org/2000/svg" d="M6 4.7C5.63834 4.7 5.29149 4.83696 5.03576 5.08076C4.78003 5.32456 4.63636 5.65522 4.63636 6C4.63636 6.34478 4.78003 6.67544 5.03576 6.91924C5.29149 7.16304 5.63834 7.3 6 7.3C6.36166 7.3 6.70851 7.16304 6.96424 6.91924C7.21997 6.67544 7.36364 6.34478 7.36364 6C7.36364 5.65522 7.21997 5.32456 6.96424 5.08076C6.70851 4.83696 6.36166 4.7 6 4.7ZM6 8.16667C5.39724 8.16667 4.81916 7.93839 4.39294 7.53206C3.96672 7.12574 3.72727 6.57464 3.72727 6C3.72727 5.42536 3.96672 4.87426 4.39294 4.46794C4.81916 4.06161 5.39724 3.83333 6 3.83333C6.60276 3.83333 7.18084 4.06161 7.60706 4.46794C8.03328 4.87426 8.27273 5.42536 8.27273 6C8.27273 6.57464 8.03328 7.12574 7.60706 7.53206C7.18084 7.93839 6.60276 8.16667 6 8.16667ZM6 2.75C3.72727 2.75 1.78636 4.09767 1 6C1.78636 7.90233 3.72727 9.25 6 9.25C8.27273 9.25 10.2136 7.90233 11 6C10.2136 4.09767 8.27273 2.75 6 2.75Z" fill="currentColor" />
  </symbol>
  <symbol id="info-20" viewBox="0 0 20 20">
    <ns0:path xmlns:ns0="http://www.w3.org/2000/svg" d="M9.99999 14.375C10.2479 14.375 10.4559 14.291 10.6239 14.123C10.7919 13.955 10.8756 13.7473 10.875 13.5V10C10.875 9.75208 10.791 9.54441 10.623 9.377C10.455 9.20958 10.2473 9.12558 9.99999 9.125C9.75266 9.12441 9.545 9.20841 9.377 9.377C9.209 9.54558 9.125 9.75325 9.125 10V13.5C9.125 13.7479 9.209 13.9559 9.377 14.1239C9.545 14.2919 9.75266 14.3756 9.99999 14.375ZM9.99999 7.375C10.2479 7.375 10.4559 7.291 10.6239 7.123C10.7919 6.955 10.8756 6.74733 10.875 6.5C10.8744 6.25267 10.7904 6.045 10.623 5.877C10.4556 5.709 10.2479 5.625 9.99999 5.625C9.75208 5.625 9.54441 5.709 9.377 5.877C9.20958 6.045 9.12558 6.25267 9.125 6.5C9.12441 6.74733 9.20841 6.95529 9.377 7.12387C9.54558 7.29246 9.75325 7.37616 9.99999 7.375ZM9.99999 18.75C8.78958 18.75 7.65208 18.5202 6.5875 18.0605C5.52292 17.6008 4.59687 16.9775 3.80937 16.1906C3.02188 15.4037 2.39858 14.4777 1.9395 13.4125C1.48042 12.3473 1.25058 11.2098 1.25 10C1.24942 8.79016 1.47925 7.65267 1.9395 6.5875C2.39975 5.52233 3.02304 4.59629 3.80937 3.80937C4.59571 3.02246 5.52175 2.39917 6.5875 1.9395C7.65325 1.47983 8.79075 1.25 9.99999 1.25C11.2092 1.25 12.3467 1.47983 13.4125 1.9395C14.4782 2.39917 15.4043 3.02246 16.1906 3.80937C16.9769 4.59629 17.6005 5.52233 18.0614 6.5875C18.5222 7.65267 18.7517 8.79016 18.75 10C18.7482 11.2098 18.5184 12.3473 18.0605 13.4125C17.6026 14.4777 16.9793 15.4037 16.1906 16.1906C15.402 16.9775 14.4759 17.6011 13.4125 18.0614C12.3491 18.5216 11.2116 18.7512 9.99999 18.75Z" fill="currentColor" fill-opacity="0.4" />
  </symbol>
  <symbol id="3d-20" viewBox="0 0 20 20">
    <ns0:path xmlns:ns0="http://www.w3.org/2000/svg" d="M15.1988 6.6326C15.2157 6.6227 15.2298 6.60851 15.2396 6.59146C15.2494 6.57441 15.2546 6.55509 15.2546 6.53543C15.2546 6.51577 15.2494 6.49645 15.2396 6.4794C15.2298 6.46235 15.2157 6.44817 15.1988 6.43826L10.9029 3.94245C10.6281 3.78312 10.316 3.69922 9.9983 3.69922C9.6806 3.69922 9.36853 3.78312 9.09366 3.94245L4.79869 6.43826C4.78171 6.44817 4.76762 6.46235 4.75783 6.4794C4.74803 6.49645 4.74288 6.51577 4.74288 6.53543C4.74288 6.55509 4.74803 6.57441 4.75783 6.59146C4.76762 6.60851 4.78171 6.6227 4.79869 6.6326L9.94219 9.65829C9.95949 9.66848 9.9792 9.67385 9.99928 9.67385C10.0194 9.67385 10.0391 9.66848 10.0564 9.65829L15.1988 6.6326ZM4.31719 7.39788C4.30003 7.38798 4.28057 7.38278 4.26076 7.38281C4.24095 7.38284 4.2215 7.3881 4.20437 7.39806C4.18725 7.40803 4.17306 7.42233 4.16324 7.43953C4.15342 7.45674 4.14831 7.47623 4.14844 7.49604V12.3867C4.14886 12.6224 4.21098 12.8538 4.32861 13.0581C4.44624 13.2623 4.61529 13.4322 4.81894 13.5508L9.37969 16.2854C9.39678 16.2953 9.41617 16.3005 9.43591 16.3005C9.45565 16.3005 9.47504 16.2953 9.49214 16.2854C9.50924 16.2756 9.52344 16.2614 9.53333 16.2443C9.54321 16.2272 9.54842 16.2078 9.54844 16.1881V10.5139C9.54842 10.4941 9.54321 10.4747 9.53334 10.4577C9.52347 10.4406 9.50928 10.4264 9.49219 10.4165L4.31719 7.39788ZM10.4484 10.5335V16.1867C10.4485 16.2064 10.4537 16.2258 10.4636 16.2429C10.4734 16.26 10.4876 16.2741 10.5047 16.284C10.5218 16.2939 10.5412 16.2991 10.561 16.2991C10.5807 16.299 10.6001 16.2938 10.6172 16.284L15.1777 13.5494C15.3812 13.4309 15.5501 13.2613 15.6678 13.0573C15.7855 12.8534 15.8477 12.6222 15.8484 12.3867V7.49604C15.8484 7.47633 15.8431 7.45698 15.8332 7.43993C15.8233 7.42288 15.8091 7.40874 15.792 7.39891C15.7749 7.38908 15.7556 7.38392 15.7358 7.38394C15.7161 7.38395 15.6968 7.38915 15.6797 7.39901L10.5047 10.4365C10.4876 10.4463 10.4735 10.4605 10.4636 10.4775C10.4537 10.4945 10.4485 10.5139 10.4484 10.5335Z" fill="currentColor" />
  </symbol>
  <symbol id="arrow-diagonal-16" viewBox="0 0 16 16">
    <ns0:path xmlns:ns0="http://www.w3.org/2000/svg" d="M10.5158 6.23469L10.5158 11.6794L11.8891 11.6673L11.8891 3.88909L4.11091 3.88909L4.09876 5.26242L9.54348 5.26242L3.62478 11.1811L4.59705 12.1534L10.5158 6.23469Z" fill="currentColor" />
  </symbol>
  <symbol id="arrow-left-20" viewBox="0 0 20 20">
    <ns0:path xmlns:ns0="http://www.w3.org/2000/svg" d="M6.34688 10.8749L11.2469 15.7749L10 16.9999L3 9.99994L10 2.99994L11.2469 4.22494L6.34687 9.12494L17 9.12494L17 10.8749L6.34688 10.8749Z" fill="currentColor" />
  </symbol>
  <symbol id="info-12" viewBox="0 0 12 12">
    <ns0:path xmlns:ns0="http://www.w3.org/2000/svg" d="M6 8.625C6.14875 8.625 6.27352 8.5746 6.37432 8.4738C6.47512 8.373 6.52535 8.2484 6.525 8.1V6C6.525 5.85125 6.4746 5.72665 6.3738 5.6262C6.273 5.52575 6.1484 5.47535 6 5.475C5.8516 5.47465 5.727 5.52505 5.6262 5.6262C5.5254 5.72735 5.475 5.85195 5.475 6V8.1C5.475 8.24875 5.5254 8.37352 5.6262 8.47432C5.727 8.57512 5.8516 8.62535 6 8.625ZM6 4.425C6.14875 4.425 6.27352 4.3746 6.37432 4.2738C6.47512 4.173 6.52535 4.0484 6.525 3.9C6.52465 3.7516 6.47425 3.627 6.3738 3.5262C6.27335 3.4254 6.14875 3.375 6 3.375C5.85125 3.375 5.72665 3.4254 5.6262 3.5262C5.52575 3.627 5.47535 3.7516 5.475 3.9C5.47465 4.0484 5.52505 4.17317 5.6262 4.27432C5.72735 4.37547 5.85195 4.4257 6 4.425ZM6 11.25C5.27375 11.25 4.59125 11.1121 3.9525 10.8363C3.31375 10.5605 2.75812 10.1865 2.28562 9.71437C1.81313 9.24222 1.43915 8.6866 1.1637 8.0475C0.888251 7.4084 0.750351 6.7259 0.750001 6C0.749651 5.2741 0.887551 4.5916 1.1637 3.9525C1.43985 3.3134 1.81383 2.75777 2.28562 2.28562C2.75742 1.81347 3.31305 1.4395 3.9525 1.1637C4.59195 0.8879 5.27445 0.75 6 0.75C6.72555 0.75 7.40805 0.8879 8.0475 1.1637C8.68695 1.4395 9.24257 1.81347 9.71437 2.28562C10.1862 2.75777 10.5603 3.3134 10.8368 3.9525C11.1133 4.5916 11.251 5.2741 11.25 6C11.2489 6.7259 11.111 7.4084 10.8363 8.0475C10.5615 8.6866 10.1876 9.24222 9.71437 9.71437C9.24117 10.1865 8.68555 10.5607 8.0475 10.8368C7.40945 11.113 6.72695 11.2507 6 11.25Z" fill="currentColor" fill-opacity="0.4" />
  </symbol>
  <symbol id="pinterest-20" viewBox="0 0 20 20">
    <ns0:path xmlns:ns0="http://www.w3.org/2000/svg" d="M2 10.0008C2.0416 7.73017 2.8432 5.83398 4.4064 4.31383C5.9696 2.79368 7.8336 2.0208 10 2C12.3328 2.0416 14.2448 2.83848 15.7344 4.39064C17.224 5.94279 17.9792 7.81338 18 10.0008C17.9584 12.2506 17.1568 14.142 15.5936 15.6734C14.0304 17.2031 12.1664 17.9792 10 18C9.2496 18 8.5008 17.8848 7.7504 17.656C7.896 17.4271 8.0416 17.1663 8.1872 16.8751C8.3536 16.5215 8.5616 15.8542 8.8128 14.8749C8.8752 14.6045 8.9696 14.2396 9.0944 13.7804C9.24 14.03 9.4896 14.2588 9.8448 14.4684C10.7824 14.9053 11.7712 14.8637 12.8128 14.3436C13.896 13.718 14.6464 12.7499 15.0624 11.4377C15.4368 10.0632 15.3904 8.78628 14.9216 7.61016C14.4528 6.43244 13.6144 5.58436 12.4064 5.06271C10.8864 4.62586 9.4064 4.67227 7.9696 5.20352C6.5328 5.73477 5.5328 6.64686 4.9696 7.93819C4.824 8.41664 4.736 8.89189 4.704 9.36074C4.672 9.82958 4.688 10.2872 4.7504 10.7353C4.8128 11.1833 4.9696 11.585 5.2192 11.9386C5.4688 12.2922 5.8032 12.5643 6.2192 12.7515C6.3232 12.7931 6.4064 12.7931 6.4688 12.7515C6.552 12.7099 6.6352 12.5435 6.7184 12.2522C6.8016 11.961 6.8336 11.7626 6.8128 11.6586C6.792 11.617 6.7504 11.5434 6.688 11.4393C6.2512 10.7305 6.104 9.9864 6.2512 9.20552C6.3968 8.42464 6.72 7.76218 7.2192 7.22132C7.9904 6.53325 8.8912 6.15882 9.9216 6.09641C10.952 6.034 11.8336 6.31563 12.5616 6.93969C12.9568 7.39734 13.2128 7.94939 13.3264 8.59586C13.44 9.24232 13.4416 9.86159 13.3264 10.4552C13.2112 11.0489 13.008 11.6058 12.7168 12.1274C12.1952 12.9403 11.5808 13.3563 10.8736 13.3771C10.4576 13.3563 10.1184 13.1947 9.8576 12.8923C9.5968 12.5899 9.5184 12.241 9.624 11.8458C9.6656 11.617 9.7904 11.1689 9.9984 10.5016C10.2064 9.83438 10.3216 9.33513 10.3424 9.0023C10.28 8.21022 9.9152 7.80378 9.248 7.78298C8.7264 7.84538 8.3424 8.08061 8.0912 8.48545C7.84 8.89029 7.7056 9.35594 7.6848 9.87599C7.7472 10.4808 7.8416 10.8969 7.9664 11.1257C7.7376 12.0634 7.56 12.8139 7.4352 13.3755C7.3936 13.5212 7.2784 13.9692 7.0912 14.7197C6.904 15.4701 6.8 16.043 6.7792 16.4382V17.3135C5.3008 16.6255 4.1328 15.6318 3.28 14.3292C2.4272 13.0267 2 11.5834 2 10.0008Z" fill="currentColor" fill-opacity="0.25" />
  </symbol>
  <symbol id="behance-20" viewBox="0 0 20 20">
    <ns0:path xmlns:ns0="http://www.w3.org/2000/svg" d="M8.26442 9.36483C8.26442 9.36483 9.96783 9.23171 9.96783 7.12904C9.96783 5.02622 8.57422 4 6.80892 4H1V15.7509H6.80892C6.80892 15.7509 10.3551 15.8688 10.3551 12.2825C10.3551 12.2826 10.5097 9.36483 8.26442 9.36483ZM6.3908 6.08858H6.80892C6.80892 6.08858 7.59852 6.08858 7.59852 7.31121C7.59852 8.53369 7.13415 8.71093 6.60743 8.71093H3.55948V6.08858H6.3908ZM6.64477 13.6624H3.55948V10.5221H6.80892C6.80892 10.5221 7.98579 10.5058 7.98579 12.1359C7.98579 13.5103 7.10678 13.652 6.64477 13.6624ZM15.0844 6.98977C10.7915 6.98977 10.7953 11.5048 10.7953 11.5048C10.7953 11.5048 10.5007 15.9967 15.0844 15.9967C15.0844 15.9967 18.9042 16.2264 18.9042 12.8719H16.9397C16.9397 12.8719 17.0053 14.1352 15.15 14.1352C15.15 14.1352 13.1852 14.2738 13.1852 12.0908H18.9697C18.9697 12.0907 19.6026 6.98977 15.0844 6.98977ZM13.1636 10.5221C13.1636 10.5221 13.4035 8.71089 15.1281 8.71089C16.8523 8.71089 16.8307 10.5221 16.8307 10.5221H13.1636ZM17.2883 6.13931H12.6827V4.69228H17.2883V6.13931Z" fill="currentColor" fill-opacity="0.25" />
  </symbol>
  <symbol id="percent-20" viewBox="0 0 20 20">
    <ns0:path xmlns:ns0="http://www.w3.org/2000/svg" d="M6.875 9.1146C8.60212 9.1146 10 7.72837 10 6.01565C10 4.30292 8.60212 2.91669 6.875 2.91669C5.14788 2.91669 3.75 4.30292 3.75 6.01565C3.75 7.72837 5.14788 9.1146 6.875 9.1146ZM6.875 4.68752C7.6144 4.68752 8.21429 5.28241 8.21429 6.01565C8.21429 6.74888 7.6144 7.34377 6.875 7.34377C6.1356 7.34377 5.53571 6.74888 5.53571 6.01565C5.53571 5.28241 6.1356 4.68752 6.875 4.68752ZM13.125 10.8854C11.3979 10.8854 10 12.2717 10 13.9844C10 15.6971 11.3979 17.0834 13.125 17.0834C14.8521 17.0834 16.25 15.6971 16.25 13.9844C16.25 12.2717 14.8521 10.8854 13.125 10.8854ZM13.125 15.3125C12.3856 15.3125 11.7857 14.7176 11.7857 13.9844C11.7857 13.2512 12.3856 12.6563 13.125 12.6563C13.8644 12.6563 14.4643 13.2512 14.4643 13.9844C14.4643 14.7176 13.8644 15.3125 13.125 15.3125ZM14.6959 2.92222L15.5776 2.91945C16.1189 2.91669 16.4397 3.52264 16.1272 3.96535L5.9096 16.7956C5.84799 16.8827 5.76613 16.9539 5.67094 17.003C5.57575 17.0521 5.47003 17.0778 5.36272 17.0778L4.4308 17.0806C3.88672 17.0806 3.56864 16.4746 3.88114 16.0347L14.149 3.20445C14.2746 3.02736 14.4782 2.92222 14.6959 2.92222Z" fill="currentColor" />
  </symbol>
  <symbol id="platform-12" viewBox="0 0 12 12">
    <ns0:path xmlns:ns0="http://www.w3.org/2000/svg" d="M1.625 1.9C1.625 1.66131 1.72377 1.43239 1.89959 1.2636C2.0754 1.09482 2.31386 1 2.5625 1H9.4375C9.68614 1 9.9246 1.09482 10.1004 1.2636C10.2762 1.43239 10.375 1.66131 10.375 1.9V6.1C10.375 6.3387 10.2762 6.56761 10.1004 6.7364C9.9246 6.90518 9.68614 7 9.4375 7H6V4C6 3.68174 5.8683 3.37652 5.63388 3.15147C5.39946 2.92643 5.08152 2.8 4.75 2.8H1.625V1.9ZM6 8.2H10.6875C10.7704 8.2 10.8499 8.16839 10.9085 8.11213C10.9671 8.05587 11 7.97957 11 7.9C11 7.82044 10.9671 7.74413 10.9085 7.68787C10.8499 7.63161 10.7704 7.6 10.6875 7.6H6V8.2ZM1 4.3C1 4.06131 1.09877 3.83239 1.27459 3.6636C1.4504 3.49482 1.68886 3.4 1.9375 3.4H4.4375C4.68614 3.4 4.9246 3.49482 5.10041 3.6636C5.27623 3.83239 5.375 4.06131 5.375 4.3V9.1C5.375 9.3387 5.27623 9.56761 5.10041 9.7364C4.9246 9.90518 4.68614 10 4.4375 10H1.9375C1.68886 10 1.4504 9.90518 1.27459 9.7364C1.09877 9.56761 1 9.3387 1 9.1V4.3ZM2.875 8.2C2.79212 8.2 2.71263 8.23161 2.65403 8.28787C2.59542 8.34413 2.5625 8.42044 2.5625 8.5C2.5625 8.57957 2.59542 8.65587 2.65403 8.71213C2.71263 8.76839 2.79212 8.8 2.875 8.8H3.5C3.58288 8.8 3.66237 8.76839 3.72097 8.71213C3.77958 8.65587 3.8125 8.57957 3.8125 8.5C3.8125 8.42044 3.77958 8.34413 3.72097 8.28787C3.66237 8.23161 3.58288 8.2 3.5 8.2H2.875Z" fill="currentColor" />
  </symbol>
  <symbol id="neurons-12" viewBox="0 0 12 12">
    <ns0:path xmlns:ns0="http://www.w3.org/2000/svg" d="M6 7.125C6.62132 7.125 7.125 6.62132 7.125 6C7.125 5.37868 6.62132 4.875 6 4.875C5.37868 4.875 4.875 5.37868 4.875 6C4.875 6.62132 5.37868 7.125 6 7.125Z" stroke="black" stroke-linecap="round" stroke-linejoin="round" />
  <ns0:path xmlns:ns0="http://www.w3.org/2000/svg" d="M4.5 3.75C5.12132 3.75 5.625 3.24632 5.625 2.625C5.625 2.00368 5.12132 1.5 4.5 1.5C3.87868 1.5 3.375 2.00368 3.375 2.625C3.375 3.24632 3.87868 3.75 4.5 3.75Z" stroke="black" stroke-linecap="round" stroke-linejoin="round" />
  <ns0:path xmlns:ns0="http://www.w3.org/2000/svg" d="M9.375 6C9.99632 6 10.5 5.49632 10.5 4.875C10.5 4.25368 9.99632 3.75 9.375 3.75C8.75368 3.75 8.25 4.25368 8.25 4.875C8.25 5.49632 8.75368 6 9.375 6Z" stroke="black" stroke-linecap="round" stroke-linejoin="round" />
  <ns0:path xmlns:ns0="http://www.w3.org/2000/svg" d="M9.375 9.75C9.99632 9.75 10.5 9.24632 10.5 8.625C10.5 8.00368 9.99632 7.5 9.375 7.5C8.75368 7.5 8.25 8.00368 8.25 8.625C8.25 9.24632 8.75368 9.75 9.375 9.75Z" stroke="black" stroke-linecap="round" stroke-linejoin="round" />
  <ns0:path xmlns:ns0="http://www.w3.org/2000/svg" d="M2.625 10.125C3.24632 10.125 3.75 9.62132 3.75 9C3.75 8.37868 3.24632 7.875 2.625 7.875C2.00368 7.875 1.5 8.37868 1.5 9C1.5 9.62132 2.00368 10.125 2.625 10.125Z" stroke="black" stroke-linecap="round" stroke-linejoin="round" />
  <ns0:path xmlns:ns0="http://www.w3.org/2000/svg" d="M5.54375 4.97422L4.95312 3.65234" stroke="black" stroke-linecap="round" stroke-linejoin="round" />
  <ns0:path xmlns:ns0="http://www.w3.org/2000/svg" d="M8.30781 5.23047L7.07031 5.64297" stroke="black" stroke-linecap="round" stroke-linejoin="round" />
  <ns0:path xmlns:ns0="http://www.w3.org/2000/svg" d="M8.48984 7.93438L6.88672 6.6875" stroke="black" stroke-linecap="round" stroke-linejoin="round" />
  <ns0:path xmlns:ns0="http://www.w3.org/2000/svg" d="M5.16172 6.74609L3.46484 8.25547" stroke="black" stroke-linecap="round" stroke-linejoin="round" />
  </symbol>
  <symbol id="speed-16" viewBox="0 0 16 16">
    <ns0:path xmlns:ns0="http://www.w3.org/2000/svg" fill-rule="evenodd" clip-rule="evenodd" d="M5.5521 2.36038C5.65346 2.14115 5.87933 2 6.1296 2H11.1206C11.5898 2 11.8958 2.4745 11.6856 2.87812L10.2659 5.6038H12.3669C12.93 5.6038 13.2116 6.25728 12.8137 6.63929L5.33499 13.8186C4.86323 14.2715 4.07739 13.8054 4.28886 13.1982L5.88308 8.60696H3.63191C3.52663 8.60696 3.42303 8.5817 3.3305 8.5335C3.23798 8.48529 3.15947 8.41566 3.10209 8.33093C3.04472 8.2462 3.01031 8.14905 3.00198 8.04831C2.99365 7.94756 3.01168 7.84642 3.05441 7.75406L5.5521 2.36038Z" fill="currentColor" />
  </symbol>
  <symbol id="instagram-20" viewBox="0 0 20 20">
    <ns0:path xmlns:ns0="http://www.w3.org/2000/svg" d="M10.8224 2.00098C11.4062 1.99874 11.9899 2.00461 12.5735 2.01858L12.7287 2.02418C12.9079 2.03058 13.0847 2.03858 13.2983 2.04818C14.1494 2.08818 14.7302 2.22258 15.2398 2.42017C15.7678 2.62336 16.2125 2.89855 16.6573 3.34334C17.064 3.74301 17.3787 4.22647 17.5797 4.76009C17.7773 5.26967 17.9116 5.85125 17.9516 6.70242C17.9612 6.91522 17.9692 7.09281 17.9756 7.272L17.9804 7.4272C17.9947 8.01053 18.0008 8.59404 17.9988 9.17754L17.9996 9.77432V10.8223C18.0016 11.4061 17.9955 11.9898 17.9812 12.5734L17.9764 12.7286C17.97 12.9078 17.962 13.0846 17.9524 13.2982C17.9124 14.1494 17.7765 14.7302 17.5797 15.2397C17.3794 15.7739 17.0646 16.2578 16.6573 16.6573C16.2573 17.0639 15.7736 17.3787 15.2398 17.5797C14.7302 17.7772 14.1494 17.9116 13.2983 17.9516C13.0847 17.9612 12.9079 17.9692 12.7287 17.9756L12.5735 17.9804C11.9899 17.9947 11.4062 18.0008 10.8224 17.9988L10.2256 17.9996H9.17849C8.59473 18.0016 8.01097 17.9955 7.42738 17.9812L7.27219 17.9764C7.08229 17.9696 6.89243 17.9616 6.70262 17.9524C5.85146 17.9124 5.27069 17.7764 4.76032 17.5797C4.22649 17.3791 3.74296 17.0643 3.34359 16.6573C2.93645 16.2575 2.62141 15.7738 2.42044 15.2397C2.22285 14.7302 2.08846 14.1494 2.04846 13.2982C2.03955 13.1084 2.03155 12.9185 2.02446 12.7286L2.02046 12.5734C2.00571 11.9898 1.99905 11.4061 2.00046 10.8223V9.17754C1.99823 8.59404 2.0041 8.01054 2.01806 7.4272L2.02366 7.272C2.03006 7.09281 2.03806 6.91522 2.04766 6.70242C2.08766 5.85045 2.22205 5.27047 2.41964 4.76009C2.62073 4.2262 2.93638 3.74288 3.34439 3.34414C3.74349 2.93675 4.22672 2.62142 4.76032 2.42017C5.27069 2.22258 5.85066 2.08818 6.70262 2.04818L7.27219 2.02418L7.42738 2.02018C8.0107 2.00544 8.59419 1.99878 9.17769 2.00018L10.8224 2.00098ZM10.0001 6.00085C9.47008 5.99335 8.94391 6.09126 8.45211 6.28889C7.96031 6.48652 7.5127 6.77992 7.13527 7.15205C6.75785 7.52418 6.45815 7.96761 6.25359 8.45657C6.04903 8.94554 5.94369 9.47028 5.94369 10.0003C5.94369 10.5303 6.04903 11.0551 6.25359 11.5441C6.45815 12.033 6.75785 12.4764 7.13527 12.8486C7.5127 13.2207 7.96031 13.5141 8.45211 13.7117C8.94391 13.9094 9.47008 14.0073 10.0001 13.9998C11.0609 13.9998 12.0782 13.5784 12.8283 12.8282C13.5784 12.0781 13.9998 11.0607 13.9998 9.99991C13.9998 8.93908 13.5784 7.9217 12.8283 7.17158C12.0782 6.42146 11.0609 6.00085 10.0001 6.00085ZM10.0001 7.60079C10.3188 7.59492 10.6356 7.65263 10.9318 7.77055C11.2281 7.88848 11.4978 8.06425 11.7254 8.28761C11.9529 8.51096 12.1337 8.77742 12.2571 9.07142C12.3805 9.36541 12.4441 9.68106 12.4441 9.9999C12.4442 10.3188 12.3807 10.6344 12.2574 10.9285C12.1341 11.2225 11.9534 11.489 11.726 11.7124C11.4985 11.9359 11.2288 12.1117 10.9326 12.2298C10.6364 12.3478 10.3196 12.4056 10.0009 12.3998C9.36436 12.3998 8.75395 12.147 8.30388 11.6969C7.85382 11.2468 7.60097 10.6364 7.60097 9.99991C7.60097 9.36341 7.85382 8.75299 8.30388 8.30291C8.75395 7.85284 9.36436 7.59999 10.0009 7.59999L10.0001 7.60079ZM14.1998 4.80089C13.9418 4.81122 13.6977 4.92101 13.5188 5.10726C13.3398 5.29351 13.2399 5.54177 13.2399 5.80005C13.2399 6.05834 13.3398 6.3066 13.5188 6.49285C13.6977 6.6791 13.9418 6.78889 14.1998 6.79922C14.465 6.79922 14.7194 6.69387 14.9069 6.50634C15.0944 6.31881 15.1998 6.06446 15.1998 5.79925C15.1998 5.53405 15.0944 5.2797 14.9069 5.09217C14.7194 4.90464 14.465 4.79929 14.1998 4.79929V4.80089Z" fill="currentColor" fill-opacity="0.25" />
  </symbol>
  <symbol id="certificate-12" viewBox="0 0 12 12">
    <ns0:path xmlns:ns0="http://www.w3.org/2000/svg" fill-rule="evenodd" clip-rule="evenodd" d="M9.625 2.25C9.98967 2.25 10.3398 2.39448 10.5977 2.65234C10.8555 2.91021 11 3.26033 11 3.625V8.375C11 8.73967 10.8555 9.08979 10.5977 9.34766C10.3398 9.60552 9.98967 9.75 9.625 9.75H2.375C2.01033 9.75 1.66021 9.60747 1.40234 9.34961C1.14472 9.09179 1 8.74437 1 8.37988V3.625C1 3.26033 1.14448 2.91021 1.40234 2.65234C1.66021 2.39448 2.01033 2.25 2.375 2.25H9.625ZM3.375 6.75C3.27554 6.75 3.1797 6.78905 3.10938 6.85938C3.03905 6.9297 3 7.02554 3 7.125C3 7.22446 3.03905 7.3203 3.10938 7.39062C3.1797 7.46095 3.27554 7.5 3.375 7.5H6.625C6.72446 7.5 6.8203 7.46095 6.89062 7.39062C6.96095 7.3203 7 7.22446 7 7.125C7 7.02554 6.96095 6.9297 6.89062 6.85938C6.8203 6.78905 6.72446 6.75 6.625 6.75H3.375ZM3.375 4.25C3.27554 4.25 3.1797 4.28905 3.10938 4.35938C3.03905 4.4297 3 4.52554 3 4.625C3 4.72446 3.03905 4.8203 3.10938 4.89062C3.1797 4.96095 3.27554 5 3.375 5H8.625C8.72446 5 8.8203 4.96095 8.89062 4.89062C8.96095 4.8203 9 4.72446 9 4.625C9 4.52554 8.96095 4.4297 8.89062 4.35938C8.8203 4.28905 8.72446 4.25 8.625 4.25H3.375Z" fill="currentColor" />
  </symbol>
  <symbol id="unlock-12" viewBox="0 0 12 12">
    <ns0:path xmlns:ns0="http://www.w3.org/2000/svg" d="M8.25 1.5C7.65326 1.5 7.08097 1.74953 6.65901 2.19369C6.23705 2.63786 6 3.24028 6 3.86842V5.28947H2.22C1.824 5.28947 1.5 5.63053 1.5 6.04737V9.36316C1.5 9.98842 1.986 10.5 2.58 10.5H6.72C7.314 10.5 7.8 9.98842 7.8 9.36316V6.04737C7.8 5.63053 7.476 5.28947 7.08 5.28947H6.9V3.86842C6.9 3.08305 7.5039 2.44737 8.25 2.44737C8.9961 2.44737 9.6 3.08305 9.6 3.86842V5.28947C9.6 5.4151 9.64741 5.53559 9.7318 5.62442C9.81619 5.71325 9.93065 5.76316 10.05 5.76316C10.1693 5.76316 10.2838 5.71325 10.3682 5.62442C10.4526 5.53559 10.5 5.4151 10.5 5.28947V3.86842C10.5 3.5574 10.4418 3.24942 10.3287 2.96207C10.2157 2.67472 10.0499 2.41362 9.84099 2.19369C9.63206 1.97377 9.38402 1.79931 9.11104 1.68029C8.83806 1.56126 8.54547 1.5 8.25 1.5Z" fill="currentColor" />
  </symbol>
  <symbol id="ui-20" viewBox="0 0 20 20">
    <ns0:path xmlns:ns0="http://www.w3.org/2000/svg" d="M7.15789 14.7368H5.26316C4.92815 14.7368 4.60686 14.6038 4.36997 14.3669C4.13308 14.13 4 13.8087 4 13.4737V5.89474C4 5.55973 4.13308 5.23844 4.36997 5.00155C4.60686 4.76466 4.92815 4.63158 5.26316 4.63158H7.15789C7.4929 4.63158 7.81419 4.76466 8.05108 5.00155C8.28797 5.23844 8.42105 5.55973 8.42105 5.89474V13.4737C8.42105 13.8087 8.28797 14.13 8.05108 14.3669C7.81419 14.6038 7.4929 14.7368 7.15789 14.7368ZM12.2105 8.42105H14.7368C15.0719 8.42105 15.3931 8.28797 15.63 8.05108C15.8669 7.81419 16 7.4929 16 7.15789V5.26316C16 4.92815 15.8669 4.60686 15.63 4.36997C15.3931 4.13308 15.0719 4 14.7368 4H12.2105C11.8755 4 11.5542 4.13308 11.3173 4.36997C11.0805 4.60686 10.9474 4.92815 10.9474 5.26316V7.15789C10.9474 7.4929 11.0805 7.81419 11.3173 8.05108C11.5542 8.28797 11.8755 8.42105 12.2105 8.42105ZM15.3684 14.7368V10.9474C15.3684 10.6124 15.2353 10.2911 14.9984 10.0542C14.7616 9.81729 14.4403 9.68421 14.1053 9.68421H10.9474C10.6124 9.68421 10.2911 9.81729 10.0542 10.0542C9.81729 10.2911 9.68421 10.6124 9.68421 10.9474V14.7368C9.68421 15.0719 9.81729 15.3931 10.0542 15.63C10.2911 15.8669 10.6124 16 10.9474 16H14.1053C14.4403 16 14.7616 15.8669 14.9984 15.63C15.2353 15.3931 15.3684 15.0719 15.3684 14.7368Z" fill="currentColor" />
  </symbol>
  <symbol id="spark-20" viewBox="0 0 20 20">
    <ns0:path xmlns:ns0="http://www.w3.org/2000/svg" d="M8.40614 3.63987C8.90977 2.16607 10.9461 2.12144 11.5432 3.50597L11.5938 3.64071L12.2734 5.62824C12.4292 6.08405 12.6809 6.50115 13.0115 6.85142C13.3422 7.20169 13.7441 7.47698 14.1902 7.65871L14.373 7.72692L16.3605 8.40571C17.8343 8.90933 17.8789 10.9457 16.4952 11.5428L16.3605 11.5933L14.373 12.273C13.917 12.4286 13.4997 12.6803 13.1493 13.0109C12.7989 13.3416 12.5235 13.7436 12.3416 14.1897L12.2734 14.3716L11.5946 16.36C11.091 17.8338 9.05462 17.8784 8.45836 16.4948L8.40614 16.36L7.72735 14.3725C7.5717 13.9165 7.32005 13.4993 6.98939 13.1488C6.65872 12.7984 6.25674 12.523 5.81056 12.3412L5.62865 12.273L3.64111 11.5942C2.16646 11.0906 2.12183 9.05418 3.50636 8.45793L3.64111 8.40571L5.62865 7.72692C6.08446 7.57117 6.50157 7.31948 6.85184 6.98882C7.20212 6.65816 7.4774 6.25623 7.65913 5.81014L7.72735 5.62824L8.40614 3.63987Z" fill="currentColor" />
  </symbol>
  <symbol id="arrow-right-20" viewBox="0 0 20 20">
    <ns0:path xmlns:ns0="http://www.w3.org/2000/svg" d="M13.6531 10.8749L8.75312 15.7749L10 16.9999L17 9.99994L10 2.99994L8.75313 4.22494L13.6531 9.12494L3 9.12494L3 10.8749L13.6531 10.8749Z" fill="currentColor" />
  </symbol>
  <symbol id="sparkles-12" viewBox="0 0 12 12">
    <ns0:path xmlns:ns0="http://www.w3.org/2000/svg" d="M4.31146 8.01473C4.39598 8.07442 4.49272 8.11456 4.59467 8.13224C4.69662 8.14993 4.80123 8.14471 4.90092 8.11698C5.0006 8.08925 5.09288 8.03969 5.17105 7.9719C5.24922 7.90411 5.31133 7.81978 5.35289 7.72502L5.68289 6.72216C5.76315 6.48088 5.8985 6.26162 6.07823 6.08174C6.25795 5.90187 6.47711 5.76633 6.71832 5.68588L7.67746 5.3743C7.81379 5.32688 7.93167 5.23764 8.01432 5.1193C8.07813 5.02959 8.1197 4.92598 8.13558 4.81704C8.15147 4.70809 8.14122 4.59693 8.10567 4.49273C8.07013 4.38853 8.01031 4.29427 7.93116 4.21774C7.85201 4.14122 7.7558 4.08461 7.65046 4.05259L6.70118 3.74402C6.45983 3.66396 6.24045 3.52879 6.06043 3.34921C5.88041 3.16963 5.74469 2.95059 5.66403 2.70945L5.35246 1.75073C5.30456 1.6149 5.21559 1.49733 5.09789 1.4143C4.97949 1.33266 4.83907 1.28894 4.69525 1.28894C4.55143 1.28894 4.411 1.33266 4.2926 1.4143C4.17308 1.49882 4.08314 1.61876 4.03546 1.75716L3.72003 2.72788C3.63957 2.96276 3.50673 3.17626 3.33158 3.35223C3.15642 3.5282 2.94354 3.66203 2.70903 3.74359L1.74903 4.05473C1.61243 4.10302 1.49427 4.19269 1.411 4.31126C1.32774 4.42983 1.2835 4.5714 1.28444 4.71628C1.28538 4.86117 1.33146 5.00216 1.41627 5.11963C1.50107 5.23711 1.62038 5.32523 1.7576 5.37173L2.70732 5.6803C3.01522 5.78364 3.2859 5.97532 3.4856 6.23145C3.5996 6.37845 3.68746 6.54345 3.74532 6.72002L4.05732 7.67745C4.10532 7.81373 4.19446 7.93159 4.31232 8.01473M8.48832 10.6204C8.57554 10.6821 8.6798 10.715 8.7866 10.7147C8.89269 10.7151 8.99628 10.6826 9.08318 10.6217C9.17265 10.5586 9.23961 10.4685 9.27432 10.3646L9.43375 9.87473C9.46747 9.77303 9.52441 9.68058 9.60006 9.6047C9.67572 9.52883 9.768 9.47161 9.8696 9.43759L10.3693 9.27559C10.4701 9.23979 10.5573 9.17371 10.6191 9.0864C10.6809 8.99909 10.7141 8.89482 10.7143 8.78788C10.7143 8.67813 10.6792 8.57126 10.6141 8.48289C10.5491 8.39452 10.4574 8.32929 10.3526 8.29673L9.86232 8.13816C9.76057 8.1044 9.66809 8.04739 9.59221 7.97166C9.51633 7.89593 9.45914 7.80356 9.42518 7.70188L9.26232 7.20345C9.2272 7.10172 9.16105 7.01357 9.07319 6.95142C8.98533 6.88927 8.88019 6.85625 8.77257 6.85701C8.66495 6.85777 8.56029 6.89226 8.47331 6.95564C8.38633 7.01902 8.32143 7.10809 8.28775 7.2103L8.12746 7.70145C8.09461 7.80182 8.03916 7.89332 7.96538 7.96888C7.8916 8.04445 7.80145 8.10207 7.70189 8.1373L7.20218 8.2993C7.10117 8.33498 7.01369 8.40107 6.95176 8.48847C6.88983 8.57588 6.85649 8.68032 6.85632 8.78745C6.85643 8.89549 6.89056 9.00075 6.95388 9.08829C7.01719 9.17584 7.10646 9.24122 7.20903 9.27516L7.69932 9.43459C7.80146 9.46827 7.89425 9.5255 7.97019 9.60166C8.04613 9.67782 8.10308 9.77078 8.13646 9.87302L8.29889 10.3714C8.33433 10.4721 8.40024 10.5593 8.48746 10.6209" fill="currentColor" fill-opacity="0.9" />
  </symbol>
  <symbol id="dropdown-arrow-up-12" viewBox="0 0 12 12">
    <ns0:path xmlns:ns0="http://www.w3.org/2000/svg" d="M1.5 8L6 4L10.5 8" stroke="black" stroke-opacity="0.4" stroke-width="1.5" />
  </symbol>
  <symbol id="star-16" viewBox="0 0 16 16">
    <ns0:path xmlns:ns0="http://www.w3.org/2000/svg" d="M7.9997 12.053L5.09127 13.8875C4.96278 13.9731 4.82845 14.0098 4.68829 13.9975C4.54812 13.9853 4.42548 13.9364 4.32035 13.8508C4.21523 13.7652 4.13347 13.6583 4.07506 13.5301C4.01666 13.4019 4.00498 13.2581 4.04002 13.0986L4.81093 9.63147L2.23539 7.30167C2.11859 7.1916 2.0457 7.06612 2.01673 6.92523C1.98777 6.78434 1.99641 6.64688 2.04266 6.51284C2.08892 6.3788 2.159 6.26873 2.25291 6.18263C2.34682 6.09653 2.47531 6.0415 2.63837 6.01753L6.03738 5.70566L7.35144 2.44028C7.40984 2.29352 7.50048 2.18345 7.62336 2.11007C7.74624 2.03669 7.87168 2 7.9997 2C8.12772 2 8.25317 2.03669 8.37605 2.11007C8.49892 2.18345 8.58956 2.29352 8.64797 2.44028L9.96202 5.70566L13.361 6.01753C13.5246 6.04199 13.653 6.09702 13.7465 6.18263C13.8399 6.26824 13.91 6.37831 13.9567 6.51284C14.0035 6.64737 14.0123 6.78508 13.9834 6.92596C13.9544 7.06685 13.8813 7.19209 13.764 7.30167L11.1885 9.63147L11.9594 13.0986C11.9944 13.2576 11.9827 13.4015 11.9243 13.5301C11.8659 13.6588 11.7842 13.7657 11.679 13.8508C11.5739 13.9359 11.4513 13.9848 11.3111 13.9975C11.1709 14.0103 11.0366 13.9736 10.9081 13.8875L7.9997 12.053Z" fill="currentColor" fill-opacity="0.4" />
  </symbol>
  <symbol id="arrow-up-16" viewBox="0 0 16 16">
    <ns0:path xmlns:ns0="http://www.w3.org/2000/svg" d="M8.6875 5.12969L12.5375 8.97969L13.5 8L8 2.5L2.5 8L3.4625 8.97969L7.3125 5.12969L7.3125 13.5L8.6875 13.5L8.6875 5.12969Z" fill="currentColor" />
  </symbol>
  <symbol id="search-20" viewBox="0 0 20 20">
    <ns0:path xmlns:ns0="http://www.w3.org/2000/svg" d="M8.33317 2.29169C11.6699 2.29169 14.3748 4.99663 14.3748 8.33335C14.3748 9.77658 13.8688 11.1016 13.0245 12.1407L17.1084 16.2247C17.3525 16.4688 17.3525 16.8646 17.1084 17.1086C16.8866 17.3305 16.5393 17.3507 16.2947 17.1691L16.2246 17.1086L12.1405 13.0246C11.1014 13.869 9.7764 14.375 8.33317 14.375C4.99645 14.375 2.2915 11.6701 2.2915 8.33335C2.2915 4.99663 4.99645 2.29169 8.33317 2.29169ZM8.33317 3.54169C5.68681 3.54169 3.5415 5.68699 3.5415 8.33335C3.5415 10.9797 5.68681 13.125 8.33317 13.125C10.9795 13.125 13.1248 10.9797 13.1248 8.33335C13.1248 5.68699 10.9795 3.54169 8.33317 3.54169Z" fill="currentColor"/>
  <ns0:path xmlns:ns0="http://www.w3.org/2000/svg" d="M8.3335 2.19208C11.7253 2.19225 14.4751 4.94184 14.4751 8.33368C14.475 9.7681 13.982 11.0872 13.1577 12.1325L17.1792 16.154C17.4623 16.4371 17.4623 16.8963 17.1792 17.1794C16.9217 17.4368 16.5188 17.4603 16.2349 17.2497L16.229 17.2448L16.1597 17.1843L16.1538 17.1794L12.1323 13.1579C11.087 13.9822 9.76791 14.4752 8.3335 14.4753C4.94166 14.4753 2.19207 11.7255 2.19189 8.33368C2.19189 4.94173 4.94155 2.19208 8.3335 2.19208ZM8.3335 3.6413C5.74236 3.6413 3.64111 5.74254 3.64111 8.33368C3.64129 10.9247 5.74247 13.0251 8.3335 13.0251C10.9244 13.0249 13.0247 10.9246 13.0249 8.33368C13.0249 5.74265 10.9245 3.64147 8.3335 3.6413Z" stroke="black" stroke-opacity="0.4" stroke-width="0.2" />
  </symbol>
  <symbol id="yt-20" viewBox="0 0 20 20">
    <ns0:path xmlns:ns0="http://www.w3.org/2000/svg" d="M8.6 13L13.5305 10L8.6 7V13ZM19.582 5.17C19.7055 5.64 19.791 6.27 19.848 7.07C19.9145 7.87 19.943 8.56 19.943 9.16L20 10C20 12.19 19.848 13.8 19.582 14.83C19.3445 15.73 18.7935 16.31 17.9385 16.56C17.492 16.69 16.675 16.78 15.421 16.84C14.186 16.91 13.0555 16.94 12.0105 16.94L10.5 17C6.5195 17 4.04 16.84 3.0615 16.56C2.2065 16.31 1.6555 15.73 1.418 14.83C1.2945 14.36 1.209 13.73 1.152 12.93C1.0855 12.13 1.057 11.44 1.057 10.84L1 10C1 7.81 1.152 6.2 1.418 5.17C1.6555 4.27 2.2065 3.69 3.0615 3.44C3.508 3.31 4.325 3.22 5.579 3.16C6.814 3.09 7.9445 3.06 8.9895 3.06L10.5 3C14.4805 3 16.96 3.16 17.9385 3.44C18.7935 3.69 19.3445 4.27 19.582 5.17Z" fill="currentColor" fill-opacity="0.25" />
  </symbol>
  <symbol id="time-12" viewBox="0 0 12 12">
    <ns0:path xmlns:ns0="http://www.w3.org/2000/svg" d="M6 1.125C3.30773 1.125 1.125 3.30773 1.125 6C1.125 8.69227 3.30773 10.875 6 10.875C8.69227 10.875 10.875 8.69227 10.875 6C10.875 3.30773 8.69227 1.125 6 1.125ZM8.25 6.75H6C5.90054 6.75 5.80516 6.71049 5.73484 6.64017C5.66451 6.56984 5.625 6.47446 5.625 6.375V3C5.625 2.90054 5.66451 2.80516 5.73484 2.73484C5.80516 2.66451 5.90054 2.625 6 2.625C6.09946 2.625 6.19484 2.66451 6.26517 2.73484C6.33549 2.80516 6.375 2.90054 6.375 3V6H8.25C8.34946 6 8.44484 6.03951 8.51517 6.10983C8.58549 6.18016 8.625 6.27554 8.625 6.375C8.625 6.47446 8.58549 6.56984 8.51517 6.64017C8.44484 6.71049 8.34946 6.75 8.25 6.75Z" fill="currentColor" fill-opacity="0.5" />
  </symbol>
  <symbol id="percent-16" viewBox="0 0 16 16">
    <ns0:path xmlns:ns0="http://www.w3.org/2000/svg" d="M5.5 7.29165C6.8817 7.29165 8 6.18266 8 4.81248C8 3.4423 6.8817 2.33331 5.5 2.33331C4.1183 2.33331 3 3.4423 3 4.81248C3 6.18266 4.1183 7.29165 5.5 7.29165ZM5.5 3.74998C6.09152 3.74998 6.57143 4.22589 6.57143 4.81248C6.57143 5.39907 6.09152 5.87498 5.5 5.87498C4.90848 5.87498 4.42857 5.39907 4.42857 4.81248C4.42857 4.22589 4.90848 3.74998 5.5 3.74998ZM10.5 8.70831C9.1183 8.70831 8 9.8173 8 11.1875C8 12.5577 9.1183 13.6666 10.5 13.6666C11.8817 13.6666 13 12.5577 13 11.1875C13 9.8173 11.8817 8.70831 10.5 8.70831ZM10.5 12.25C9.90848 12.25 9.42857 11.7741 9.42857 11.1875C9.42857 10.6009 9.90848 10.125 10.5 10.125C11.0915 10.125 11.5714 10.6009 11.5714 11.1875C11.5714 11.7741 11.0915 12.25 10.5 12.25ZM11.7567 2.33774L12.4621 2.33553C12.8951 2.33331 13.1518 2.81808 12.9018 3.17225L4.72768 13.4364C4.67839 13.5061 4.6129 13.563 4.53675 13.6023C4.4606 13.6416 4.37603 13.6622 4.29018 13.6622L3.54464 13.6644C3.10937 13.6644 2.85491 13.1797 3.10491 12.8277L11.3192 2.56352C11.4196 2.42185 11.5826 2.33774 11.7567 2.33774Z" fill="currentColor" />
  </symbol>
  <symbol id="animation" viewBox="0 0 20 20">
    <ns0:path xmlns:ns0="http://www.w3.org/2000/svg" d="M4.19831 12.3047C3.82519 12.8116 3.65156 13.438 3.71048 14.0647C3.76941 14.6913 4.05678 15.2744 4.51785 15.7029C4.97893 16.1313 5.58149 16.3752 6.21078 16.3881C6.84006 16.401 7.4521 16.1819 7.93031 15.7727C7.03876 15.6193 6.21114 15.2097 5.54844 14.5938C4.88574 13.978 4.41662 13.1826 4.19831 12.3047Z" fill="currentColor" />
  <ns0:path xmlns:ns0="http://www.w3.org/2000/svg" d="M5.87424 8.60938C5.21865 9.33458 4.86434 10.2825 4.88355 11.26C4.90277 12.2374 5.29405 13.1707 5.97763 13.8696C6.66122 14.5685 7.58562 14.9803 8.56238 15.0211C9.53914 15.062 10.4947 14.7288 11.2342 14.0894C9.81504 14.0184 8.47482 13.4147 7.48122 12.3989C6.48762 11.3831 5.91376 10.0298 5.87424 8.60938Z" fill="currentColor" />
  <ns0:path xmlns:ns0="http://www.w3.org/2000/svg" d="M11.5121 3.60156C12.4704 3.60157 13.4072 3.8856 14.2042 4.41777C15.0012 4.94995 15.6226 5.7064 15.9899 6.59155C16.3572 7.47671 16.4539 8.45086 16.2678 9.39096C16.0817 10.331 15.6212 11.1949 14.9444 11.8734C14.2675 12.5519 13.4048 13.0145 12.4652 13.2029C11.5256 13.3914 10.5512 13.2971 9.66513 12.932C8.77907 12.5669 8.02109 11.9474 7.48694 11.1517C6.95279 10.356 6.66645 9.41989 6.66408 8.46156C6.6625 7.8239 6.78673 7.1922 7.02966 6.60263C7.27259 6.01306 7.62944 5.4772 8.07977 5.02575C8.53011 4.5743 9.06508 4.21612 9.65405 3.97174C10.243 3.72735 10.8744 3.60156 11.5121 3.60156Z" fill="currentColor" />
  </symbol>
  <symbol id="cross-16" viewBox="0 0 16 16">
    <ns0:path xmlns:ns0="http://www.w3.org/2000/svg" d="M12.2426 3.75735L3.75736 12.2426M3.75736 3.75735L12.2426 12.2426" stroke="black" stroke-width="1.3" />
  </symbol>
  <symbol id="join-12" viewBox="0 0 12 12">
    <ns0:path xmlns:ns0="http://www.w3.org/2000/svg" d="M5.9751 10C5.10704 10 4.36919 9.68889 3.76156 9.06667C3.15392 8.44444 2.8501 7.68889 2.8501 6.8H3.89176C3.89176 7.38667 4.09576 7.88889 4.50374 8.30667C4.91173 8.72445 5.40218 8.93333 5.9751 8.93333C6.54801 8.93333 7.03847 8.72445 7.44645 8.30667C7.85444 7.88889 8.05843 7.38667 8.05843 6.8H9.1001C9.1001 7.68889 8.79628 8.44444 8.18864 9.06667C7.581 9.68889 6.84315 10 5.9751 10ZM5.9751 7.32L3.89176 5.18667L4.62093 4.42667L5.45426 5.28V2H6.49593V5.28L7.32926 4.42667L8.05843 5.18667L5.9751 7.32Z" fill="currentColor" />
  </symbol>
  <symbol id="shield-12" viewBox="0 0 12 12">
    <ns0:path xmlns:ns0="http://www.w3.org/2000/svg" fill-rule="evenodd" clip-rule="evenodd" d="M10 2.5V5.5498C10 6.8164 9.62306 7.96872 8.86914 9.00635C8.11514 10.044 7.15867 10.7087 6 11C4.84167 10.7083 3.88519 10.0435 3.13086 9.00586C2.3766 7.96823 1.99967 6.81607 2 5.5498V2.5L6 1L10 2.5ZM7.54346 4.39502L5.39844 6.57471L4.45654 5.61719L4.34961 5.50879L4.24268 5.61719L3.89307 5.97266L3.78955 6.07812L3.89307 6.18311L5.39893 7.71387L8.10693 4.96094L8.21045 4.85547L8.10693 4.75049L7.65039 4.28613L7.54346 4.39502Z" fill="currentColor" />
  </symbol>
  <symbol id="spark-12" viewBox="0 0 12 12">
    <ns0:path xmlns:ns0="http://www.w3.org/2000/svg" d="M5.04388 2.18392C5.34605 1.29964 6.56788 1.27286 6.92614 2.10358L6.95646 2.18443L7.36424 3.37694C7.4577 3.65043 7.60871 3.90069 7.80711 4.11085C8.0055 4.32102 8.24666 4.48619 8.51432 4.59523L8.62397 4.63615L9.81649 5.04343C10.7008 5.3456 10.7276 6.56742 9.89734 6.92568L9.81649 6.956L8.62397 7.36378C8.35039 7.45717 8.10002 7.60815 7.88977 7.80655C7.67952 8.00495 7.51427 8.24614 7.40517 8.51384L7.36424 8.62299L6.95697 9.81601C6.6548 10.7003 5.43297 10.7271 5.07521 9.89686L5.04388 9.81601L4.63661 8.62349C4.54321 8.34991 4.39223 8.09955 4.19383 7.8893C3.99543 7.67905 3.75424 7.5138 3.48653 7.40471L3.37738 7.36378L2.18486 6.9565C1.30007 6.65433 1.27329 5.43251 2.10401 5.07476L2.18486 5.04343L3.37738 4.63615C3.65087 4.5427 3.90114 4.39169 4.1113 4.19329C4.32146 3.9949 4.48664 3.75374 4.59568 3.48609L4.63661 3.37694L5.04388 2.18392Z" fill="currentColor" />
  </symbol>
  <symbol id="arrow-left-16" viewBox="0 0 16 16">
    <ns0:path xmlns:ns0="http://www.w3.org/2000/svg" d="M5.12969 7.3125L8.97969 3.4625L8 2.5L2.5 8L8 13.5L8.97969 12.5375L5.12969 8.6875L13.5 8.6875L13.5 7.3125L5.12969 7.3125Z" fill="currentColor" />
  </symbol>
  <symbol id="dropdown-arrow-down-12" viewBox="0 0 12 12">
    <ns0:path xmlns:ns0="http://www.w3.org/2000/svg" d="M1.5 4L6 8L10.5 4" stroke="black" stroke-opacity="0.4" stroke-width="1.5" />
  </symbol>
  <symbol id="arrow-left-16-1" viewBox="0 0 16 16">
    <ns0:path xmlns:ns0="http://www.w3.org/2000/svg" d="M10 3L5 8L10 13" stroke="black" stroke-opacity="0.3" stroke-width="1.5" />
  </symbol>
  <symbol id="spark-16" viewBox="0 0 16 16">
    <ns0:path xmlns:ns0="http://www.w3.org/2000/svg" d="M6.72501 2.9119C7.12791 1.73286 8.75701 1.69715 9.2347 2.80477L9.27512 2.91257L9.81883 4.50259C9.94343 4.86724 10.1448 5.20092 10.4093 5.48114C10.6738 5.76135 10.9954 5.98158 11.3523 6.12697L11.4985 6.18154L13.0885 6.72457C14.2675 7.12747 14.3032 8.75656 13.1963 9.23424L13.0885 9.27466L11.4985 9.81837C11.1337 9.94289 10.7999 10.1442 10.5195 10.4087C10.2392 10.6733 10.0189 10.9949 9.8734 11.3518L9.81883 11.4973L9.27579 13.088C8.8729 14.2671 7.24379 14.3028 6.76678 13.1958L6.72501 13.088L6.18198 11.498C6.05746 11.1332 5.85614 10.7994 5.59161 10.5191C5.32708 10.2387 5.00549 10.0184 4.64854 9.87294L4.50302 9.81837L2.91299 9.27534C1.73327 8.87244 1.69756 7.24335 2.80519 6.76634L2.91299 6.72457L4.50302 6.18154C4.86767 6.05694 5.20136 5.85558 5.48157 5.59106C5.76179 5.32653 5.98202 5.00499 6.1274 4.64812L6.18198 4.50259L6.72501 2.9119Z" fill="currentColor" />
  </symbol>
  <symbol id="arrow-up-20" viewBox="0 0 20 20">
    <ns0:path xmlns:ns0="http://www.w3.org/2000/svg" d="M10.6875 7.12969L14.5375 10.9797L15.5 10L10 4.5L4.5 10L5.4625 10.9797L9.3125 7.12969L9.3125 15.5L10.6875 15.5L10.6875 7.12969Z" fill="currentColor" />
  </symbol>
  <symbol id="support-16" viewBox="0 0 16 16">
    <ns0:path xmlns:ns0="http://www.w3.org/2000/svg" d="M8 2C4.6916 2 2 4.6916 2 8V10.4858C2 11.1002 2.5382 11.6 3.2 11.6H3.8C3.95913 11.6 4.11174 11.5368 4.22426 11.4243C4.33679 11.3117 4.4 11.1591 4.4 11V7.9142C4.4 7.75507 4.33679 7.60246 4.22426 7.48994C4.11174 7.37741 3.95913 7.3142 3.8 7.3142H3.2552C3.5888 4.9922 5.5868 3.2 8 3.2C10.4132 3.2 12.4112 4.9922 12.7448 7.3142H12.2C12.0409 7.3142 11.8883 7.37741 11.7757 7.48994C11.6632 7.60246 11.6 7.75507 11.6 7.9142V11.6C11.6 12.2618 11.0618 12.8 10.4 12.8H9.2V12.2H6.8V14H10.4C11.7236 14 12.8 12.9236 12.8 11.6C13.4618 11.6 14 11.1002 14 10.4858V8C14 4.6916 11.3084 2 8 2Z" fill="#435700" />
  </symbol>
  <symbol id="arrow-right-16" viewBox="0 0 16 16">
    <ns0:path xmlns:ns0="http://www.w3.org/2000/svg" d="M10.8703 8.6875L7.02031 12.5375L8 13.5L13.5 8L8 2.5L7.02031 3.4625L10.8703 7.3125L2.5 7.3125L2.5 8.6875L10.8703 8.6875Z" fill="currentColor" />
  </symbol>
  <symbol id="star-20" viewBox="0 0 20 20">
    <ns0:path xmlns:ns0="http://www.w3.org/2000/svg" d="M9.99963 15.0662L6.36408 17.3593C6.20348 17.4664 6.03557 17.5122 5.86036 17.4969C5.68515 17.4816 5.53185 17.4205 5.40044 17.3135C5.26904 17.2065 5.16683 17.0729 5.09383 16.9126C5.02083 16.7524 5.00623 16.5727 5.05003 16.3733L6.01367 12.0393L2.79424 9.12708C2.64823 8.9895 2.55713 8.83265 2.52092 8.65654C2.48471 8.48043 2.49551 8.3086 2.55333 8.14105C2.61115 7.9735 2.69875 7.83591 2.81614 7.72829C2.93353 7.62066 3.09413 7.55187 3.29796 7.52191L7.54673 7.13208L9.18929 3.05035C9.2623 2.8669 9.3756 2.72931 9.5292 2.63759C9.68279 2.54586 9.8396 2.5 9.99963 2.5C10.1596 2.5 10.3165 2.54586 10.4701 2.63759C10.6237 2.72931 10.737 2.8669 10.81 3.05035L12.4525 7.13208L16.7013 7.52191C16.9057 7.55248 17.0663 7.62128 17.1831 7.72829C17.2999 7.8353 17.3875 7.97289 17.4459 8.14105C17.5043 8.30921 17.5154 8.48135 17.4792 8.65746C17.443 8.83357 17.3516 8.99011 17.205 9.12708L13.9856 12.0393L14.9492 16.3733C14.993 16.572 14.9784 16.7518 14.9054 16.9126C14.8324 17.0735 14.7302 17.2071 14.5988 17.3135C14.4674 17.4199 14.3141 17.481 14.1389 17.4969C13.9637 17.5128 13.7958 17.467 13.6352 17.3593L9.99963 15.0662Z" fill="currentColor" fill-opacity="0.4" />
  </symbol>
  <symbol id="sparkles-16" viewBox="0 0 16 16">
    <ns0:path xmlns:ns0="http://www.w3.org/2000/svg" d="M5.74845 10.6863C5.86115 10.7659 5.99014 10.8194 6.12607 10.843C6.262 10.8665 6.40148 10.8596 6.53439 10.8226C6.66731 10.7856 6.79034 10.7196 6.89457 10.6292C6.99879 10.5388 7.08161 10.4264 7.13702 10.3L7.57702 8.96286C7.68403 8.64116 7.86451 8.34881 8.10414 8.10897C8.34378 7.86914 8.63598 7.68842 8.9576 7.58115L10.2365 7.16572C10.4182 7.10248 10.5754 6.9835 10.6856 6.82572C10.7707 6.7061 10.8261 6.56796 10.8473 6.4227C10.8685 6.27744 10.8548 6.12922 10.8074 5.99029C10.76 5.85135 10.6803 5.72568 10.5747 5.62364C10.4692 5.5216 10.3409 5.44612 10.2005 5.40343L8.93474 4.992C8.61295 4.88526 8.32044 4.70503 8.08041 4.46559C7.84038 4.22616 7.65942 3.9341 7.55188 3.61258L7.13645 2.33429C7.07258 2.15318 6.95396 1.99641 6.79702 1.88572C6.63916 1.77686 6.45193 1.71857 6.26017 1.71857C6.06841 1.71857 5.88118 1.77686 5.72331 1.88572C5.56395 1.99841 5.44402 2.15832 5.38045 2.34286L4.95988 3.63715C4.85259 3.95032 4.67548 4.235 4.44194 4.46962C4.2084 4.70425 3.92456 4.88269 3.61188 4.99143L2.33188 5.40629C2.14974 5.47067 1.9922 5.59023 1.88118 5.74832C1.77015 5.90641 1.71116 6.09518 1.71242 6.28836C1.71368 6.48154 1.77512 6.66952 1.88819 6.82615C2.00126 6.98279 2.16035 7.10028 2.34331 7.16229L3.60959 7.57372C4.02014 7.71149 4.38104 7.96707 4.64731 8.30858C4.79931 8.50458 4.91645 8.72458 4.99359 8.96L5.40959 10.2366C5.47359 10.4183 5.59245 10.5754 5.7496 10.6863M11.3176 14.1606C11.4339 14.2428 11.5729 14.2867 11.7153 14.2863C11.8568 14.2867 11.9949 14.2434 12.1107 14.1623C12.23 14.0781 12.3193 13.9579 12.3656 13.8194L12.5782 13.1663C12.6231 13.0307 12.6991 12.9074 12.7999 12.8062C12.9008 12.7051 13.0238 12.6288 13.1593 12.5834L13.8256 12.3674C13.96 12.3197 14.0763 12.2316 14.1586 12.1152C14.241 11.9988 14.2853 11.8597 14.2856 11.7171C14.2856 11.5708 14.2388 11.4283 14.152 11.3105C14.0652 11.1927 13.9431 11.1057 13.8033 11.0623L13.1496 10.8509C13.0139 10.8058 12.8906 10.7298 12.7894 10.6289C12.6883 10.5279 12.612 10.4047 12.5667 10.2691L12.3496 9.60458C12.3028 9.46894 12.2146 9.35141 12.0974 9.26855C11.9803 9.18568 11.8401 9.14165 11.6966 9.14266C11.5531 9.14367 11.4136 9.18967 11.2976 9.27417C11.1816 9.35868 11.0951 9.47744 11.0502 9.61372L10.8365 10.2686C10.7927 10.4024 10.7187 10.5244 10.6203 10.6252C10.522 10.7259 10.4018 10.8027 10.269 10.8497L9.60274 11.0657C9.46806 11.1133 9.35142 11.2014 9.26885 11.3179C9.18628 11.4345 9.14182 11.5737 9.1416 11.7166C9.14174 11.8606 9.18726 12.001 9.27167 12.1177C9.35609 12.2344 9.47512 12.3216 9.61188 12.3669L10.2656 12.5794C10.4018 12.6243 10.5255 12.7006 10.6268 12.8022C10.728 12.9037 10.804 13.0277 10.8485 13.164L11.065 13.8286C11.1123 13.9628 11.2002 14.0791 11.3165 14.1611" fill="currentColor" fill-opacity="0.9" />
  </symbol>
  <symbol id="marketplace-20" viewBox="0 0 20 20">
    <ns0:path xmlns:ns0="http://www.w3.org/2000/svg" d="M14.0013 5.9987H12.668C12.668 4.52536 11.4746 3.33203 10.0013 3.33203C8.52797 3.33203 7.33464 4.52536 7.33464 5.9987H6.0013C5.26797 5.9987 4.66797 6.5987 4.66797 7.33203V15.332C4.66797 16.0654 5.26797 16.6654 6.0013 16.6654H14.0013C14.7346 16.6654 15.3346 16.0654 15.3346 15.332V7.33203C15.3346 6.5987 14.7346 5.9987 14.0013 5.9987ZM8.66797 8.66536C8.66797 9.03203 8.36797 9.33203 8.0013 9.33203C7.63464 9.33203 7.33464 9.03203 7.33464 8.66536V7.33203H8.66797V8.66536ZM10.0013 4.66536C10.7346 4.66536 11.3346 5.26536 11.3346 5.9987H8.66797C8.66797 5.26536 9.26797 4.66536 10.0013 4.66536ZM12.668 8.66536C12.668 9.03203 12.368 9.33203 12.0013 9.33203C11.6346 9.33203 11.3346 9.03203 11.3346 8.66536V7.33203H12.668V8.66536Z" fill="currentColor" />
  </symbol>
  <symbol id="vk-20" viewBox="0 0 20 20">
    <ns0:path xmlns:ns0="http://www.w3.org/2000/svg" fill-rule="evenodd" clip-rule="evenodd" d="M19.5625 4.80526C19.6962 4.33158 19.5625 4 18.9388 4H16.8598C16.3252 4 16.0876 4.3 15.954 4.63158C15.954 4.63158 14.8996 7.37895 13.3998 9.14737C12.9097 9.66842 12.7018 9.82632 12.4345 9.82632C12.3009 9.82632 12.1078 9.66842 12.1078 9.19474V4.80526C12.1078 4.23684 11.9593 4 11.5138 4H8.24681C7.92011 4 7.71221 4.26842 7.71221 4.50526C7.71221 5.0421 8.45472 5.16842 8.54382 6.65263V9.90526C8.54382 10.6158 8.42502 10.7421 8.15771 10.7421C7.45976 10.7421 5.73716 7.99474 4.72736 4.83684C4.51946 4.25263 4.32641 4 3.79181 4H1.7128C1.1188 4 1 4.3 1 4.63158C1 5.21579 1.69795 8.12105 4.28186 11.9579C6.00446 14.5789 8.42502 16 10.6228 16C11.9445 16 12.1078 15.6842 12.1078 15.1474V13.1579C12.1078 12.5263 12.2266 12.4 12.6573 12.4C12.9691 12.4 13.4889 12.5579 14.7214 13.8211C16.1322 15.3211 16.3698 16 17.1568 16H19.2358C19.8298 16 20.1268 15.6842 19.9486 15.0684C19.7556 14.4526 19.0873 13.5526 18.1963 12.4789C17.7063 11.8632 16.9786 11.2158 16.7707 10.8842C16.4589 10.4579 16.548 10.2684 16.7707 9.90526C16.7707 9.88947 19.3101 6.1 19.5625 4.80526Z" fill="currentColor" fill-opacity="0.25" />
  </symbol>
  <symbol id="dots-12" viewBox="0 0 12 12">
    <ns0:path xmlns:ns0="http://www.w3.org/2000/svg" d="M2.80859 6.74219C2.55046 6.74219 2.33252 6.65544 2.15479 6.48193C1.98128 6.3042 1.89453 6.08626 1.89453 5.82812C1.89453 5.57422 1.98128 5.3584 2.15479 5.18066C2.33252 5.00293 2.55046 4.91406 2.80859 4.91406C3.0625 4.91406 3.2762 5.00293 3.44971 5.18066C3.62744 5.3584 3.71631 5.57422 3.71631 5.82812C3.71631 6.08626 3.62744 6.3042 3.44971 6.48193C3.2762 6.65544 3.0625 6.74219 2.80859 6.74219Z" fill="currentColor" fill-opacity="0.9" />
  <ns0:path xmlns:ns0="http://www.w3.org/2000/svg" d="M5.7925 6.74219C5.53436 6.74219 5.31643 6.65544 5.13869 6.48193C4.96519 6.3042 4.87844 6.08626 4.87844 5.82812C4.87844 5.57422 4.96519 5.3584 5.13869 5.18066C5.31643 5.00293 5.53436 4.91406 5.7925 4.91406C6.04641 4.91406 6.26011 5.00293 6.43361 5.18066C6.61135 5.3584 6.70021 5.57422 6.70021 5.82812C6.70021 6.08626 6.61135 6.3042 6.43361 6.48193C6.26011 6.65544 6.04641 6.74219 5.7925 6.74219Z" fill="currentColor" fill-opacity="0.9" />
  <ns0:path xmlns:ns0="http://www.w3.org/2000/svg" d="M8.77641 6.74219C8.51827 6.74219 8.30033 6.65544 8.1226 6.48193C7.9491 6.3042 7.86234 6.08626 7.86234 5.82812C7.86234 5.57422 7.9491 5.3584 8.1226 5.18066C8.30033 5.00293 8.51827 4.91406 8.77641 4.91406C9.03031 4.91406 9.24402 5.00293 9.41752 5.18066C9.59525 5.3584 9.68412 5.57422 9.68412 5.82812C9.68412 6.08626 9.59525 6.3042 9.41752 6.48193C9.24402 6.65544 9.03031 6.74219 8.77641 6.74219Z" fill="currentColor" fill-opacity="0.9" />
  </symbol>
</svg>