<svg width="8" height="10" viewBox="0 0 8 10" fill="none" xmlns="http://www.w3.org/2000/svg">
<path fill-rule="evenodd" clip-rule="evenodd" d="M8 1.5V4.5498C8 5.8164 7.62306 6.96872 6.86914 8.00635C6.11514 9.04401 5.15867 9.70867 4 10C2.84167 9.70833 1.88519 9.04353 1.13086 8.00586C0.376603 6.96823 -0.000333095 5.81607 2.20862e-07 4.5498V1.5L4 0L8 1.5ZM5.54346 3.39502L3.39844 5.57471L2.45654 4.61719L2.34961 4.50879L2.24268 4.61719L1.89307 4.97266L1.78955 5.07812L1.89307 5.18311L3.39893 6.71387L6.10693 3.96094L6.21045 3.85547L6.10693 3.75049L5.65039 3.28613L5.54346 3.39502Z" fill="black"/>
</svg>
