<svg width="64" height="23" viewBox="0 0 64 23" fill="none" xmlns="http://www.w3.org/2000/svg">
<g filter="url(#filter0_d_5541_3094)">
<path d="M44.6172 9.70482C44.7326 8.89341 45.3896 8.4091 46.3522 8.45902C47.3161 8.50901 47.9191 9.05866 47.9499 9.87765L44.6172 9.70482ZM47.7468 11.8853C47.4689 12.4767 46.8693 12.8042 46.0802 12.7632C45.0919 12.712 44.4587 12.0605 44.4823 11.0846L50.1636 11.3792L50.1784 11.0925C50.3051 8.65117 48.9432 7.20493 46.3753 7.07176C43.8818 6.94245 42.3022 8.249 42.1896 10.4207C42.0763 12.6057 43.5359 14.0677 46.0059 14.1958C47.4881 14.2727 48.6637 13.8243 49.4184 12.9681L47.7468 11.8853Z" fill="white"/>
<path d="M19.409 8.40143C19.5265 7.59013 20.1835 7.10582 21.147 7.15579C22.1092 7.20569 22.7122 7.75533 22.7438 8.57437L19.409 8.40143ZM22.5407 10.5821C22.2624 11.1751 21.6632 11.5026 20.8723 11.4616C19.8858 11.4104 19.2509 10.7572 19.2754 9.78082L24.9554 10.0754L24.9702 9.7904C25.0969 7.34778 23.7354 5.90113 21.1676 5.76796C18.6728 5.63859 17.0961 6.94572 16.9835 9.11746C16.8702 11.3024 18.329 12.7644 20.7981 12.8925C22.2799 12.9693 23.4563 12.5227 24.2123 11.6652L22.5407 10.5821Z" fill="white"/>
<path d="M16.7362 4.05595L14.6875 3.94971L14.2528 12.3312L16.3016 12.4374L16.7362 4.05595Z" fill="white"/>
<path d="M25.638 6.74958L27.6982 6.85642L27.6723 7.35546C28.442 6.61482 29.3383 6.26675 30.3262 6.31798C31.464 6.37698 32.3049 6.81515 32.7149 7.50815C33.0575 8.0807 33.0473 8.74977 33.0018 9.62736L32.8117 13.2928L30.7484 13.1858L30.9154 9.96513C30.9848 8.62867 30.748 7.99778 29.5747 7.93693C28.3891 7.87545 27.6107 8.54323 27.5492 9.72886L27.379 13.011L25.3188 12.9042L25.638 6.74958Z" fill="white"/>
<path d="M39.6169 10.3919C39.5574 11.5391 38.7519 12.2517 37.5658 12.1902C36.3788 12.1287 35.65 11.3622 35.7102 10.2026C35.7712 9.02592 36.5651 8.3388 37.7623 8.40088C38.9484 8.46239 39.6765 9.2413 39.6169 10.3919ZM39.7533 7.76129C39.2614 7.17586 38.5236 6.83042 37.476 6.77609C35.2158 6.65888 33.6002 7.97256 33.4919 10.0614C33.3857 12.1093 34.844 13.6213 37.0777 13.7372C38.1019 13.7903 38.8673 13.5703 39.4806 13.02L39.4486 13.6369L41.5101 13.7438L41.9723 4.83083L39.8832 5.25542L39.7533 7.76129Z" fill="white"/>
<path d="M9.83589 6.95462C11.0339 7.01675 11.7495 7.78214 11.6885 8.9588C11.6284 10.1184 10.8255 10.8055 9.63938 10.744C8.45416 10.6825 7.72752 9.89039 7.78701 8.74321C7.84668 7.59261 8.65067 6.89316 9.83589 6.95462ZM8.05338 3.60673L6.01855 2.96826L5.55634 11.8813L7.61873 11.9882L7.65072 11.3713C8.20083 11.982 8.94066 12.28 9.96566 12.3331C12.2007 12.449 13.8054 11.0958 13.9116 9.04797C14.0199 6.95911 12.5485 5.48535 10.2896 5.3682C9.2398 5.31376 8.47066 5.58104 7.92343 6.11258L8.05338 3.60673Z" fill="white"/>
<path d="M50.5276 14.2135L50.8467 8.05886L52.9083 8.16577L52.8886 8.54603C53.5445 7.83462 54.217 7.49849 54.96 7.53702C55.1074 7.54466 55.2916 7.57821 55.5369 7.61535L55.4459 9.37009C55.2485 9.33372 55.0272 9.32224 54.7922 9.31006C53.5937 9.2479 52.8132 9.99998 52.7435 11.3441L52.5891 14.3204L50.5276 14.2135Z" fill="white"/>
<path d="M56.8178 7.35256L56.8895 5.97067L57.5655 6.00572C57.6528 6.01025 57.7318 6.0325 57.8023 6.07245C57.8741 6.11248 57.9294 6.16792 57.9683 6.23877C58.0085 6.30845 58.0261 6.39197 58.021 6.48934C58.016 6.58671 57.9892 6.66856 57.9407 6.73489C57.8922 6.80121 57.8296 6.85053 57.7528 6.88285C57.6761 6.91392 57.5922 6.92709 57.501 6.92237L57.0385 6.89838L57.052 6.63811L57.4396 6.65821C57.4921 6.66093 57.5379 6.6464 57.5771 6.61464C57.6175 6.58294 57.6394 6.53401 57.6429 6.46785C57.6464 6.3992 57.6296 6.34951 57.5924 6.31879C57.5565 6.28689 57.513 6.26961 57.4618 6.26695L57.2352 6.25521L57.1773 7.37121L56.8178 7.35256ZM57.7329 6.75978L58.0143 7.41461L57.6211 7.39422L57.3603 6.74046L57.7329 6.75978ZM57.3163 8.20452C57.109 8.19377 56.9169 8.14501 56.7399 8.05822C56.5629 7.97144 56.4093 7.85583 56.2791 7.71139C56.149 7.56696 56.0499 7.40223 55.9818 7.21721C55.9138 7.03219 55.8852 6.83607 55.8959 6.62885C55.9067 6.42162 55.9555 6.22952 56.0422 6.05252C56.129 5.87553 56.2446 5.72194 56.3891 5.59174C56.5335 5.46155 56.6982 5.36245 56.8833 5.29444C57.0683 5.22643 57.2644 5.1978 57.4716 5.20854C57.6788 5.21929 57.8709 5.26805 58.0479 5.35484C58.2249 5.44162 58.3785 5.55723 58.5087 5.70167C58.6389 5.8461 58.738 6.01083 58.806 6.19585C58.874 6.38087 58.9027 6.57699 58.8919 6.78421C58.8812 6.99144 58.8324 7.18354 58.7456 7.36054C58.6588 7.53753 58.5432 7.69112 58.3988 7.82132C58.2544 7.95151 58.0896 8.05061 57.9046 8.11862C57.7196 8.18663 57.5235 8.21526 57.3163 8.20452ZM57.3367 7.80942C57.5415 7.82004 57.7294 7.78034 57.9005 7.69034C58.073 7.59915 58.2128 7.47309 58.3201 7.31218C58.4274 7.15002 58.4863 6.9672 58.4968 6.76373C58.5074 6.56025 58.467 6.37291 58.3758 6.2017C58.2858 6.02931 58.1598 5.88947 57.9976 5.78218C57.8368 5.6737 57.6546 5.61419 57.4511 5.60364C57.2489 5.59315 57.0616 5.6335 56.8891 5.72469C56.7167 5.81464 56.5769 5.94069 56.4696 6.10285C56.3624 6.26376 56.3035 6.44596 56.2929 6.64943C56.2824 6.85291 56.3221 7.04084 56.412 7.21323C56.502 7.38437 56.6281 7.52421 56.7902 7.63275C56.9523 7.74005 57.1345 7.79894 57.3367 7.80942Z" fill="white"/>
</g>
<defs>
<filter id="filter0_d_5541_3094" x="0.556396" y="0.968262" width="63.3376" height="21.3521" filterUnits="userSpaceOnUse" color-interpolation-filters="sRGB">
<feFlood flood-opacity="0" result="BackgroundImageFix"/>
<feColorMatrix in="SourceAlpha" type="matrix" values="0 0 0 0 0 0 0 0 0 0 0 0 0 0 0 0 0 0 127 0" result="hardAlpha"/>
<feOffset dy="3"/>
<feGaussianBlur stdDeviation="2.5"/>
<feComposite in2="hardAlpha" operator="out"/>
<feColorMatrix type="matrix" values="0 0 0 0 0 0 0 0 0 0 0 0 0 0 0 0 0 0 0.2 0"/>
<feBlend mode="normal" in2="BackgroundImageFix" result="effect1_dropShadow_5541_3094"/>
<feBlend mode="normal" in="SourceGraphic" in2="effect1_dropShadow_5541_3094" result="shape"/>
</filter>
</defs>
</svg>
