<svg width="45" height="38" viewBox="0 0 45 38" fill="none" xmlns="http://www.w3.org/2000/svg">
<path d="M17.834 20.9895C18.1356 18.2006 19.6303 15.8073 21.783 14.1674C23.8943 12.5565 26.6707 11.649 29.6407 11.8031C32.6078 11.9569 35.2754 13.1468 37.2102 14.9675C39.1803 16.8211 40.4194 19.3563 40.4325 22.1585C40.4399 25.0405 39.1486 27.6505 37.0237 29.5246C34.8571 31.4308 31.8585 32.5418 28.5741 32.3715C25.2896 32.2011 22.4161 30.7856 20.4598 28.6657C18.5387 26.5817 17.5272 23.8522 17.834 20.9895Z" fill="white"/>
<path d="M23.3147 21.5269C23.4694 20.0959 24.2364 18.8679 25.341 18.0264C26.4243 17.1999 27.8489 16.7342 29.3728 16.8133C30.8952 16.8922 32.264 17.5027 33.2568 18.4369C34.2677 19.3881 34.9034 20.6889 34.9101 22.1267C34.914 23.6055 34.2514 24.9447 33.1611 25.9063C32.0494 26.8844 30.5108 27.4544 28.8255 27.367C27.1403 27.2796 25.6658 26.5533 24.662 25.4656C23.6763 24.3963 23.1573 22.9958 23.3147 21.5269Z" fill="#265787"/>
<path d="M13.9306 23.955C13.9113 24.5172 14.0335 25.6178 14.2574 26.484C14.7274 28.3172 15.5967 30.0357 16.8504 31.5755C18.1369 33.158 19.7546 34.4595 21.6512 35.4223C23.6447 36.4336 25.8317 37.0096 28.1284 37.1249C30.4213 37.2408 32.6566 36.8849 34.7444 36.0785C36.7308 35.3087 38.4732 34.1761 39.9142 32.7342C41.3201 31.3263 42.3612 29.7038 43.0198 27.9292C43.3511 27.0324 43.5785 26.1166 43.6986 25.1921C43.8165 24.2813 43.8345 23.3637 43.7524 22.4417C43.5919 20.6451 43.0629 18.9397 42.1937 17.365C41.3992 15.9183 40.3449 14.6331 39.0692 13.5313L39.0723 13.5292L26.1929 2.51271C26.1812 2.50298 26.1719 2.49261 26.1595 2.4836C25.3145 1.76098 23.8343 1.68651 22.8312 2.3148C21.817 2.95013 21.6461 4.07892 22.48 4.83976L22.476 4.84337L27.8346 9.69246L10.7804 8.8263L10.7577 8.82512C9.34805 8.75354 7.94497 9.60993 7.61612 10.7671C7.27855 11.9458 8.18459 12.9851 9.64993 13.0664L9.64738 13.0716L18.2919 13.5032L2.25262 24.5663C2.23218 24.5797 2.21019 24.5937 2.19126 24.6072C0.678364 25.6481 0.111748 27.4801 0.9673 28.7025C1.83546 29.9453 3.81296 30.0501 5.34483 28.9363L14.1208 22.4696C14.1208 22.4696 13.9497 23.3952 13.9306 23.955ZM35.3999 28.1976C33.5736 29.8782 31.0932 30.7564 28.4654 30.6254C25.8339 30.4935 23.4572 29.3726 21.8144 27.5151C21.0115 26.6098 20.4403 25.5863 20.1111 24.5107C19.7884 23.4537 19.6994 22.3449 19.8539 21.2389C20.0019 20.1576 20.3783 19.1384 20.942 18.2278C21.4957 17.3327 22.2357 16.5363 23.1326 15.8766C24.89 14.5873 27.0752 13.9533 29.3204 14.0667C31.5678 14.1802 33.6745 15.0299 35.2909 16.4896C36.1134 17.2354 36.7665 18.101 37.2247 19.0471C37.6935 20.0104 37.9603 21.0592 37.9993 22.1532C38.0372 23.2677 37.834 24.3599 37.4037 25.3786C36.964 26.4173 36.2923 27.3763 35.3999 28.1976Z" fill="#EA7600"/>
<path d="M13.9306 23.955C13.9113 24.5172 14.0335 25.6178 14.2574 26.484C14.7274 28.3172 15.5967 30.0357 16.8504 31.5755C18.1369 33.158 19.7546 34.4595 21.6512 35.4223C23.6447 36.4336 25.8317 37.0096 28.1284 37.1249C30.4213 37.2408 32.6566 36.8849 34.7444 36.0785C36.7308 35.3087 38.4732 34.1761 39.9142 32.7342C41.3201 31.3263 42.3612 29.7038 43.0198 27.9292C43.3511 27.0324 43.5785 26.1166 43.6986 25.1921C43.8165 24.2813 43.8345 23.3637 43.7524 22.4417C43.5919 20.6451 43.0629 18.9397 42.1937 17.365C41.3992 15.9183 40.3449 14.6331 39.0692 13.5313L39.0723 13.5292L26.1929 2.51271C26.1812 2.50298 26.1719 2.49261 26.1595 2.4836C25.3145 1.76098 23.8343 1.68651 22.8312 2.3148C21.817 2.95013 21.6461 4.07892 22.48 4.83976L22.476 4.84337L27.8346 9.69246L10.7804 8.8263L10.7577 8.82512C9.34805 8.75354 7.94497 9.60993 7.61612 10.7671C7.27855 11.9458 8.18459 12.9851 9.64993 13.0664L9.64738 13.0716L18.2919 13.5032L2.25262 24.5663C2.23218 24.5797 2.21019 24.5937 2.19126 24.6072C0.678364 25.6481 0.111748 27.4801 0.9673 28.7025C1.83546 29.9453 3.81296 30.0501 5.34483 28.9363L14.1208 22.4696C14.1208 22.4696 13.9497 23.3952 13.9306 23.955ZM35.3999 28.1976C33.5736 29.8782 31.0932 30.7564 28.4654 30.6254C25.8339 30.4935 23.4572 29.3726 21.8144 27.5151C21.0115 26.6098 20.4403 25.5863 20.1111 24.5107C19.7884 23.4537 19.6994 22.3449 19.8539 21.2389C20.0019 20.1576 20.3783 19.1384 20.942 18.2278C21.4957 17.3327 22.2357 16.5363 23.1326 15.8766C24.89 14.5873 27.0752 13.9533 29.3204 14.0667C31.5678 14.1802 33.6745 15.0299 35.2909 16.4896C36.1134 17.2354 36.7665 18.101 37.2247 19.0471C37.6935 20.0104 37.9603 21.0592 37.9993 22.1532C38.0372 23.2677 37.834 24.3599 37.4037 25.3786C36.964 26.4173 36.2923 27.3763 35.3999 28.1976Z" fill="white" fill-opacity="0.2"/>
<path d="M24.5297 2.39199C25.0438 2.41805 25.5121 2.5882 25.8341 2.8635L25.8426 2.87078C25.8436 2.87178 25.845 2.87272 25.8463 2.87391L25.8725 2.89678L38.2463 13.4805L38.2462 13.4815L38.7423 13.9101C39.975 14.9748 40.9907 16.2135 41.7551 17.6053L41.756 17.6063C42.5923 19.1213 43.1002 20.7602 43.2543 22.4863C43.3233 23.2615 43.319 24.0328 43.241 24.7993L43.2024 25.1278C43.0874 26.0136 42.8694 26.8925 42.5509 27.7548C41.918 29.4603 40.9167 31.022 39.5602 32.3806C38.2567 33.6849 36.6963 34.7291 34.9214 35.4687L34.5639 35.6125C32.5428 36.3931 30.3772 36.738 28.1532 36.6256C25.9249 36.5137 23.807 35.9547 21.8777 34.9761C20.0418 34.0441 18.4797 32.7868 17.2387 31.2602L17.2377 31.2601C16.0282 29.7747 15.1935 28.1207 14.7421 26.3596L14.7411 26.3586C14.5268 25.5295 14.4134 24.4775 14.4307 23.9721C14.4392 23.7229 14.4822 23.3756 14.527 23.0765C14.549 22.93 14.5704 22.8 14.5863 22.707C14.5942 22.6608 14.6011 22.6238 14.6056 22.5985C14.6079 22.5858 14.6099 22.5759 14.611 22.5694C14.6116 22.5664 14.6121 22.5642 14.6124 22.5627L14.6125 22.5607L14.8422 21.317L13.8245 22.0671L5.04811 28.5334C3.65167 29.5471 2.02698 29.3459 1.37737 28.4163L1.37742 28.4154C0.779493 27.561 1.05555 26.1568 2.22851 25.2032L2.47469 25.0194L2.48079 25.0148C2.48931 25.0088 2.49804 25.0018 2.52543 24.9839L2.52635 24.9849L2.53651 24.9776L18.5763 13.9146L19.7902 13.0769L18.3165 13.0034L10.4288 12.61L10.4298 12.6091L9.67808 12.5672C9.05442 12.5325 8.59552 12.2972 8.33174 11.9976C8.07565 11.7066 7.97583 11.3282 8.097 10.9049L8.09705 10.9039C8.21942 10.4734 8.55537 10.062 9.04424 9.76103C9.4695 9.49926 9.98437 9.33842 10.5074 9.32254L10.7322 9.32442L10.7546 9.32559L27.8088 10.1914L29.2103 10.2631L28.1698 9.32125L23.2213 4.84314L23.2243 4.84134L22.8172 4.47015C22.5103 4.19011 22.4178 3.87794 22.4574 3.60074C22.4983 3.3152 22.6909 2.99237 23.0967 2.73816C23.5001 2.48563 24.0169 2.36604 24.5297 2.39199ZM29.346 13.5676C26.9913 13.4486 24.6914 14.1131 22.8372 15.4733L22.8362 15.4742C21.8903 16.1699 21.1055 17.0129 20.5166 17.9648C19.9176 18.9325 19.5167 20.0176 19.3588 21.1699C19.1942 22.348 19.2889 23.5301 19.6327 24.6565L19.6327 24.6575C19.9834 25.8031 20.5909 26.8889 21.4397 27.8462C23.1764 29.8099 25.6819 30.987 28.4404 31.1253C31.1952 31.2625 33.8082 30.3411 35.738 28.5652C36.6817 27.6968 37.3964 26.6797 37.8646 25.5737L37.8646 25.5727C38.323 24.4874 38.5399 23.323 38.4995 22.1361L38.4986 22.1351C38.4571 20.9705 38.1724 19.8533 37.6736 18.8282C37.1862 17.8222 36.494 16.9054 35.6266 16.1189L35.6256 16.1189C33.92 14.5786 31.7029 13.6867 29.346 13.5676Z" stroke="url(#paint0_linear_5541_3088)" stroke-opacity="0.8"/>
<defs>
<linearGradient id="paint0_linear_5541_3088" x1="23.4184" y1="1.83369" x2="21.6058" y2="36.7867" gradientUnits="userSpaceOnUse">
<stop stop-color="white" stop-opacity="0.3"/>
<stop offset="1" stop-color="white" stop-opacity="0.1"/>
</linearGradient>
</defs>
</svg>
