<svg width="44" height="45" viewBox="0 0 44 45" fill="none" xmlns="http://www.w3.org/2000/svg">
<g filter="url(#filter0_d_5541_3077)">
<path d="M17.9802 6.72412L22.9693 7.05518L22.3072 17.0332L17.3181 16.7022C15.995 16.6144 14.7609 16.0045 13.8873 15.0068C13.0138 14.0091 12.5724 12.7053 12.6602 11.3821C12.748 10.0589 13.3578 8.82482 14.3555 7.95128C15.3532 7.07774 16.6571 6.63632 17.9802 6.72412Z" fill="#F4511E"/>
<path d="M17.9802 6.72412L22.9693 7.05518L22.3072 17.0332L17.3181 16.7022C15.995 16.6144 14.7609 16.0045 13.8873 15.0068C13.0138 14.0091 12.5724 12.7053 12.6602 11.3821C12.748 10.0589 13.3578 8.82482 14.3555 7.95128C15.3532 7.07774 16.6571 6.63632 17.9802 6.72412Z" fill="white" fill-opacity="0.15"/>
<path d="M27.2957 17.3648L22.3066 17.0337L22.9688 7.05566L27.9578 7.38672C29.281 7.47452 30.5151 8.08435 31.3886 9.08206C32.2621 10.0798 32.7036 11.3836 32.6158 12.7068C32.528 14.03 31.9181 15.2641 30.9204 16.1376C29.9227 17.0112 28.6188 17.4526 27.2957 17.3648Z" fill="#FF8A65"/>
<path d="M27.2957 17.3648L22.3066 17.0337L22.9688 7.05566L27.9578 7.38672C29.281 7.47452 30.5151 8.08435 31.3886 9.08206C32.2621 10.0798 32.7036 11.3836 32.6158 12.7068C32.528 14.03 31.9181 15.2641 30.9204 16.1376C29.9227 17.0112 28.6188 17.4526 27.2957 17.3648Z" fill="white" fill-opacity="0.15"/>
<path d="M21.976 22.0222C21.7932 24.7776 23.8787 27.1594 26.634 27.3423C29.3894 27.5251 31.7713 25.4397 31.9541 22.6843C32.1369 19.9289 30.0515 17.5471 27.2961 17.3642C24.5408 17.1814 22.1589 19.2668 21.976 22.0222Z" fill="#29B6F6"/>
<path d="M21.976 22.0222C21.7932 24.7776 23.8787 27.1594 26.634 27.3423C29.3894 27.5251 31.7713 25.4397 31.9541 22.6843C32.1369 19.9289 30.0515 17.5471 27.2961 17.3642C24.5408 17.1814 22.1589 19.2668 21.976 22.0222Z" fill="white" fill-opacity="0.15"/>
<path d="M17.3181 16.7021L22.3072 17.0332L21.645 27.0113L16.656 26.6802C15.3328 26.5924 14.0987 25.9826 13.2252 24.9849C12.3517 23.9872 11.9102 22.6833 11.998 21.3601C12.0858 20.0369 12.6957 18.8028 13.6934 17.9293C14.6911 17.0558 15.995 16.6143 17.3181 16.7021Z" fill="#7C4DFF"/>
<path d="M17.3181 16.7021L22.3072 17.0332L21.645 27.0113L16.656 26.6802C15.3328 26.5924 14.0987 25.9826 13.2252 24.9849C12.3517 23.9872 11.9102 22.6833 11.998 21.3601C12.0858 20.0369 12.6957 18.8028 13.6934 17.9293C14.6911 17.0558 15.995 16.6143 17.3181 16.7021Z" fill="white" fill-opacity="0.15"/>
<path d="M16.656 26.6802L21.645 27.0112L21.314 32.0003C21.2262 33.3234 20.6164 34.5575 19.6187 35.4311C18.6209 36.3046 17.3171 36.746 15.9939 36.6582C14.6707 36.5704 13.4366 35.9606 12.5631 34.9629C11.6896 33.9652 11.2481 32.6613 11.3359 31.3381C11.4237 30.015 12.0336 28.7809 13.0313 27.9073C14.029 27.0338 15.3328 26.5924 16.656 26.6802Z" fill="#00E676"/>
<path d="M16.656 26.6802L21.645 27.0112L21.314 32.0003C21.2262 33.3234 20.6164 34.5575 19.6187 35.4311C18.6209 36.3046 17.3171 36.746 15.9939 36.6582C14.6707 36.5704 13.4366 35.9606 12.5631 34.9629C11.6896 33.9652 11.2481 32.6613 11.3359 31.3381C11.4237 30.015 12.0336 28.7809 13.0313 27.9073C14.029 27.0338 15.3328 26.5924 16.656 26.6802Z" fill="white" fill-opacity="0.15"/>
</g>
<defs>
<filter id="filter0_d_5541_3077" x="-4.30469" y="-1.25781" width="52.5605" height="52.5605" filterUnits="userSpaceOnUse" color-interpolation-filters="sRGB">
<feFlood flood-opacity="0" result="BackgroundImageFix"/>
<feColorMatrix in="SourceAlpha" type="matrix" values="0 0 0 0 0 0 0 0 0 0 0 0 0 0 0 0 0 0 127 0" result="hardAlpha"/>
<feOffset dy="3"/>
<feGaussianBlur stdDeviation="2.5"/>
<feComposite in2="hardAlpha" operator="out"/>
<feColorMatrix type="matrix" values="0 0 0 0 0 0 0 0 0 0 0 0 0 0 0 0 0 0 0.1 0"/>
<feBlend mode="normal" in2="BackgroundImageFix" result="effect1_dropShadow_5541_3077"/>
<feBlend mode="normal" in="SourceGraphic" in2="effect1_dropShadow_5541_3077" result="shape"/>
</filter>
</defs>
</svg>
