<svg width="17" height="24" viewBox="0 0 17 24" fill="none" xmlns="http://www.w3.org/2000/svg">
<path d="M4.64052 7.61668C4.69345 9.11757 6.09361 10.2724 6.09361 10.2724C6.09361 10.2724 7.40858 8.99384 7.35565 7.49295C7.30258 5.99117 5.90241 4.83637 5.90241 4.83637C5.90241 4.83637 4.58863 6.11653 4.64052 7.61668ZM4.06287 12.7946C4.90602 14.0283 6.713 14.2523 6.713 14.2523C6.713 14.2523 7.15332 12.4759 6.31016 11.2422C5.46701 10.0085 3.65989 9.7836 3.65989 9.7836C3.65989 9.7836 3.21971 11.5609 4.06287 12.7946ZM5.57702 17.3885C6.90844 18.067 8.61444 17.4038 8.61444 17.4038C8.61444 17.4038 8.16084 15.6397 6.82942 14.9612C5.498 14.2826 3.792 14.9458 3.792 14.9458C3.792 14.9458 4.2456 16.7099 5.57702 17.3885ZM9.43193 20.6618C10.8776 21.0489 12.414 20.0486 12.414 20.0486C12.414 20.0486 11.6056 18.4207 10.1598 18.0327C8.71414 17.6456 7.17792 18.6468 7.17792 18.6468C7.17792 18.6468 7.98628 20.2747 9.43193 20.6618ZM8.1466 3.64784C7.23495 4.85066 7.57348 6.64057 7.57348 6.64057C7.57348 6.64057 9.39235 6.48173 10.304 5.27891C11.2157 4.07609 10.877 2.28528 10.877 2.28528C10.877 2.28528 9.05825 2.44502 8.1466 3.64784Z" fill="black"/>
</svg>
