<svg width="20" height="20" viewBox="0 0 20 20" fill="none" xmlns="http://www.w3.org/2000/svg">
<path d="M10 14.375C10.2479 14.375 10.4559 14.291 10.6239 14.123C10.7919 13.955 10.8756 13.7473 10.875 13.5V10C10.875 9.75208 10.791 9.54441 10.623 9.377C10.455 9.20958 10.2473 9.12558 10 9.125C9.75266 9.12441 9.545 9.20841 9.377 9.377C9.209 9.54558 9.125 9.75325 9.125 10V13.5C9.125 13.7479 9.209 13.9559 9.377 14.1239C9.545 14.2919 9.75266 14.3756 10 14.375ZM10 7.375C10.2479 7.375 10.4559 7.291 10.6239 7.123C10.7919 6.955 10.8756 6.74733 10.875 6.5C10.8744 6.25267 10.7904 6.045 10.623 5.877C10.4556 5.709 10.2479 5.625 10 5.625C9.75208 5.625 9.54441 5.709 9.377 5.877C9.20958 6.045 9.12558 6.25267 9.125 6.5C9.12441 6.74733 9.20841 6.95529 9.377 7.12387C9.54558 7.29246 9.75325 7.37616 10 7.375ZM10 18.75C8.78958 18.75 7.65208 18.5202 6.5875 18.0605C5.52292 17.6008 4.59687 16.9775 3.80937 16.1906C3.02188 15.4037 2.39858 14.4777 1.9395 13.4125C1.48042 12.3473 1.25058 11.2098 1.25 10C1.24942 8.79016 1.47925 7.65267 1.9395 6.5875C2.39975 5.52233 3.02304 4.59629 3.80937 3.80937C4.59571 3.02246 5.52175 2.39917 6.5875 1.9395C7.65325 1.47983 8.79075 1.25 10 1.25C11.2092 1.25 12.3467 1.47983 13.4125 1.9395C14.4782 2.39917 15.4043 3.02246 16.1906 3.80937C16.9769 4.59629 17.6005 5.52233 18.0614 6.5875C18.5222 7.65267 18.7517 8.79016 18.75 10C18.7482 11.2098 18.5184 12.3473 18.0605 13.4125C17.6026 14.4777 16.9793 15.4037 16.1906 16.1906C15.402 16.9775 14.4759 17.6011 13.4125 18.0614C12.3491 18.5216 11.2116 18.7512 10 18.75Z" fill="black" fill-opacity="0.4"/>
</svg>
