<svg width="74" height="41" viewBox="0 0 74 41" fill="none" xmlns="http://www.w3.org/2000/svg">
<g filter="url(#filter0_d_5097_44896)">
<path d="M29.918 18.9224L24.6416 17.2975L34.1288 10.4397C34.3366 10.2899 34.3842 9.98955 34.2322 9.783C34.1761 9.70272 34.0878 9.63952 33.9914 9.60984L24.2466 6.60893C23.3895 6.34497 22.4737 6.83253 22.2098 7.68959C21.9459 8.54664 22.4307 9.46553 23.2859 9.72886L27.6641 11.0771L18.1518 17.9362C17.9358 18.0835 17.8908 18.3756 18.0402 18.5904C18.1019 18.6814 18.1882 18.744 18.2892 18.7661L28.9465 22.048C29.8163 22.2708 30.7032 21.7384 30.9287 20.8605C31.1345 20.0463 30.695 19.2134 29.9079 18.926L29.9104 18.9178L29.918 18.9224ZM66.9417 19.7568C66.0845 19.4929 65.1687 19.9804 64.9048 20.8375L63.2915 26.0764L56.937 16.7907C56.7985 16.577 56.5038 16.5132 56.2892 16.6632C56.1983 16.7252 56.1357 16.8117 56.1028 16.9186L52.7882 27.6821C52.5236 28.5412 53.0091 29.4581 53.8642 29.7214C54.7194 29.9847 55.6346 29.506 55.9011 28.6407L57.5144 23.4018L63.8664 32.6958C64.0131 32.912 64.3103 32.9675 64.5249 32.8176C64.6158 32.7556 64.6784 32.6691 64.7088 32.5704L68.0259 21.7986C68.2862 20.9315 67.807 20.0233 66.9417 19.7568ZM41.6107 22.8449C38.0466 21.7473 35.9681 19.0483 36.4864 17.365C37.0048 15.6818 40.2498 14.6221 43.8057 15.7171C47.3697 16.8147 49.4483 19.5137 48.9299 21.197C48.4115 22.8803 45.1809 23.9443 41.6107 22.8449ZM44.7671 12.5952C39.6137 11.0082 34.5095 12.7104 33.3715 16.4058C32.2335 20.1012 35.4959 24.3799 40.6493 25.9669C45.8026 27.5538 50.9069 25.8517 52.0449 22.1563C53.1829 18.4608 49.9204 14.1821 44.7671 12.5952ZM10.9547 13.4134C8.99014 12.8084 7.88113 10.723 8.4881 8.75197C9.09508 6.78094 11.1774 5.66929 13.144 6.2749C15.1106 6.88051 16.2176 8.9653 15.6106 10.9363L15.608 10.9445C15.0036 12.9073 12.9238 14.0108 10.9547 13.4134ZM14.1136 3.15544C10.4286 2.02063 6.52187 4.09161 5.37566 7.78449C4.2383 11.4778 6.30049 15.3892 9.98507 16.5329C13.6701 17.6677 17.5768 15.5967 18.723 11.9038L18.7255 11.8956C19.8547 8.1997 17.7925 4.28836 14.1136 3.15544Z" fill="#2962FF"/>
</g>
<defs>
<filter id="filter0_d_5097_44896" x="0.0625" y="0.844727" width="73.0342" height="40.0571" filterUnits="userSpaceOnUse" color-interpolation-filters="sRGB">
<feFlood flood-opacity="0" result="BackgroundImageFix"/>
<feColorMatrix in="SourceAlpha" type="matrix" values="0 0 0 0 0 0 0 0 0 0 0 0 0 0 0 0 0 0 127 0" result="hardAlpha"/>
<feOffset dy="3"/>
<feGaussianBlur stdDeviation="2.5"/>
<feComposite in2="hardAlpha" operator="out"/>
<feColorMatrix type="matrix" values="0 0 0 0 0 0 0 0 0 0 0 0 0 0 0 0 0 0 0.1 0"/>
<feBlend mode="normal" in2="BackgroundImageFix" result="effect1_dropShadow_5097_44896"/>
<feBlend mode="normal" in="SourceGraphic" in2="effect1_dropShadow_5097_44896" result="shape"/>
</filter>
</defs>
</svg>
