<svg width="12" height="12" viewBox="0 0 12 12" fill="none" xmlns="http://www.w3.org/2000/svg">
<path fill-rule="evenodd" clip-rule="evenodd" d="M8.75 4.28516C8.58671 4.2618 8.41975 4.25 8.25 4.25C6.4868 4.25 5.02879 5.5539 4.78613 7.25H1.89258C1.26155 7.24986 0.75005 6.76154 0.75 6.15918V3.43164H8.75V4.28516ZM2.17871 5.61328C2.02092 5.61328 1.89258 5.7361 1.89258 5.88672C1.89278 6.03718 2.02104 6.15918 2.17871 6.15918H3.32129C3.47896 6.15918 3.60722 6.03718 3.60742 5.88672C3.60742 5.7361 3.47908 5.61328 3.32129 5.61328H2.17871ZM2.17871 4.52246C2.02092 4.52246 1.89258 4.64528 1.89258 4.7959C1.89283 4.94632 2.02107 5.06836 2.17871 5.06836H4.46387C4.62151 5.06836 4.74975 4.94632 4.75 4.7959C4.75 4.64528 4.62166 4.52246 4.46387 4.52246H2.17871Z" fill="black"/>
<path d="M7.60742 1.25C8.23845 1.25014 8.74995 1.73846 8.75 2.34082V2.61328H0.75V2.34082C0.75005 1.73846 1.26155 1.25014 1.89258 1.25H7.60742Z" fill="black"/>
<path d="M8.25 4.75C6.59322 4.75 5.25 6.09322 5.25 7.75C5.25 9.40678 6.59322 10.75 8.25 10.75C9.90678 10.75 11.25 9.40678 11.25 7.75C11.25 6.09322 9.90678 4.75 8.25 4.75ZM9.63461 8.21154H8.25C8.1888 8.21154 8.1301 8.18723 8.08682 8.14395C8.04354 8.10067 8.01923 8.04197 8.01923 7.98077V5.90385C8.01923 5.84264 8.04354 5.78395 8.08682 5.74067C8.1301 5.69739 8.1888 5.67308 8.25 5.67308C8.3112 5.67308 8.3699 5.69739 8.41318 5.74067C8.45646 5.78395 8.48077 5.84264 8.48077 5.90385V7.75H9.63461C9.69582 7.75 9.75452 7.77431 9.79779 7.81759C9.84107 7.86087 9.86539 7.91957 9.86539 7.98077C9.86539 8.04197 9.84107 8.10067 9.79779 8.14395C9.75452 8.18723 9.69582 8.21154 9.63461 8.21154Z" fill="black"/>
</svg>
