<svg width="10" height="8" viewBox="0 0 10 8" fill="none" xmlns="http://www.w3.org/2000/svg">
<path fill-rule="evenodd" clip-rule="evenodd" d="M8.62695 0.25C8.99163 0.25 9.34175 0.394481 9.59961 0.652344C9.85747 0.910206 10.002 1.26033 10.002 1.625V6.375C10.002 6.73967 9.85747 7.08979 9.59961 7.34766C9.34175 7.60552 8.99163 7.75 8.62695 7.75H1.37695C1.01228 7.75 0.662159 7.60747 0.404297 7.34961C0.146677 7.09179 0.00195312 6.74437 0.00195312 6.37988V1.625C0.00195312 1.26033 0.146434 0.910206 0.404297 0.652344C0.662159 0.394481 1.01228 0.25 1.37695 0.25H8.62695ZM2.37695 4.75C2.2775 4.75 2.18165 4.78905 2.11133 4.85938C2.041 4.9297 2.00195 5.02554 2.00195 5.125C2.00195 5.22446 2.041 5.3203 2.11133 5.39062C2.18165 5.46095 2.2775 5.5 2.37695 5.5H5.62695C5.72641 5.5 5.82225 5.46095 5.89258 5.39062C5.9629 5.3203 6.00195 5.22446 6.00195 5.125C6.00195 5.02554 5.9629 4.9297 5.89258 4.85938C5.82225 4.78905 5.72641 4.75 5.62695 4.75H2.37695ZM2.37695 2.25C2.2775 2.25 2.18165 2.28905 2.11133 2.35938C2.041 2.4297 2.00195 2.52554 2.00195 2.625C2.00195 2.72446 2.041 2.8203 2.11133 2.89062C2.18165 2.96095 2.2775 3 2.37695 3H7.62695C7.72641 3 7.82225 2.96095 7.89258 2.89062C7.9629 2.8203 8.00195 2.72446 8.00195 2.625C8.00195 2.52554 7.9629 2.4297 7.89258 2.35938C7.82225 2.28905 7.72641 2.25 7.62695 2.25H2.37695Z" fill="black"/>
</svg>
