<svg width="20" height="21" viewBox="0 0 20 21" fill="none" xmlns="http://www.w3.org/2000/svg">
<path d="M3.54376 0.5C1.58064 0.5 0 2.08064 0 4.04376V16.9563C0 18.9194 1.58064 20.5 3.54376 20.5H13.0475L20 10.5025L13.0475 0.50002L3.54376 0.5ZM8.86564 4.15126H11.1238C11.2624 4.15126 11.3419 4.20196 11.3419 4.32126V16.7663C11.3419 16.8509 11.302 16.9019 11.1831 16.9019H9.955C9.87632 16.9019 9.81688 16.834 9.81688 16.7831V12.1756H8.82562L6.0725 16.7831C6.03298 16.8679 5.95386 16.9019 5.835 16.9019H4.42874C4.27074 16.9019 4.17166 16.7831 4.27062 16.63L7.30062 11.9375C5.67688 11.3255 4.76562 10.0844 4.76562 8.40124C4.76562 5.59596 6.64744 4.15124 8.86562 4.15124L8.86564 4.15126ZM8.80626 5.23876C7.59802 5.23876 6.40938 6.1058 6.40938 8.23126C6.40938 10.2715 7.67716 11.0875 8.98438 11.0875H9.81688V5.23876H8.80626Z" fill="black"/>
</svg>
