<svg width="10" height="10" viewBox="0 0 10 10" fill="none" xmlns="http://www.w3.org/2000/svg">
<path d="M4.04388 1.18392C4.34605 0.299643 5.56788 0.272862 5.92614 1.10358L5.95646 1.18443L6.36424 2.37694C6.4577 2.65043 6.60871 2.90069 6.80711 3.11085C7.00551 3.32102 7.24666 3.48619 7.51432 3.59523L7.62397 3.63615L8.81649 4.04343C9.70078 4.3456 9.72756 5.56742 8.89734 5.92568L8.81649 5.956L7.62397 6.36378C7.35039 6.45717 7.10003 6.60815 6.88977 6.80655C6.67952 7.00495 6.51427 7.24614 6.40517 7.51384L6.36424 7.62299L5.95697 8.81601C5.6548 9.70029 4.43297 9.72707 4.07521 8.89686L4.04388 8.81601L3.63661 7.62349C3.54321 7.34992 3.39223 7.09955 3.19383 6.8893C2.99543 6.67905 2.75424 6.5138 2.48653 6.40471L2.37738 6.36378L1.18486 5.9565C0.300073 5.65433 0.273292 4.43251 1.10401 4.07476L1.18486 4.04343L2.37738 3.63615C2.65087 3.5427 2.90114 3.39169 3.1113 3.19329C3.32146 2.9949 3.48664 2.75374 3.59568 2.48609L3.63661 2.37694L4.04388 1.18392Z" fill="black" fill-opacity="0.5"/>
</svg>
