<svg width="10" height="10" viewBox="0 0 10 10" fill="none" xmlns="http://www.w3.org/2000/svg">
<path d="M7.25 0.5C6.65326 0.5 6.08097 0.749529 5.65901 1.19369C5.23705 1.63786 5 2.24028 5 2.86842V4.28947H1.22C0.824 4.28947 0.5 4.63053 0.5 5.04737V8.36316C0.5 8.98842 0.986 9.5 1.58 9.5H5.72C6.314 9.5 6.8 8.98842 6.8 8.36316V5.04737C6.8 4.63053 6.476 4.28947 6.08 4.28947H5.9V2.86842C5.9 2.08305 6.5039 1.44737 7.25 1.44737C7.9961 1.44737 8.6 2.08305 8.6 2.86842V4.28947C8.6 4.4151 8.64741 4.53559 8.7318 4.62442C8.81619 4.71325 8.93065 4.76316 9.05 4.76316C9.16935 4.76316 9.28381 4.71325 9.3682 4.62442C9.45259 4.53559 9.5 4.4151 9.5 4.28947V2.86842C9.5 2.5574 9.4418 2.24942 9.32873 1.96207C9.21566 1.67472 9.04992 1.41362 8.84099 1.19369C8.63206 0.973766 8.38402 0.79931 8.11104 0.680285C7.83806 0.561261 7.54547 0.5 7.25 0.5Z" fill="black" fill-opacity="0.5"/>
</svg>
